<?xml version="1.0" encoding="UTF-8"?>
<svg width="1440px" height="881px" viewBox="0 0 1440 881" version="1.1" xmlns="http://www.w3.org/2000/svg" xmlns:xlink="http://www.w3.org/1999/xlink">
    <!-- Generator: Sketch 52.6 (67491) - http://www.bohemiancoding.com/sketch -->
    <title>layer1</title>
    <desc>Created with Sketch.</desc>
    <defs>
        <rect id="path-1" x="0" y="0" width="1440" height="900"></rect>
        <polygon id="path-3" points="0.280175633 0.420089266 134.181248 0.420089266 134.181248 92.7629963 0.280175633 92.7629963"></polygon>
        <polygon id="path-5" points="0.727828278 0.900529182 134.910309 0.900529182 134.910309 93.6908231 0.727828278 93.6908231"></polygon>
        <polygon id="path-7" points="0.654887836 0.509487039 57.0183485 0.509487039 57.0183485 131.458624 0.654887836 131.458624"></polygon>
        <polygon id="path-9" points="0.979745911 0.925414407 47.3949937 0.925414407 47.3949937 131.458624 0.979745911 131.458624"></polygon>
        <polygon id="path-11" points="0.0487168257 0.815943483 47.3349197 0.815943483 47.3349197 131.458624 0.0487168257 131.458624"></polygon>
    </defs>
    <g id="Page-1" stroke="none" stroke-width="1" fill="none" fill-rule="evenodd">
        <g id="Background-Copy" transform="translate(0.000000, -19.000000)">
            <g id="layer1">
                <mask id="mask-2" fill="white">
                    <use xlink:href="#path-1"></use>
                </mask>
                <g id="Mask"></g>
                <g mask="url(#mask-2)">
                    <g transform="translate(-97.000000, 19.000000)">
                        <g id="Group-7" transform="translate(731.000000, 682.000000)">
                            <path d="M44.8727097,76.7016992 C44.8727097,76.7016992 59.4962783,90.9753845 62.5661851,90.3435319 C65.6360919,89.709747 73.3108589,87.0007032 74.4828296,81.1285319 C75.6548003,75.2544283 65.1842943,69.382257 63.0160519,69.9252251 C60.8497403,70.466261 46.5872237,68.5687709 44.8727097,76.7016992" id="Fill-445" fill="#F7B43E"></path>
                            <path d="M44.8727097,76.7016992 C44.8727097,76.7016992 39.727237,83.5670578 39.727237,91.6999861 C39.727237,99.8309821 47.8518708,105.162118 51.6438815,104.980484 C55.4358921,104.798851 58.9209121,94.8573167 57.6022037,90.8420578 C56.2796338,86.8267988 48.844281,76.3403645 44.8727097,76.7016992" id="Fill-447" fill="#F7B467"></path>
                            <path d="M44.8727097,76.7016992 C44.8727097,76.7016992 38.4625899,93.5955438 35.3038682,92.8728745 C32.1432157,92.1502052 19.8655193,89.1687112 19.7747736,86.728253 C19.684028,84.2897271 20.9486751,75.8882131 25.7330959,74.1704243 C30.5175166,72.4545677 43.9691145,73.2680538 44.8727097,76.7016992" id="Fill-449" fill="#F9C78E"></path>
                            <path d="M44.8727097,75.8884064 C45.9095273,75.9811554 40.1635885,60.0882271 33.5835619,55.5126096 C30.3379561,53.2537849 25.6423502,52.3069721 23.4760386,54.2044622 C22.5299667,55.0334064 18.8016711,63.6184861 22.0318309,66.8531076 C25.5535353,70.3756375 28.8030027,74.4430677 44.8727097,75.8884064" id="Fill-451" fill="#F7B467"></path>
                            <path d="M44.5106924,74.6221892 C44.5106924,74.6221892 39.0929827,62.7870299 41.0816644,58.6326474 C43.0664847,54.4744004 51.9132224,50.5016514 55.6144874,51.5837231 C59.3157523,52.6696594 60.5803995,62.8778466 59.4972437,66.9433446 C58.4140879,71.0088426 46.4955126,76.7013127 44.5106924,74.6221892" id="Fill-453" fill="#F9C78E"></path>
                            <path d="M51.4475233,75.9732331 C51.4475233,79.5402052 48.5591079,82.4328147 44.992996,82.4328147 C41.4307457,82.4328147 38.5384687,79.5402052 38.5384687,75.9732331 C38.5384687,72.4043287 42.1431957,70.5764004 45.7054461,70.5764004 C49.2715579,70.5764004 51.4475233,72.4043287 51.4475233,75.9732331" id="Fill-455" fill="#E65290"></path>
                            <path d="M21.3848336,17.2522928 C21.3848336,17.2522928 35.0797071,13.8862769 35.8288415,11.8554602 C36.577976,9.82464343 37.7924234,4.33506175 34.7823702,1.50621713 C31.7742477,-1.32649203 24.5126631,2.66944422 24.0396272,4.13797012 C23.5665912,5.60842829 17.2491478,13.2776116 21.3848336,17.2522928" id="Fill-457" fill="#F7B43E"></path>
                            <path d="M21.3848336,17.2522928 C21.3848336,17.2522928 23.5241145,22.7747231 28.2853662,25.7446235 C33.0466178,28.7106594 39.1323702,25.8934084 40.4105326,23.6017351 C41.6906258,21.3139263 37.1417577,15.6407789 34.3074035,14.9490259 C31.4769108,14.2572729 22.6224501,14.7905797 21.3848336,17.2522928" id="Fill-459" fill="#F7B467"></path>
                            <path d="M21.3848336,17.2522928 C21.3848336,17.2522928 28.936032,27.1764363 27.3605326,28.7647629 C25.7831025,30.3530896 19.5564048,36.4648625 18.0948202,35.6281892 C16.6332357,34.7895837 12.1751132,30.9810777 12.9165246,27.5493645 C13.6598668,24.1195837 19.0447537,16.5276912 21.3848336,17.2522928" id="Fill-461" fill="#F9C78E"></path>
                            <path d="M20.9079361,16.9541434 C21.3423569,16.380259 9.93929427,13.9494622 4.85753662,16.1367928 C2.35334221,17.2169323 0.0847003995,19.6245418 0.405206391,21.5857968 C0.544221039,22.4437251 4.21073236,27.7651992 7.28256991,27.050259 C10.630506,26.2715538 14.1966178,25.8503187 20.9079361,16.9541434" id="Fill-463" fill="#F7B467"></path>
                            <path d="M20.0348469,16.7050737 C20.0348469,16.7050737 11.1301864,15.5611693 9.42146471,12.8811096 C7.71274301,10.1991175 8.61440746,3.55983466 10.5992277,1.78407769 C12.5879095,0.010252988 19.0250599,2.99561155 21.0098802,5.11531275 C22.9947004,7.23501394 21.9771904,16.2992968 20.0348469,16.7050737" id="Fill-465" fill="#F9C78E"></path>
                            <path d="M23.3571039,13.1292131 C25.4461851,14.4315637 26.0852663,17.1831175 24.7839348,19.2719024 C23.4826032,21.3626195 20.7351332,22.0022012 18.6479827,20.6979183 C16.5589015,19.3955677 16.8021771,16.6169622 18.1035087,14.5281773 C19.4048402,12.4374602 21.2699534,11.8268625 23.3571039,13.1292131" id="Fill-467" fill="#E65290"></path>
                            <path d="M96.44502,33.3556454 C96.44502,33.3556454 108.328842,40.9533347 110.315593,40.0934741 C112.300413,39.2374781 117.108003,36.3274781 117.079041,32.1943506 C117.05008,28.0612231 109.147483,25.5608645 107.759268,26.2294303 C106.372983,26.9018606 96.4643276,27.6187331 96.44502,33.3556454" id="Fill-469" fill="#F7B43E"></path>
                            <path d="M96.44502,33.3556454 C96.44502,33.3556454 93.9273103,38.7196295 95.0664581,44.215008 C96.2056059,49.7123187 102.443888,52.1740319 104.982836,51.518992 C107.519854,50.8678167 108.483302,43.6565817 107.02751,41.127239 C105.575579,38.601761 99.0785752,32.5556853 96.44502,33.3556454" id="Fill-471" fill="#F7B467"></path>
                            <path d="M96.44502,33.3556454 C96.44502,33.3556454 94.4775766,45.6758048 92.2417577,45.6313625 C90.0059387,45.584988 81.2885619,45.2932151 80.8850333,43.6565817 C80.4834354,42.0199482 80.1590679,36.1632351 83.1536751,34.3314422 C86.1482823,32.5015817 95.3541411,31.1625179 96.44502,33.3556454" id="Fill-473" fill="#F9C78E"></path>
                            <path d="M96.3301398,32.8066873 C97.0464514,32.7255319 90.9336684,22.7878625 85.8461185,20.6179223 C83.3380626,19.5493765 80.0306724,19.5667669 78.8316711,21.1531614 C78.3084354,21.8449143 76.989727,28.1750339 79.6290746,29.9044163 C82.5001132,31.7941773 85.2688216,34.0839183 96.3301398,32.8066873" id="Fill-475" fill="#F7B467"></path>
                            <path d="M95.9096205,32.0026693 C95.9096205,32.0026693 90.5903795,24.7624502 91.3510985,21.6746813 C92.1098868,18.5888446 97.5333888,14.6586056 100.188182,14.8730876 C102.841045,15.0856375 105.125133,21.8099402 104.961019,24.7102789 C104.798835,27.6106175 97.5430426,33.1291833 95.9096205,32.0026693" id="Fill-477" fill="#F9C78E"></path>
                            <path d="M100.787297,31.9423825 C101.287364,34.3538566 99.7388948,36.7131594 97.3293076,37.2136175 C94.9197204,37.7121434 92.5622636,36.1643944 92.0621971,33.7529203 C91.5640613,31.3414462 93.7419574,29.6004701 96.1515446,29.100012 C98.5611318,28.6014861 100.28723,29.5309084 100.787297,31.9423825" id="Fill-479" fill="#E65290"></path>
                        </g>
                        <g id="Group-7" transform="translate(546.000000, 345.000000)">
                            <path d="M44.8727097,76.7016992 C44.8727097,76.7016992 59.4962783,90.9753845 62.5661851,90.3435319 C65.6360919,89.709747 73.3108589,87.0007032 74.4828296,81.1285319 C75.6548003,75.2544283 65.1842943,69.382257 63.0160519,69.9252251 C60.8497403,70.466261 46.5872237,68.5687709 44.8727097,76.7016992" id="Fill-445" fill="#F7B43E"></path>
                            <path d="M44.8727097,76.7016992 C44.8727097,76.7016992 39.727237,83.5670578 39.727237,91.6999861 C39.727237,99.8309821 47.8518708,105.162118 51.6438815,104.980484 C55.4358921,104.798851 58.9209121,94.8573167 57.6022037,90.8420578 C56.2796338,86.8267988 48.844281,76.3403645 44.8727097,76.7016992" id="Fill-447" fill="#F7B467"></path>
                            <path d="M44.8727097,76.7016992 C44.8727097,76.7016992 38.4625899,93.5955438 35.3038682,92.8728745 C32.1432157,92.1502052 19.8655193,89.1687112 19.7747736,86.728253 C19.684028,84.2897271 20.9486751,75.8882131 25.7330959,74.1704243 C30.5175166,72.4545677 43.9691145,73.2680538 44.8727097,76.7016992" id="Fill-449" fill="#F9C78E"></path>
                            <path d="M44.8727097,75.8884064 C45.9095273,75.9811554 40.1635885,60.0882271 33.5835619,55.5126096 C30.3379561,53.2537849 25.6423502,52.3069721 23.4760386,54.2044622 C22.5299667,55.0334064 18.8016711,63.6184861 22.0318309,66.8531076 C25.5535353,70.3756375 28.8030027,74.4430677 44.8727097,75.8884064" id="Fill-451" fill="#F7B467"></path>
                            <path d="M44.5106924,74.6221892 C44.5106924,74.6221892 39.0929827,62.7870299 41.0816644,58.6326474 C43.0664847,54.4744004 51.9132224,50.5016514 55.6144874,51.5837231 C59.3157523,52.6696594 60.5803995,62.8778466 59.4972437,66.9433446 C58.4140879,71.0088426 46.4955126,76.7013127 44.5106924,74.6221892" id="Fill-453" fill="#F9C78E"></path>
                            <path d="M51.4475233,75.9732331 C51.4475233,79.5402052 48.5591079,82.4328147 44.992996,82.4328147 C41.4307457,82.4328147 38.5384687,79.5402052 38.5384687,75.9732331 C38.5384687,72.4043287 42.1431957,70.5764004 45.7054461,70.5764004 C49.2715579,70.5764004 51.4475233,72.4043287 51.4475233,75.9732331" id="Fill-455" fill="#E65290"></path>
                            <path d="M21.3848336,17.2522928 C21.3848336,17.2522928 35.0797071,13.8862769 35.8288415,11.8554602 C36.577976,9.82464343 37.7924234,4.33506175 34.7823702,1.50621713 C31.7742477,-1.32649203 24.5126631,2.66944422 24.0396272,4.13797012 C23.5665912,5.60842829 17.2491478,13.2776116 21.3848336,17.2522928" id="Fill-457" fill="#F7B43E"></path>
                            <path d="M21.3848336,17.2522928 C21.3848336,17.2522928 23.5241145,22.7747231 28.2853662,25.7446235 C33.0466178,28.7106594 39.1323702,25.8934084 40.4105326,23.6017351 C41.6906258,21.3139263 37.1417577,15.6407789 34.3074035,14.9490259 C31.4769108,14.2572729 22.6224501,14.7905797 21.3848336,17.2522928" id="Fill-459" fill="#F7B467"></path>
                            <path d="M21.3848336,17.2522928 C21.3848336,17.2522928 28.936032,27.1764363 27.3605326,28.7647629 C25.7831025,30.3530896 19.5564048,36.4648625 18.0948202,35.6281892 C16.6332357,34.7895837 12.1751132,30.9810777 12.9165246,27.5493645 C13.6598668,24.1195837 19.0447537,16.5276912 21.3848336,17.2522928" id="Fill-461" fill="#F9C78E"></path>
                            <path d="M20.9079361,16.9541434 C21.3423569,16.380259 9.93929427,13.9494622 4.85753662,16.1367928 C2.35334221,17.2169323 0.0847003995,19.6245418 0.405206391,21.5857968 C0.544221039,22.4437251 4.21073236,27.7651992 7.28256991,27.050259 C10.630506,26.2715538 14.1966178,25.8503187 20.9079361,16.9541434" id="Fill-463" fill="#F7B467"></path>
                            <path d="M20.0348469,16.7050737 C20.0348469,16.7050737 11.1301864,15.5611693 9.42146471,12.8811096 C7.71274301,10.1991175 8.61440746,3.55983466 10.5992277,1.78407769 C12.5879095,0.010252988 19.0250599,2.99561155 21.0098802,5.11531275 C22.9947004,7.23501394 21.9771904,16.2992968 20.0348469,16.7050737" id="Fill-465" fill="#F9C78E"></path>
                            <path d="M23.3571039,13.1292131 C25.4461851,14.4315637 26.0852663,17.1831175 24.7839348,19.2719024 C23.4826032,21.3626195 20.7351332,22.0022012 18.6479827,20.6979183 C16.5589015,19.3955677 16.8021771,16.6169622 18.1035087,14.5281773 C19.4048402,12.4374602 21.2699534,11.8268625 23.3571039,13.1292131" id="Fill-467" fill="#E65290"></path>
                            <path d="M96.44502,33.3556454 C96.44502,33.3556454 108.328842,40.9533347 110.315593,40.0934741 C112.300413,39.2374781 117.108003,36.3274781 117.079041,32.1943506 C117.05008,28.0612231 109.147483,25.5608645 107.759268,26.2294303 C106.372983,26.9018606 96.4643276,27.6187331 96.44502,33.3556454" id="Fill-469" fill="#F7B43E"></path>
                            <path d="M96.44502,33.3556454 C96.44502,33.3556454 93.9273103,38.7196295 95.0664581,44.215008 C96.2056059,49.7123187 102.443888,52.1740319 104.982836,51.518992 C107.519854,50.8678167 108.483302,43.6565817 107.02751,41.127239 C105.575579,38.601761 99.0785752,32.5556853 96.44502,33.3556454" id="Fill-471" fill="#F7B467"></path>
                            <path d="M96.44502,33.3556454 C96.44502,33.3556454 94.4775766,45.6758048 92.2417577,45.6313625 C90.0059387,45.584988 81.2885619,45.2932151 80.8850333,43.6565817 C80.4834354,42.0199482 80.1590679,36.1632351 83.1536751,34.3314422 C86.1482823,32.5015817 95.3541411,31.1625179 96.44502,33.3556454" id="Fill-473" fill="#F9C78E"></path>
                            <path d="M96.3301398,32.8066873 C97.0464514,32.7255319 90.9336684,22.7878625 85.8461185,20.6179223 C83.3380626,19.5493765 80.0306724,19.5667669 78.8316711,21.1531614 C78.3084354,21.8449143 76.989727,28.1750339 79.6290746,29.9044163 C82.5001132,31.7941773 85.2688216,34.0839183 96.3301398,32.8066873" id="Fill-475" fill="#F7B467"></path>
                            <path d="M95.9096205,32.0026693 C95.9096205,32.0026693 90.5903795,24.7624502 91.3510985,21.6746813 C92.1098868,18.5888446 97.5333888,14.6586056 100.188182,14.8730876 C102.841045,15.0856375 105.125133,21.8099402 104.961019,24.7102789 C104.798835,27.6106175 97.5430426,33.1291833 95.9096205,32.0026693" id="Fill-477" fill="#F9C78E"></path>
                            <path d="M100.787297,31.9423825 C101.287364,34.3538566 99.7388948,36.7131594 97.3293076,37.2136175 C94.9197204,37.7121434 92.5622636,36.1643944 92.0621971,33.7529203 C91.5640613,31.3414462 93.7419574,29.6004701 96.1515446,29.100012 C98.5611318,28.6014861 100.28723,29.5309084 100.787297,31.9423825" id="Fill-479" fill="#E65290"></path>
                        </g>
                        <g id="Group-7" transform="translate(508.000000, 699.000000)">
                            <path d="M149.417791,1.0332364 C149.341231,0.115869047 148.453549,-0.162433407 147.745886,0.0870080519 C147.344463,0.231313028 147.000977,0.573521972 146.914071,1.06622039 C142.618431,29.5643917 113.076599,37.1053575 93.3654898,52.9562283 C84.8404249,59.8148377 78.84598,68.6978398 76.5491786,79.4238225 C75.8394462,82.7242834 75.5104449,85.9257924 75.4545768,89.1025634 C75.4152622,90.7208406 75.4483692,92.3123184 75.5373444,93.9141036 C74.2213393,100.904649 75.3862935,109.076434 78.33489,115.225887 C78.7963195,116.176238 80.4558103,116.351466 80.7930883,115.184657 C84.1017239,104.093789 97.6714753,97.0331526 106.103427,90.0446687 C115.267871,82.466596 123.873635,73.9855864 131.244091,64.6366854 C138.37866,55.5702099 144.066865,45.5966746 147.344463,34.5099294 C149.90612,25.7794783 150.26409,17.0387198 149.858529,8.16190222 C149.999234,5.8592071 149.866806,3.48023649 149.417791,1.0332364" id="Fill-481" fill="#DA2171"></path>
                            <path d="M123.803329,53.290715 C123.608918,53.839871 122.755555,53.7189747 122.688023,53.1636715 C122.182554,49.1392597 122.620491,45.4345059 123.5905,41.9264646 C118.239078,50.0797918 111.090888,57.1839851 107.309081,66.3065315 C107.096252,66.8147057 106.398418,66.5831586 106.40865,66.0626899 C106.513018,61.7596019 107.020534,57.2638996 108.170629,53.0222843 C106.134428,56.151244 103.946792,59.1183256 101.847151,62.3149052 C98.9371241,66.7450367 97.1383097,71.7755514 94.3694862,76.299941 C94.1709822,76.6175499 93.6245846,76.5396845 93.4895201,76.1995357 C91.8278167,71.8636623 92.2452889,67.2409164 93.5672845,62.8866012 C91.4430873,65.4069813 89.7465945,68.2142339 88.803189,71.5030225 C87.2826895,76.7650844 86.3515626,82.8959602 85.4490857,88.3321946 C85.3569962,88.8772524 84.5077266,89.0903577 84.3051298,88.5002199 C83.5622747,86.4839159 82.9033234,84.5454772 82.3917152,82.6418731 C81.8350854,84.2545065 81.3255237,85.8896799 81.0246981,87.5678842 C80.0546889,92.9508423 79.9359958,98.3276532 78.9823582,103.710611 C78.910733,104.026171 78.4646107,104.120429 78.3315925,103.806919 C76.8438359,100.255846 75.4092866,94.9077228 75,89.4796847 C75.0573001,86.3220378 75.3826829,83.1398018 76.0846094,79.8612586 C78.3541033,69.1998459 84.282619,60.3682702 92.7159685,53.5509494 C112.208241,37.7955002 141.425161,30.2999308 145.675602,1.97331751 C145.759506,1.48563421 146.10126,1.14548535 146.498268,1 C150.468348,20.7655173 129.756402,36.279174 123.803329,53.290715" id="Fill-483" fill="#E65290"></path>
                            <path d="M145.390017,0.674513895 C142.363034,16.4520501 132.145679,27.3018022 118.683513,35.2244629 C107.966799,41.5326017 95.0163223,46.1912987 86.2538928,55.1738747 C71.3717364,70.4255614 65.788359,95.8553099 76.7270111,114.915297 C76.8051003,115.05703 77.0681376,115.015948 77.022928,114.829025 C71.0573246,89.2041366 82.4028625,65.6744299 103.466395,50.6959383 C113.751564,43.381291 125.070387,38.847894 134.048589,29.637313 C141.545152,21.9467655 145.564691,11.3845873 146.990846,0.873761521 C147.132639,-0.16561269 145.583185,-0.334048827 145.390017,0.674513895" id="Fill-485" fill="#F9C78E"></path>
                            <path d="M82.5727943,4.57327204 C78.7645562,9.91670043 75.4761792,15.4826 73.5394414,21.9322046 C71.097113,30.1327398 70.5752131,38.6154839 71.3030188,47.1208871 C72.0593659,55.8961396 73.9206729,64.6322536 76.4853215,73.0326009 C78.8379483,80.7737743 84.3077037,90.6325439 81.879646,98.8495585 C81.6166574,99.7106044 82.7032693,100.268842 83.3678762,99.8671582 C87.6368541,97.2428221 91.626534,92.6450842 93.6285093,87.777497 C94.3236963,86.8216948 94.9821871,85.8452935 95.6100979,84.8256339 C96.8475714,82.8336928 97.930106,80.7140367 98.823044,78.3801491 C101.719996,70.7996493 101.618063,62.8689634 99.1553475,55.1710483 C93.4572609,37.3815928 78.4139047,20.7724705 87.2189264,1.3597993 C87.3657108,1.01991276 87.2902799,0.669726629 87.1047608,0.416356663 C86.7724574,-0.0224059614 86.1180439,-0.207798619 85.7021549,0.329840089 C84.4463333,1.66672715 83.4106883,3.08807086 82.5727943,4.57327204" id="Fill-487" fill="#DA2171"></path>
                            <path d="M81.01195,42.8841238 C80.909906,43.3042005 81.4874747,43.5780741 81.7527889,43.2609573 C83.6916236,40.9546536 84.9181916,38.465081 85.734543,35.8828445 C85.7529109,43.1518197 87.3080604,50.5011038 85.9651623,57.7350727 C85.8916907,58.1386758 86.4141556,58.2807606 86.6202844,57.9512887 C88.2938048,55.2228489 89.7979323,52.2122988 90.7979628,49.0967296 C90.7938811,51.8807677 90.9510287,54.6236218 90.9571514,57.4756135 C90.9714375,61.4272179 90.0530422,65.3005727 89.9367121,69.2521771 C89.9326303,69.5301691 90.3020293,69.7052011 90.5224442,69.5466427 C93.3021209,67.5224493 94.914415,64.4665968 95.8532191,61.2110019 C96.1511874,63.6532129 96.0654705,66.0933646 95.3225907,68.5314572 C94.1368402,72.4357 92.2347414,76.640586 90.5979567,80.3986256 C90.4346864,80.7775184 90.8755162,81.2573119 91.2408335,80.9690239 C92.5143417,80.0176736 93.7062148,79.0766193 94.7899214,78.0984994 C94.4837896,79.3299009 94.1388811,80.5592432 93.6470294,81.7268095 C92.0714711,85.4827899 89.9734479,88.8845879 88.3876852,92.6323316 C88.3040092,92.8567843 88.542792,93.0997699 88.7530025,92.9576851 C91.1061355,91.3494501 94.157249,88.5983592 96.6042624,85.3798299 C97.8430758,83.3885837 98.9267823,81.2696671 99.8206871,78.9365937 C102.720776,71.3587385 102.618732,63.4308193 100.15335,55.7355897 C94.4490946,37.9502811 79.3894515,21.3490123 88.2040061,1.9431135 C88.3509494,1.60334554 88.2774778,1.25328157 88.0897169,1 C77.6465412,11.7078389 84.1998023,29.8432115 81.01195,42.8841238" id="Fill-489" fill="#E65290"></path>
                            <path d="M88.3758681,0.861499397 C83.7589522,11.92475 85.7391288,22.8436795 90.9853381,33.2595465 C95.1638464,41.5477067 101.439999,49.7224716 103.273341,58.8889294 C106.384148,74.4446928 99.3885028,92.56525 84.5623501,99.987483 C84.4511749,100.041088 84.3022422,99.9111989 84.4071244,99.8122358 C98.8032599,86.2728457 101.362386,66.9956572 94.2199063,49.0915818 C90.7336208,40.347779 85.4391656,32.9152373 83.5638712,23.5219891 C82.0011259,15.6791629 83.8302721,7.46316331 87.2808976,0.333696161 C87.6207161,-0.371415975 88.671636,0.15432553 88.3758681,0.861499397" id="Fill-491" fill="#F9C78E"></path>
                            <path d="M165.955311,55.2129348 C166.16906,54.4919105 165.579194,54.0207867 164.968776,54.0003031 C164.621433,53.9921096 164.259703,54.1498337 164.043898,54.4980556 C152.316457,74.8710877 127.651013,71.8804757 107.979905,78.0972616 C99.4710354,80.7888123 92.2796022,85.7663378 87.351035,93.2346743 C85.8321813,95.5308907 84.6298411,97.8639778 83.6433055,100.258516 C83.1335955,101.477293 82.6834886,102.696069 82.2765427,103.937378 C79.1997849,108.857549 77.6542126,115.40617 78.065269,120.944947 C78.1351486,121.803212 79.3395441,122.425915 79.9437972,121.639343 C85.7520253,114.193539 98.1494888,112.837521 106.627529,110.018972 C115.833139,106.968957 124.888713,103.066823 133.261934,98.1446037 C141.370023,93.3657696 148.651888,87.4705769 154.435453,80.0186273 C158.973517,74.1459667 161.842691,67.6157811 164.171326,60.7537604 C164.96261,59.0495213 165.570973,57.203945 165.955311,55.2129348" id="Fill-493" fill="#DA2171"></path>
                            <path d="M131.974331,87.4861438 C131.662148,87.8500529 131.04189,87.5006175 131.156905,87.0540018 C131.972277,83.7953614 133.412016,81.0701787 135.205014,78.6572134 C128.665603,83.3342721 121.062305,86.6611454 115.434797,92.5539912 C115.12056,92.8806823 114.652286,92.4960966 114.816592,92.0949695 C116.184447,88.8094495 117.913776,85.4949822 120.064141,82.5713036 C117.568731,84.37224 115.003491,85.9974249 112.438251,87.8335116 C108.883063,90.3726044 106.001532,93.7098161 102.524389,96.3646982 C102.277929,96.5487204 101.883593,96.3233449 101.881539,96.0214657 C101.900023,92.1797438 103.602653,88.7370813 105.915271,85.7782524 C103.532822,87.0850168 101.396834,88.7370813 99.6900967,90.986701 C96.9502806,94.5906414 94.4055789,99.0361216 92.0888528,102.952279 C91.8547156,103.349271 91.139981,103.256226 91.1625732,102.73931 C91.1954345,100.963186 91.2673188,99.2677001 91.4439486,97.6466506 C90.5340996,98.7239042 89.657112,99.8321727 88.9238929,101.033486 C86.5722517,104.893817 84.87373,109.002268 82.5344118,112.864666 C82.3865357,113.087974 82.0168453,113.025944 82.00863,112.744742 C81.9264766,109.55847 82.4255585,105.003403 83.7338515,100.694389 C84.7176385,98.2772885 85.9191321,95.9201501 87.4369163,93.6022975 C92.3640667,86.0656578 99.5504359,81.0412314 108.053313,78.3222517 C127.710569,72.0468878 152.358645,75.065679 164.077828,54.5027486 C164.291427,54.1512455 164.652902,53.9920353 165,54 C162.141061,70.4361766 141.621195,76.1615415 131.974331,87.4861438" id="Fill-495" fill="#E65290"></path>
                            <path d="M163.748618,54.3202067 C156.744372,65.428925 145.720119,70.6529475 133.096068,72.6861028 C123.044001,74.3060816 111.779779,74.01154 102.423009,78.2455755 C86.5357788,85.4372995 74.705474,103.13025 77.3779579,120.880472 C77.3943661,121.009334 77.6076726,121.058424 77.6302338,120.902972 C80.7067694,99.6305229 96.3622335,85.0936677 116.884777,79.9432805 C126.906079,77.4314952 136.888411,77.339451 146.478998,72.9949623 C154.482093,69.364328 160.692593,62.5223721 164.909497,54.9461076 C165.325855,54.197481 164.195741,53.6104433 163.748618,54.3202067" id="Fill-497" fill="#F9C78E"></path>
                            <path d="M58.9169834,10.2451035 C54.6935999,17.4682312 51.1638528,24.909431 49.4625968,33.3072684 C47.3221745,43.9804629 47.6689927,54.7812091 49.6083014,65.4605756 C51.6194364,76.4732222 55.0342616,87.3089422 59.3068973,97.6323983 C63.2347671,107.147341 71.3839682,118.966444 69.2661199,129.656097 C69.0362759,130.777317 70.4892183,131.355414 71.2854636,130.764973 C76.4220666,126.930194 80.9614855,120.626673 82.9336291,114.224402 C83.7093526,112.93037 84.4337717,111.613707 85.1109906,110.24767 C86.4551676,107.579371 87.5838658,104.765005 88.4416764,101.703765 C91.2367436,91.760907 90.1614021,81.7316426 86.1001407,72.2866472 C76.7134759,50.4567961 55.5411497,31.2520406 64.4619699,5.61826958 C64.6035702,5.16978145 64.4701786,4.73569432 64.2013432,4.43944528 C63.7252378,3.92306674 62.8694793,3.76671308 62.4015826,4.49704926 C60.9589011,6.3424339 59.8096811,8.26599537 58.9169834,10.2451035" id="Fill-499" fill="#DA2171"></path>
                            <path d="M59.8929087,58.6871692 C59.8141856,59.2324248 60.588986,59.5071023 60.8914481,59.0725378 C63.1101946,55.932194 64.388408,52.6463122 65.1259185,49.2866363 C66.0250183,58.457588 68.9108389,67.5424467 68.0511005,76.8302388 C68.005524,77.3488465 68.697458,77.4636371 68.9191255,77.0229231 C70.7463285,73.3803703 72.3166458,69.4036948 73.2302472,65.3511755 C73.559641,68.862539 74.0920572,72.306258 74.4421676,75.8996147 C74.937294,80.884808 74.2205001,85.8823002 74.5478221,90.8818422 C74.5747537,91.2344135 75.0719518,91.4086492 75.3391958,91.1852175 C78.6683513,88.2949533 80.375398,84.2465337 81.1916315,80.025928 C81.8669923,83.0719795 82.0513699,86.1610774 81.3884391,89.3239693 C80.3318932,94.3932057 78.3948923,99.9257043 76.7417087,104.863751 C76.5780477,105.363911 77.1995453,105.913266 77.6325219,105.509449 C79.1572627,104.154509 80.5763489,102.822118 81.856634,101.456929 C81.6080349,103.051699 81.3138594,104.642369 80.8249479,106.175644 C79.2484157,111.101392 76.9571612,115.645872 75.3702706,120.56547 C75.289476,120.856546 75.6271563,121.133274 75.877827,120.93034 C78.7139277,118.618129 82.3041122,114.780842 85.0635616,110.424948 C86.4225697,107.764265 87.5599103,104.962143 88.4258636,101.911992 C91.2495344,92.0051506 90.1619136,82.012216 86.0641727,72.6014339 C76.5884059,50.8506587 55.2151034,31.7154701 64.2206036,6.17455416 C64.3635481,5.72769062 64.2288903,5.29517591 63.957503,5 C51.8113682,19.7649452 62.4244756,41.851893 59.8929087,58.6871692" id="Fill-501" fill="#E65290"></path>
                            <path d="M64.8120912,5.02328259 C60.4394213,19.57131 64.1664758,33.1636125 71.8527618,45.7363378 C77.9728703,55.7405526 86.6632208,65.3534145 89.99924,76.7397227 C95.6651774,96.0746134 89.2008764,119.835911 71.8303588,130.977109 C71.704087,131.057439 71.5044961,130.911197 71.6226213,130.773193 C87.736531,111.938822 88.6082137,87.2320987 77.7040336,65.4007888 C72.380252,54.7415729 64.9852058,45.9526117 61.5697575,34.279998 C58.7204957,24.5353119 59.9995067,13.9152314 63.4027351,4.48362761 C63.738781,3.55261977 65.0931478,4.09433451 64.8120912,5.02328259" id="Fill-503" fill="#F9C78E"></path>
                            <path d="M174.942732,74.5506043 C175.216033,73.6282895 174.463943,73.0250792 173.687194,73.0003743 C173.243338,72.9900806 172.783043,73.191837 172.509742,73.6385832 C157.585076,99.7022111 126.190467,95.8729577 101.155742,103.829982 C90.3244167,107.274251 81.1739915,113.641929 74.8983574,123.194475 C72.9667608,126.134353 71.4379227,129.119524 70.1823849,132.182926 C69.5330396,133.741391 68.9597253,135.301915 68.441893,136.889202 C64.5273276,143.186883 62.5607978,151.561831 63.0827399,158.650067 C63.1690453,159.747375 64.706103,160.546165 65.4746319,159.537383 C72.8619614,150.011601 88.6435167,148.278143 99.4337441,144.671233 C111.152782,140.767865 122.67455,135.775425 133.33121,129.479803 C143.650867,123.363291 152.918421,115.822133 160.279037,106.290174 C166.055333,98.7757788 169.706872,90.417301 172.672079,81.6408993 C173.678975,79.4586366 174.451613,77.0972637 174.942732,74.5506043" id="Fill-505" fill="#DA2171"></path>
                            <path d="M131.820623,115.565059 C131.422957,116.029627 130.631746,115.585707 130.775977,115.015838 C131.818563,110.876027 133.660601,107.411388 135.947695,104.343179 C127.59671,110.287575 117.883771,114.51617 110.701058,122.009123 C110.299272,122.424137 109.703803,121.934793 109.909847,121.426866 C111.655045,117.245761 113.865902,113.035749 116.612476,109.319211 C113.424967,111.606946 110.146799,113.675819 106.874811,116.006915 C102.331529,119.234108 98.6495135,123.477156 94.2133747,126.850947 C93.8981265,127.086327 93.3933174,126.801393 93.3891965,126.415286 C93.4159823,121.532168 95.5876917,117.156977 98.5464912,113.395014 C95.501153,115.055068 92.7731234,117.156977 90.5911117,120.016646 C87.094536,124.596247 83.8431532,130.247449 80.8843537,135.22761 C80.5855891,135.731408 79.6728118,135.613717 79.701658,134.957129 C79.742867,132.6983 79.835587,130.544772 80.062236,128.484159 C78.9001448,129.851019 77.7772021,131.259174 76.8417599,132.787084 C73.8376306,137.694979 71.6721025,142.918779 68.6823963,147.828739 C68.4969562,148.111609 68.0209933,148.033149 68.0106911,147.673883 C67.9076689,143.624922 68.542286,137.831252 70.2153676,132.355552 C71.4742998,129.283214 73.0072711,126.287272 74.9440897,123.340883 C81.2366898,113.760474 90.411853,107.372158 101.27246,103.917842 C126.374866,95.939674 157.85435,99.7780319 172.819365,73.6383811 C173.093404,73.1923966 173.554944,72.9900517 174,73 C170.34683,93.8935133 144.140026,101.171734 131.820623,115.565059" id="Fill-507" fill="#E65290"></path>
                            <path d="M172.406741,72.4111421 C163.490774,86.6670387 149.462685,93.3742401 133.394259,95.9874086 C120.602676,98.0643311 106.266999,97.6848338 94.3551193,103.121544 C74.1342476,112.351165 59.0808636,135.06325 62.4807424,157.84546 C62.5032989,158.012521 62.7739768,158.074396 62.8026851,157.876397 C66.7193127,130.571158 86.6428489,111.909793 112.761219,105.301591 C125.515891,102.075864 138.223399,101.958303 150.426463,96.3792808 C160.613796,91.7221896 168.518822,82.9380658 173.885217,73.2134488 C174.414269,72.2543933 172.974755,71.4995238 172.406741,72.4111421" id="Fill-509" fill="#F9C78E"></path>
                            <path d="M33.5131316,34.6240204 C28.7699504,43.4030352 24.8606676,52.4176596 23.1785286,62.4915024 C21.0661226,75.2984153 21.9287055,88.1504014 24.6885608,100.789315 C27.5508606,113.827739 32.0809573,126.593677 37.6129613,138.714249 C42.6962583,149.884188 52.924319,163.625344 50.8385486,176.450696 C50.6090729,177.796743 52.3670208,178.423669 53.2951682,177.688158 C59.2697325,172.904261 64.4329362,165.207001 66.5207555,157.495399 C67.3935828,155.921938 68.2028945,154.325939 68.9548373,152.670527 C70.4484784,149.431408 71.6798615,146.034534 72.5772755,142.35083 C75.501042,130.388014 73.800463,118.48871 68.5594015,107.402771 C56.438166,81.7868961 30.3557916,59.7891638 39.9445985,28.8792461 C40.0962164,28.3404174 39.915914,27.8282228 39.5839938,27.4860769 C38.9918645,26.8898824 37.9633215,26.7382728 37.4367567,27.6294914 C35.7894488,29.8851962 34.4945501,32.2269498 33.5131316,34.6240204" id="Fill-511" fill="#DA2171"></path>
                            <path d="M36.7378921,91.726216 C36.6656443,92.3834918 37.602802,92.684314 37.9454632,92.1506637 C40.4576238,88.2791237 41.8427181,84.2757163 42.5817103,80.204315 C44.0369882,91.1946262 47.859931,101.999499 47.22415,113.204095 C47.1911224,113.830464 48.0230047,113.937606 48.2707116,113.401895 C50.2936511,108.943134 51.9987001,104.094952 52.9152156,99.1849574 C53.4560423,103.394407 54.2363189,107.513198 54.8060448,111.821549 C55.6028352,117.794723 54.9587973,123.831771 55.5615507,129.82967 C55.6090279,130.254118 56.2055886,130.443677 56.5152222,130.161399 C60.3629357,126.549472 62.22693,121.610632 63.0237205,116.500776 C63.9567497,120.133306 64.3056036,123.844133 63.6491803,127.674465 C62.6026188,133.812473 60.5239452,140.545945 58.7631622,146.552086 C58.5856389,147.157851 59.3535302,147.796583 59.8530724,147.291779 C61.6138555,145.598109 63.2507851,143.941527 64.7163842,142.245796 C64.4872553,144.170234 64.2023924,146.096732 63.6822079,147.961417 C62.0101865,153.949015 59.4732552,159.508043 57.7867842,165.48946 C57.7042152,165.843853 58.1149958,166.163219 58.4060514,165.907726 C61.692296,163.012828 65.8124871,158.247063 68.91708,152.896137 C70.4218993,149.638604 71.6624979,146.222418 72.566628,142.517772 C75.5122756,130.486946 73.7989697,118.519993 68.5186847,107.37309 C56.3067356,81.6095253 30.0291641,59.488794 39.6897324,28.40315 C39.842485,27.8591976 39.6608333,27.3440911 39.326429,27 C25.4672291,45.257433 39.0456946,71.3795113 36.7378921,91.726216" id="Fill-513" fill="#E65290"></path>
                            <path d="M40.1563585,28.1891004 C35.4285423,45.7070495 40.5491309,61.7458511 50.4640369,76.3998751 C58.3568922,88.0668826 69.3669889,99.1533092 73.9202396,112.582574 C81.6509983,135.37909 74.7577384,163.962951 54.0280829,177.968694 C53.8763771,178.07127 53.6249197,177.903045 53.7641565,177.73482 C72.6400924,154.616215 72.6629522,125.139943 58.4337841,99.5861804 C51.4844139,87.1108731 42.0911264,76.9496831 37.4298113,63.1860198 C33.539494,51.6933917 34.6554665,38.9883139 38.4107033,27.6044165 C38.780616,26.4801823 40.4576919,27.0689692 40.1563585,28.1891004" id="Fill-515" fill="#F9C78E"></path>
                            <g id="Group-519" transform="translate(43.000000, 107.000000)">
                                <mask id="mask-4" fill="white">
                                    <use xlink:href="#path-3"></use>
                                </mask>
                                <g id="Clip-518"></g>
                                <path d="M134.112812,2.28158552 C134.439141,1.17446091 133.54225,0.449459541 132.612521,0.420542107 C132.083007,0.408148922 131.530916,0.649816046 131.20664,1.18478857 C113.361182,32.485845 75.8313317,27.8900386 45.8973461,37.4431194 C32.9488705,41.5803779 22.0076242,49.2290392 14.5061695,60.7009982 C12.1951878,64.2309907 10.3665158,67.8167524 8.86622482,71.4975286 C8.09042458,73.3668342 7.4069815,75.2402708 6.78716226,77.1467559 C2.10567983,84.7107303 -0.246349487,94.7678007 0.379626902,103.279854 C0.484298363,104.597663 2.31912752,105.558134 3.23654209,104.349799 C12.0720449,92.9067572 30.9375366,90.8226365 43.8408597,86.4932836 C57.8483641,81.8065938 71.6260018,75.8124229 84.3651344,68.2484484 C96.7040526,60.9054858 107.784861,51.8481324 116.583421,40.3988942 C123.487633,31.3745894 127.853048,21.3381743 131.399564,10.7977697 C132.604312,8.17661094 133.525831,5.3406369 134.112812,2.28158552" id="Fill-517" fill="#DA2171" mask="url(#mask-4)"></path>
                            </g>
                            <path d="M125.464175,158.512024 C124.987772,159.062643 124.041154,158.536587 124.214391,157.861107 C125.462113,152.946478 127.666765,148.836284 130.409691,145.19688 C120.405231,152.250529 108.765327,157.267503 100.159141,166.159277 C99.6786131,166.654629 98.9629776,166.069213 99.2145843,165.467422 C101.303745,160.507761 103.953865,155.509208 107.243313,151.098119 C103.423841,153.816414 99.4991886,156.270659 95.5765989,159.036033 C90.1340572,162.8658 85.7226905,167.901197 80.4059522,171.904951 C80.0285422,172.185378 79.4242736,171.847638 79.4201489,171.387083 C79.4510842,165.592283 82.0537699,160.401321 85.5968872,155.937012 C81.94859,157.906139 78.6797653,160.401321 76.0688301,163.795097 C71.8781349,169.227594 67.9823557,175.937362 64.4371761,181.844742 C64.0783272,182.440393 62.987344,182.30325 63.0203416,181.521331 C63.0677757,178.843974 63.1812049,176.287384 63.4513728,173.841327 C62.0613489,175.464526 60.7146343,177.134804 59.5947782,178.946319 C55.9959775,184.771823 53.3994788,190.969864 49.8171768,196.799461 C49.594443,197.131061 49.0252344,197.03895 49.0128603,196.615239 C48.8891193,191.811144 49.6501265,184.935575 51.6526683,178.436639 C53.1602462,174.789046 54.9978001,171.237659 57.3200062,167.739491 C64.8578955,156.36891 75.8522834,148.791252 88.8636496,144.691293 C118.943025,135.224338 156.655157,139.778711 174.58729,108.757802 C174.915204,108.229699 175.467914,107.988164 176,108 C171.625756,132.796704 140.226477,141.430567 125.464175,158.512024" id="Fill-520" fill="#E65290"></path>
                            <g id="Group-524" transform="translate(41.000000, 106.000000)">
                                <mask id="mask-6" fill="white">
                                    <use xlink:href="#path-5"></use>
                                </mask>
                                <g id="Clip-523"></g>
                                <path d="M133.000626,1.39295165 C122.320033,18.4706255 105.511027,26.5058424 86.2637926,29.6348916 C70.9386592,32.1261597 53.7622776,31.670012 39.4920683,38.1819846 C15.2678083,49.2389219 -2.76852124,76.4447255 1.30340386,103.735154 C1.33418958,103.937427 1.65436111,104.009668 1.69130398,103.772306 C6.38304832,71.065898 30.2522463,48.7105336 61.5449086,40.7950297 C76.8248896,36.9291265 92.047404,36.7867093 106.668571,30.1054874 C118.874084,24.5285144 128.34172,14.0020294 134.771832,2.35478341 C135.40807,1.20512613 133.68407,0.301086834 133.000626,1.39295165" id="Fill-522" fill="#F9C78E" mask="url(#mask-6)"></path>
                            </g>
                            <g id="Group-527" transform="translate(0.000000, 68.000000)">
                                <mask id="mask-8" fill="white">
                                    <use xlink:href="#path-7"></use>
                                </mask>
                                <g id="Clip-526"></g>
                                <path d="M9.67680673,8.47497764 C5.46703704,17.5810225 2.11581151,26.8680775 1.07892242,37.0704679 C-0.206820042,50.039434 1.51234206,62.8582439 5.13938009,75.3417737 C8.88877102,88.2181777 14.3075534,100.709935 20.6968639,112.48588 C26.5698037,123.346489 37.8055339,136.442985 36.5488243,149.42635 C36.4057336,150.790097 38.224437,151.30433 39.1120141,150.50624 C44.8294205,145.32071 49.5348232,137.271929 51.1337062,129.410329 C51.911373,127.777124 52.6247527,126.123349 53.2738452,124.416094 C54.5678828,121.073577 55.5881817,117.589132 56.2517907,113.841399 C58.4147413,101.664352 55.9096173,89.8534399 49.8832179,79.0936205 C35.9495024,54.2232369 8.15050599,33.8945625 15.7923786,2.3000631 C15.9105839,1.74880491 15.694911,1.24691312 15.3361474,0.926031487 C14.6994975,0.368602493 13.6501657,0.284268217 13.1773443,1.21194525 C11.6634862,3.58153271 10.5104656,6.01077124 9.67680673,8.47497764" id="Fill-525" fill="#DA2171" mask="url(#mask-8)"></path>
                            </g>
                            <g id="Group-530" transform="translate(9.000000, 68.000000)">
                                <mask id="mask-10" fill="white">
                                    <use xlink:href="#path-9"></use>
                                </mask>
                                <g id="Clip-529"></g>
                                <path d="M7.64786507,65.5748361 C7.6190324,66.2330548 8.57051043,66.4716591 8.87737239,65.918344 C11.124261,61.8990958 12.2404971,57.8181396 12.7141767,53.7166141 C14.8807457,64.5689956 19.3889392,75.0840399 19.4898535,86.2861001 C19.4980914,86.9114079 20.3301198,86.9669451 20.5443054,86.4156869 C22.268087,81.8451805 23.6479361,76.9023692 24.2410652,71.953387 C25.0524989,76.1104497 26.0966534,80.1626089 26.947217,84.4163474 C28.1293564,90.313576 27.8822193,96.3733022 28.8748868,102.307556 C28.9469685,102.72717 29.5565735,102.877326 29.8449001,102.574957 C33.4407457,98.7264342 34.972996,93.686947 35.4343187,88.5446131 C36.5999822,92.1010512 37.1889925,95.7747345 36.7832756,99.6335419 C36.144838,105.814627 34.5137328,112.660102 33.152419,118.756853 C33.0164936,119.371876 33.8217488,119.956045 34.2871904,119.4233 C35.9265335,117.621426 37.4505459,115.862748 38.7974434,114.079386 C38.6965291,116.012904 38.5379494,117.948478 38.14253,119.840857 C36.8677142,125.914982 34.7052641,131.616802 33.4180914,137.684756 C33.3563071,138.042662 33.7867377,138.334747 34.060648,138.061175 C37.1416245,134.961376 40.9331203,129.950686 43.6763427,124.415477 C44.9614558,121.07296 45.9726587,117.588515 46.6337506,113.840782 C48.7817843,101.663735 46.293937,89.8528228 40.3070395,79.0930034 C26.471478,54.2226198 -1.13786063,33.8960024 6.45336884,2.29944602 C6.57075899,1.75024476 6.35657346,1.24835298 6.00028407,0.925414407 C-6.60577008,20.0178717 8.61993786,45.1535997 7.64786507,65.5748361" id="Fill-528" fill="#E65290" mask="url(#mask-10)"></path>
                            </g>
                            <g id="Group-533" transform="translate(12.000000, 68.000000)">
                                <mask id="mask-12" fill="white">
                                    <use xlink:href="#path-11"></use>
                                </mask>
                                <g id="Clip-532"></g>
                                <path d="M3.98481669,1.94668192 C0.456933866,19.7802958 6.57357834,35.4952682 17.3384607,49.5173843 C25.9079414,60.6783057 37.521328,71.0596494 42.9047989,84.199341 C52.0447545,106.508842 47.1020115,135.552744 27.5184518,150.903639 C27.3742885,151.016771 27.1147945,150.864558 27.242482,150.687661 C44.3938003,126.337682 42.4846658,96.8453685 26.7399698,72.1991906 C19.0498855,60.1661293 9.0923178,50.6055021 3.58321882,37.1346443 C-1.01765113,25.8914454 -0.747859743,13.1055465 2.22190502,1.47564413 C2.51435064,0.325818275 4.2092996,0.805083794 3.98481669,1.94668192" id="Fill-531" fill="#F9C78E" mask="url(#mask-12)"></path>
                            </g>
                        </g>
                        <g id="Group-14" transform="translate(1490.000000, 823.000000) rotate(-180.000000) translate(-1490.000000, -823.000000) translate(1388.000000, 572.000000)">
                            <g id="Group-4" transform="translate(101.823949, 250.758424) rotate(-180.000000) translate(-101.823949, -250.758424) translate(0.323949, 0.258424)">
                                <path d="M142.104113,306.069926 C136.425751,311.159527 130.027216,312.537236 127.752781,308.827276 C125.48414,305.119248 128.345524,297.834587 134.205378,292.89377 C140.069093,287.937495 146.556443,287.083432 148.647455,290.644607 C150.738467,294.215443 147.782475,300.972595 142.104113,306.069926 M149.37149,64.0220769 C149.415897,59.4889694 155.78161,54.3819773 163.4641,52.9424355 C171.152382,51.4951646 177.162835,54.0921367 177.016097,58.4242881 C176.865498,62.7661008 170.694792,67.3668379 163.10884,69.0189295 C155.52675,70.6613598 149.323221,68.5687104 149.37149,64.0220769 M81.0129679,185.362894 C78.6709572,189.434188 72.2434606,188.184009 66.7253514,182.246141 C61.209173,176.319866 58.8710238,167.829467 61.4273487,163.622914 C63.9894659,159.414428 70.2991863,161.174726 75.5991197,167.240125 C80.9009839,173.315185 83.3607708,181.281938 81.0129679,185.362894 M201.85145,251.985663 C202.832275,243.472077 202.519493,229.704647 202.569692,229.689188 C202.448054,229.478571 188.336137,247.699886 184.762302,243.017993 C180.99153,237.831778 200.870624,220.630702 201.998188,211.794428 C202.965498,202.34369 182.372022,223.900105 177.890731,222.885663 C173.061903,221.142754 195.460638,197.675324 198.941796,190.181977 C202.092795,182.294447 198.422422,168.065204 194.817695,171.411898 C191.172422,174.814627 185.540398,180.860702 184.281543,177.419328 C182.82382,173.751878 196.899053,151.92881 196.10358,145.328173 C195.037801,138.26379 176.84619,157.335304 174.934739,155.23879 C172.793527,152.545204 195.481876,132.700782 198.053647,122.312894 C200.436204,111.536619 199.482409,101.438571 198.181077,101.280125 C196.810238,101.026997 184.086536,114.251459 181.478081,113.430244 C178.552981,112.272814 196.493594,86.175563 197.256244,77.9943279 C196.107442,78.4078339 198.024686,23.5158817 170.957375,4.97960682 C170.949652,4.98733591 170.945791,4.99699726 170.939999,5.00472635 L170.955445,4.97767455 C142.090598,-14.269676 91.819426,28.4335112 92.4642995,29.5001248 C84.8281477,37.2910411 77.2479879,76.6861805 75.012169,75.7181128 C72.175884,74.8369973 73.1721556,51.6497463 72.3496523,50.677814 C71.3881343,49.7387303 62.354113,59.2551646 56.2104379,73.2042283 C49.5860038,87.4006228 56.8649652,124.314726 54.1985871,125.785185 C50.9047122,127.680742 46.9292795,94.0592283 42.0058441,101.604746 C36.462635,109.440105 37.3700917,144.789069 35.0512502,148.607236 C32.369426,152.560663 29.845924,142.163113 28.3437935,135.749906 C26.8184939,129.269069 16.2031809,146.959009 16.1047122,159.710065 C15.4386004,172.75869 31.4445924,210.702694 26.9729546,211.489129 C21.8545125,212.940264 7.27342062,176.418412 5.86396656,190.197436 C4.07994526,204.56387 21.4799453,232.315145 17.724619,238.795981 C13.639133,245.775344 1.23400651,217.365165 1.44059772,217.166141 C1.36722888,217.144886 -0.816459536,238.332236 0.334272821,251.496798 C1.286137,264.949268 26.3531809,281.750364 25.7353381,290.246559 C24.966896,299.335961 1.2436603,271.022396 1.44639,270.662993 C1.48693594,270.637874 -0.304808404,279.854806 2.8539133,296.856858 C6.16130345,313.897555 21.2791463,318.206519 25.7585072,332.304368 C30.4290132,346.392555 12.6177615,343.382077 12.5752848,343.341499 C33.7904646,410.723651 68.7217562,431.837575 93.9722222,437.57642 C119.942861,443.094985 136.232675,433.238471 136.833141,433.65391 C136.829279,433.646181 136.825418,433.638451 136.823487,433.630722 C136.827349,433.638451 136.83121,433.646181 136.835072,433.65391 C139.814233,434.53889 202.708707,404.519129 201.59659,312.954607 C201.612036,312.9063 185.2141,319.806439 186.148587,309.122914 C187.218228,298.404607 201.137069,292.764308 202.104379,281.55134 C203.162435,270.288133 201.21623,264.495185 201.1892,264.475862 C201.023154,264.129985 180.199919,285.740503 178.622489,279.850941 C176.877082,273.381698 200.720025,260.193949 201.85145,251.985663" id="Fill-540" fill="#4347B2"></path>
                                <path d="M194.791899,287.591908 C196.477452,285.506988 193.384376,282.714856 191.681446,284.792048 C170.916133,309.919299 143.449156,334.990514 112.657412,342.964996 C107.867199,318.409697 105.048291,293.556829 104.191034,268.653721 C104.631247,268.634398 105.07339,268.649856 105.509742,268.620872 C135.687505,266.211331 166.336373,242.796072 190.370461,224.043382 C192.465334,222.368104 189.864602,219.081311 187.763936,220.739199 C164.619928,238.885155 137.019729,257.952805 108.68584,262.947725 C107.150887,263.206649 105.598557,263.357366 104.042365,263.492625 C103.689036,248.480813 104.05395,233.451609 105.131313,218.468781 C137.564203,218.946052 170.34656,205.31388 195.301619,184.636649 C197.377185,182.909199 195.156813,179.342227 193.048424,181.073542 C168.749822,201.039697 136.89616,213.94147 105.538703,213.185952 C107.064003,194.821649 109.664735,176.526908 113.33897,158.404139 C140.933377,163.174916 172.161473,146.625016 193.270461,124.784558 C195.25142,122.705434 192.720195,119.370335 190.708344,121.464916 C169.904416,143.075434 141.174722,156.73659 114.451087,153.082665 C119.600421,129.099319 126.636107,105.427068 135.556213,82.2977848 C151.954149,87.5033226 171.143963,84.282227 185.493364,71.8983027 C187.802552,69.9080637 185.736639,66.1536613 183.388836,68.1554939 C170.163137,79.5191792 152.512139,82.2668684 137.50628,77.3299163 C139.446693,72.4644581 141.470128,67.6241194 143.578517,62.8108326 C148.061739,52.5775258 152.92339,42.4601553 158.165401,32.4915696 C159.812338,29.3786812 156.259742,27.4638007 154.595428,30.61147 C146.812538,45.4126653 139.863737,60.5230238 133.739369,75.8807131 C119.654482,69.7032429 108.9909,55.3561314 111.421726,34.3813306 C111.860008,30.7931035 107.421193,32.0200955 107.004149,35.6218485 C104.409209,58.8458127 116.298823,74.4237808 131.773856,80.8891593 C122.772658,104.234856 115.677119,128.12159 110.485308,152.325215 C85.4221254,146.905195 65.4561467,117.233243 67.3019523,79.5269083 C67.4911667,75.7705736 63.1817126,77.5965696 63.0156674,81.3548366 C61.2895688,122.394339 83.1225915,150.729159 109.406014,157.499837 C105.681579,175.858343 103.048024,194.383024 101.509209,212.979199 C72.3393025,211.027605 43.5227246,195.19651 29.0652013,159.032127 C27.8044157,155.816829 24.2344423,159.733542 25.5222586,162.944976 C40.7829776,200.467745 70.8622719,216.602207 101.097958,218.296809 C100.016733,233.399438 99.6556807,248.542645 100.01094,263.672327 C72.167465,264.495474 41.7387033,244.533183 22.3017526,216.988661 C20.4501547,214.380096 17.2895022,218.605972 19.1912999,221.24159 C40.3408338,250.666211 70.9221254,268.827625 100.157678,268.761928 C101.022658,293.914299 103.872458,319.020295 108.714802,343.822924 C79.0911667,349.793641 42.574722,331.916271 19.2183305,299.328522 C17.1948951,296.519 14.7177313,301.220215 16.7701281,304.025872 C41.9201947,338.476331 78.5158005,354.154777 109.757412,349.014936 C113.727052,368.210115 118.887971,387.215932 125.247891,405.912586 C97.4044157,415.289896 59.6677313,391.97898 37.2825116,359.416351 C35.2223917,356.465773 32.3803145,360.193123 34.4906341,363.186211 C58.9359736,398.169976 96.0895688,419.084876 125.962272,411.241789 C126.309809,411.158701 126.649622,411.046629 126.995228,410.95388 C133.982645,430.769319 142.319662,450.231151 152.008211,469.19639 C157.17106,479.302167 162.714269,489.264956 168.639769,499.067366 C170.506813,502.137745 173.937771,500.014179 172.091966,496.976649 C155.203617,469.043741 141.452751,439.794956 130.839369,409.723024 C160.225521,398.100414 179.878717,359.609578 193.486706,331.114378 C194.604615,328.643004 191.229649,326.102068 190.073124,328.604358 C176.494096,357.259936 157.887372,390.970335 130.036173,404.111709 C129.707944,404.262426 129.368131,404.382227 129.03604,404.521351 C122.755281,386.037247 117.652285,367.251709 113.727052,348.282605 C145.318131,341.104219 173.962871,312.777127 194.791899,287.591908" id="Fill-543" fill="#3C398B"></path>
                            </g>
                        </g>
                        <g id="Group-163" transform="translate(9.000000, 228.000000)">
                            <g id="Group-11" fill="#E65290">
                                <path d="M97.6924034,272.945678 C97.6924034,272.945678 100.960342,224.763029 34.5916352,170.411195 C34.5916352,170.411195 41.2104334,233.493127 97.6924034,272.945678" id="Fill-173"></path>
                                <path d="M111.014196,239.700203 C111.014196,239.700203 114.460734,189.654878 45.6277848,133.278581 C45.6277848,133.278581 52.4273083,198.785186 111.014196,239.700203" id="Fill-176"></path>
                                <path d="M120.195892,211.832861 C120.195892,211.832861 131.260532,162.726325 72.329203,95.3996197 C72.329203,95.3996197 68.950703,161.546984 120.195892,211.832861" id="Fill-179"></path>
                                <path d="M136.939559,176.093742 C136.939559,176.093742 152.420275,133.358623 107.704585,65.6168075 C107.704585,65.6168075 97.1034516,124.605109 136.939559,176.093742" id="Fill-181"></path>
                                <path d="M157.594972,142.253701 C157.594972,142.253701 169.958708,103.648402 127.467002,39.7639233 C127.467002,39.7639233 120.059391,93.4728672 157.594972,142.253701" id="Fill-183"></path>
                                <path d="M176.460779,108.85453 C176.460779,108.85453 185.301435,76.1650908 147.208795,19.3566534 C147.208795,19.3566534 143.107394,65.2593865 176.460779,108.85453" id="Fill-185"></path>
                                <path d="M190.195689,91.5384511 C190.195689,91.5384511 201.670682,64.52645 177.217486,5.41255132 C177.217486,5.41255132 168.004749,45.2312511 190.195689,91.5384511" id="Fill-187"></path>
                                <path d="M206.578118,66.7623003 C206.578118,66.7623003 218.803652,44.6400908 200.782151,0.0976436626 C200.782151,0.0976436626 189.717511,32.1080039 206.578118,66.7623003" id="Fill-189"></path>
                                <path d="M218.434122,52.0064971 C218.434122,52.0064971 249.27011,47.0741299 256.824427,2.19107907 C256.824427,2.19107907 221.463929,16.2750415 218.434122,52.0064971" id="Fill-191"></path>
                                <path d="M271.20038,48.6781604 C271.20038,48.6781604 249.073226,39.2115067 207.712647,64.1415678 C207.712647,64.1415678 239.235391,71.0026033 271.20038,48.6781604" id="Fill-193"></path>
                                <path d="M62.8096575,419.404837 C62.8096575,419.404837 86.8418694,413.561355 102.841373,453.101186 C102.841373,453.101186 69.2349733,445.154476 62.8096575,419.404837" id="Fill-195"></path>
                                <path d="M64.294369,406.646888 C64.294369,406.646888 89.0048322,385.399604 137.292505,401.908239 C137.292505,401.908239 101.766164,423.430134 64.294369,406.646888" id="Fill-197"></path>
                                <path d="M66.2689523,378.567307 C66.2689523,378.567307 95.3465891,354.850646 153.63156,374.984582 C153.63156,374.984582 111.599109,398.743818 66.2689523,378.567307" id="Fill-199"></path>
                                <path d="M73.4322651,353.421175 C73.4322651,353.421175 106.292376,328.056844 173.807094,351.607461 C173.807094,351.607461 126.046714,376.69718 73.4322651,353.421175" id="Fill-201"></path>
                                <path d="M78.3926429,330.947505 C78.3926429,330.947505 107.572336,301.085077 177.97228,314.238766 C177.97228,314.238766 133.939094,346.049021 78.3926429,330.947505" id="Fill-203"></path>
                                <path d="M85.9671589,303.722414 C85.9671589,303.722414 112.080901,270.966983 183.667253,276.36768 C183.667253,276.36768 142.927519,312.66539 85.9671589,303.722414" id="Fill-205"></path>
                                <path d="M96.733071,271.073635 C96.733071,271.073635 127.628592,233.98828 213.113782,240.63218 C213.113782,240.63218 164.789965,281.645122 96.733071,271.073635" id="Fill-207"></path>
                                <path d="M110.194129,236.791874 C110.194129,236.791874 142.250544,198.237665 230.912247,205.122117 C230.912247,205.122117 180.776924,247.759312 110.194129,236.791874" id="Fill-209"></path>
                                <path d="M121.676351,209.849696 C121.676351,209.849696 147.579601,166.701595 236.641026,158.818749 C236.641026,158.818749 193.420041,208.961998 121.676351,209.849696" id="Fill-211"></path>
                                <path d="M138.955603,173.194779 C138.955603,173.194779 161.627059,133.857182 241.864838,125.201591 C241.864838,125.201591 203.67652,171.146899 138.955603,173.194779" id="Fill-213"></path>
                                <path d="M159.243612,138.137506 C159.243612,138.137506 176.954691,101.682268 251.766458,84.9117935 C251.766458,84.9117935 220.050232,128.858184 159.243612,138.137506" id="Fill-215"></path>
                                <path d="M190.714902,90.2433056 C190.714902,90.2433056 209.168018,67.6038043 271.939228,63.1610549 C271.939228,63.1610549 241.256325,89.5237803 190.714902,90.2433056" id="Fill-217"></path>
                            </g>
                        </g>
                        <g id="Group-358" transform="translate(0.000000, 584.000000)">
                            <g id="Group-13" fill="#F9C78E">
                                <path d="M1.32119174,3.70435657 C33.0300466,28.7311295 60.2730559,60.7198745 84.7628029,92.569496 C144.318995,170.022643 185.731844,260.580452 205.776984,356.18342 C206.259674,358.48862 209.78524,357.543739 209.300619,355.25593 C189.382909,260.253898 148.416065,171.234177 90.1650666,93.6979422 C65.1482224,60.4029821 36.7448269,27.0423247 3.87365513,1.10158765 C2.0529494,-0.336021912 -0.526544607,2.24935657 1.32119174,3.70435657" id="Fill-356"></path>
                                <path d="M193.965373,305.683906 C193.965373,305.683906 193.191138,275.766556 233.99773,249.24807 C233.99773,249.24807 228.531751,287.286755 193.965373,305.683906" id="Fill-359"></path>
                                <path d="M188.069414,280.983301 C188.069414,280.983301 188.094514,246.490333 237.498775,214.598201 C237.498775,214.598201 229.785393,258.663639 188.069414,280.983301" id="Fill-362"></path>
                                <path d="M179.337557,256.246755 C179.337557,256.246755 180.418782,218.053488 237.818316,181.232133 C237.818316,181.232133 227.662523,230.259643 179.337557,256.246755" id="Fill-364"></path>
                                <path d="M171.588262,236.91651 C171.588262,236.91651 167.193855,198.964777 218.725812,154.294538 C218.725812,154.294538 215.694521,204.268861 171.588262,236.91651" id="Fill-366"></path>
                                <path d="M159.605779,216.259761 C159.605779,216.259761 151.270692,178.978526 197.865699,129.162649 C197.865699,129.162649 200.064834,179.181414 159.605779,216.259761" id="Fill-368"></path>
                                <path d="M146.147037,187.647466 C146.147037,187.647466 137.506891,144.453482 193.280726,85.0767291 C193.280726,85.0767291 194.400566,143.282526 146.147037,187.647466" id="Fill-370"></path>
                                <path d="M129.835599,159.527514 C129.835599,159.527514 120.813162,114.671777 178.656771,53.0825737 C178.656771,53.0825737 179.886664,113.516279 129.835599,159.527514" id="Fill-372"></path>
                                <path d="M118.019161,135.655273 C118.019161,135.655273 101.980346,92.8071653 149.293595,22.7971255 C149.293595,22.7971255 160.119361,82.2627629 118.019161,135.655273" id="Fill-374"></path>
                                <path d="M187.77536,278.641582 C187.77536,278.641582 157.833149,261.558375 105.654387,288.679729 C105.654387,288.679729 147.715972,303.830665 187.77536,278.641582" id="Fill-381"></path>
                                <path d="M178.161145,256.929813 C178.161145,256.929813 144.490639,238.928777 84.0771904,270.55039 C84.0771904,270.55039 131.651092,286.037542 178.161145,256.929813" id="Fill-384"></path>
                                <path d="M170.918868,237.305283 C170.918868,237.305283 140.16767,214.664865 75.8502264,237.299486 C75.8502264,237.299486 120.717204,259.447175 170.918868,237.305283" id="Fill-387"></path>
                                <path d="M160.680632,213.770803 C160.680632,213.770803 132.460659,188.040683 66.1352264,203.827337 C66.1352264,203.827337 108.442017,230.542914 160.680632,213.770803" id="Fill-390"></path>
                                <path d="M146.827823,185.803886 C146.827823,185.803886 113.634214,156.873926 34.4537883,175.899066 C34.4537883,175.899066 84.4025233,205.739125 146.827823,185.803886" id="Fill-393"></path>
                            </g>
                        </g>
                        <g id="Group-7" transform="translate(1212.000000, 282.000000)">
                            <g id="Group-17" fill="#323159">
                                <path d="M52.9120905,71.1550199 C141.846711,107.350319 241.541451,107.526155 330.582264,71.6786653 C349.223742,64.1737251 367.394115,55.0920518 384.906099,44.4278486 C386.253768,43.6047012 385.025806,41.6067331 383.685859,42.4240837 C300.576338,93.0321912 202.426205,107.843048 110.508562,86.8624502 C91.2666178,82.4684661 72.2988415,76.5112749 53.7963782,68.9812151 C52.3734088,68.3976693 51.4775366,70.5676096 52.9120905,71.1550199" id="Fill-575"></path>
                                <path d="M344.856368,62.1645498 C344.858296,62.1626175 343.462357,61.6196494 341.170546,60.4776773 C338.880666,59.3453665 335.669814,57.6391713 332.059294,55.3243108 C324.728202,50.8221195 315.848642,43.8330956 307.863023,36.0073984 C299.86968,28.1855657 292.760626,19.5541116 287.985859,12.5341713 C285.54731,9.07540637 283.687989,6.01662151 282.419481,3.84861355 C281.14518,1.68253785 280.486791,0.360864542 280.486791,0.362793234 C280.486791,0.360864542 281.579601,1.14150199 283.40996,2.61775697 C285.249973,4.09014741 287.864221,6.21371315 290.932197,8.89570518 C297.137656,14.165008 305.233329,21.5926574 313.371478,29.2367211 C321.469081,36.9117012 329.585992,44.8185538 335.403369,51.1737928 C338.355499,54.3021394 340.714887,57.0498287 342.35024,59.0110837 C343.981731,60.9665418 344.858296,62.1645498 344.856368,62.1645498" id="Fill-581"></path>
                                <path d="M309.191966,76.2546693 C309.193895,76.2527371 307.624188,75.5146096 305.08524,74.0190319 C302.554015,72.529251 299.013003,70.3129363 295.105146,67.3604263 C287.136904,61.5829363 277.755346,52.8181554 269.626851,43.1645299 C261.471325,33.5167012 254.549554,23.0186733 250.118462,14.6017012 C247.842097,10.4453865 246.168129,6.80692032 245.042497,4.23120319 C243.913003,1.65355378 243.362736,0.0980756972 243.362736,0.0980756972 C243.362736,0.0980756972 244.496092,1.11638247 246.382443,2.9945498 C248.272656,4.86692032 250.958342,7.5720996 254.095826,10.9400478 C260.461538,17.5831952 268.740632,26.8155857 277.098888,36.2412032 C285.405013,45.7035339 293.763269,55.3629562 299.675253,63.0475976 C302.681445,66.8348486 305.064001,70.1390319 306.699354,72.4848088 C308.336638,74.8286534 309.191966,76.2546693 309.191966,76.2546693" id="Fill-583"></path>
                                <path d="M327.164627,69.6946096 C327.164627,69.6946096 325.805373,69.0743506 323.585,67.8106454 C321.364627,66.5546693 318.259967,64.6822988 314.784601,62.1761434 C307.721884,57.2894303 299.238129,49.8385936 291.690792,41.5993904 C284.135732,33.3679163 277.495852,24.3731952 273.099514,17.1117211 C270.848249,13.5312231 269.153043,10.3796892 267.996518,8.14598406 C266.841924,5.91421116 266.253043,4.56548606 266.253043,4.56355378 C266.253043,4.56355378 267.299514,5.40215936 269.048782,6.96923108 C270.805772,8.54016733 273.300313,10.7970598 276.215759,13.6355657 C282.123881,19.2275578 289.804441,27.0706454 297.515892,35.1378765 C305.181005,43.2302271 312.853842,51.560247 318.31982,58.214988 C321.094321,61.4979163 323.30504,64.3654064 324.83034,66.4116813 C326.355639,68.4521594 327.164627,69.6926773 327.164627,69.6946096" id="Fill-585"></path>
                                <path d="M287.917703,82.684494 C287.917703,82.684494 286.403988,81.8478207 283.96737,80.2015259 C281.536545,78.5590956 278.144201,76.1282988 274.437144,72.9439163 C266.853123,66.6872231 258.035346,57.3698127 250.518901,47.2427809 C242.975426,37.115749 236.710113,26.2216056 232.796465,17.551506 C230.773029,13.2637968 229.32496,9.53451394 228.35765,6.8930996 C227.386478,4.25168526 226.930819,2.66915538 226.930819,2.66915538 C226.930819,2.66915538 227.998529,3.74929482 229.767104,5.74146614 C231.53761,7.7239761 234.051458,10.5856693 236.974627,14.1371833 C242.915573,21.153259 250.609647,30.8706494 258.367437,40.7870637 C266.071165,50.7363267 273.809647,60.8884781 279.237011,68.918996 C282.001858,72.8801514 284.177823,76.3273227 285.662577,78.7697131 C287.153123,81.2101713 287.917703,82.684494 287.917703,82.684494" id="Fill-587"></path>
                                <path d="M269.466216,87.1482331 C269.468142,87.1463008 268.043242,86.284508 265.763016,84.6111614 C263.488582,82.939747 260.325999,80.4722371 256.877663,77.2781932 C249.832324,70.9963805 241.725067,61.7408028 234.888249,51.7799462 C228.032124,41.8229542 222.4252,31.1915996 219.009687,22.778492 C217.23532,18.6144482 215.995772,15.0049661 215.173269,12.4485717 C214.346904,9.89604183 213.976198,8.37147748 213.976198,8.37147748 C213.976198,8.36954781 214.976332,9.44582271 216.6252,11.4128745 C218.272137,13.3799263 220.608356,16.2049064 223.307557,19.7061813 C228.806358,26.6333725 235.859421,36.2097072 242.924068,45.9812012 C249.934654,55.7778147 256.929794,65.7811813 261.774068,73.6629143 C264.253162,77.5564402 266.176198,80.9321175 267.491045,83.3184721 C268.802031,85.7125558 269.468142,87.1463008 269.466216,87.1482331" id="Fill-589"></path>
                                <path d="M250.856205,90.6429382 C250.856205,90.641006 249.54715,89.7772809 247.461931,88.1329183 C245.382503,86.4866235 242.496019,84.0674203 239.366258,80.9661255 C232.96,74.8543526 225.65787,65.9465837 219.560533,56.4475398 C213.451611,46.9523606 208.522383,36.8852291 205.595353,28.9648506 C204.066192,25.0384761 203.025513,21.6492729 202.338162,19.2513247 C201.656605,16.8533765 201.361198,15.4331547 201.361198,15.4331547 C201.361198,15.4312251 202.287963,16.4611255 203.803609,18.3470219 C205.323116,20.2329183 207.464328,22.9458267 209.924115,26.2963845 C214.938296,32.9279382 221.290493,42.0791733 227.596352,51.4139741 C233.848149,60.7738944 240.026578,70.3251096 244.237563,77.8281175 C246.394221,81.5380777 248.056605,84.7437151 249.180306,87.0141335 C250.304008,89.2806873 250.856205,90.6429382 250.856205,90.6429382" id="Fill-591"></path>
                                <path d="M228.997503,93.4959363 C228.997503,93.4959363 227.871871,92.7288247 226.099434,91.275757 C224.325067,89.8226892 221.874933,87.7010558 219.224001,85.0016733 C213.796638,79.6686056 207.652963,72.0052191 202.536451,63.8935458 C197.418009,55.7857371 193.313216,47.2586255 190.930659,40.5826295 C189.679527,37.2726494 188.84737,34.4264143 188.306758,32.412988 C187.762284,30.4034263 187.546039,29.2150766 187.546039,29.2150766 C187.547969,29.2131474 188.382057,30.1058566 189.722004,31.7270319 C191.065812,33.3482072 192.963748,35.6804582 195.099168,38.5479482 C199.48006,44.2404183 204.909354,52.0699801 210.182257,60.050259 C215.408822,68.0537251 220.459687,76.2156375 223.811485,82.6037251 C225.541445,85.7668526 226.838915,88.4952191 227.707756,90.4178287 C228.584321,92.3443028 228.997503,93.4959363 228.997503,93.4959363" id="Fill-593"></path>
                                <path d="M207.033385,95.0311255 C207.035313,95.0311255 206.027457,94.2253685 204.448096,92.7259263 C202.870666,91.2264841 200.69277,89.0546116 198.360413,86.3088546 C193.5702,80.8811056 188.220067,73.1771414 183.846897,65.1157072 C179.467936,57.0581375 176.046631,48.6546912 174.146764,42.1158865 C173.131185,38.8774004 172.494035,36.0987948 172.088575,34.1394721 C171.677324,32.1762849 171.536378,31.0246514 171.534447,31.0227191 C171.536378,31.0227191 172.27779,31.9212251 173.459414,33.5501295 C174.646831,35.1751693 176.311145,37.5132171 178.178189,40.3787749 C182.008815,46.0751096 186.710213,53.8776195 191.23012,61.8366434 C195.709481,69.8091932 199.997696,77.9363247 202.781851,84.2703088 C204.226059,87.4063845 205.291838,90.0999701 205.998495,92.003257 C206.709015,93.9046116 207.033385,95.0311255 207.033385,95.0311255" id="Fill-595"></path>
                                <path d="M188.172573,95.2989382 C188.174501,95.2989382 187.209121,94.4429422 185.708921,92.8642769 C184.210652,91.2856116 182.148602,89.0016673 179.961052,86.1419064 C175.45466,80.476488 170.502264,72.5097351 166.546138,64.2318865 C162.584221,55.9617669 159.595406,47.3902131 158.031491,40.7644562 C157.185819,37.4776633 156.689614,34.6681414 156.384554,32.6914283 C156.075632,30.7108506 155.990679,29.5514851 155.990679,29.5514851 C155.99261,29.5495558 156.685752,30.4886394 157.784354,32.1735797 C158.884887,33.8604522 160.431425,36.2777231 162.1498,39.2379622 C165.686951,45.1217271 169.982889,53.1561096 174.093475,61.3373446 C178.157723,69.528241 182.021172,77.86599 184.479028,84.3333008 C185.761052,87.5408705 186.685885,90.2827629 187.294075,92.2208307 C187.908056,94.1569661 188.17257,95.297006 188.172573,95.2989382" id="Fill-597"></path>
                                <path d="M169.319495,94.5979104 C169.321411,94.5979104 168.462224,93.732253 167.131931,92.141994 C165.809361,90.5536673 163.984794,88.261994 162.079134,85.4138267 C158.128802,79.760002 153.865686,71.8821335 150.535126,63.7627311 C147.198775,55.6375319 144.779534,47.2843247 143.59984,40.8498625 C142.953036,37.657751 142.613222,34.9390458 142.410493,33.0222331 C142.207763,31.1112171 142.180732,29.9905 142.180732,29.9905 C142.180732,29.9905 142.798575,30.91799 143.756232,32.5836076 C144.725473,34.2453606 146.073142,36.6336474 147.557896,39.5513765 C150.623941,45.3520538 154.296245,53.2627709 157.76968,61.3068147 C161.198708,69.3605199 164.417284,77.5533486 166.404035,83.8854004 C167.446644,87.0253406 168.178402,89.7073327 168.653369,91.5970936 C169.130266,93.4849223 169.321411,94.5979104 169.319495,94.5979104" id="Fill-599"></path>
                                <path d="M150.51717,92.929008 C150.51717,92.929008 149.70239,92.0208406 148.457051,90.3648845 C147.213642,88.7108606 145.508782,86.3225737 143.745999,83.3835896 C140.08721,77.530741 136.225692,69.4461195 133.310246,61.1624741 C130.387077,52.8749641 128.396465,44.407753 127.545,37.9211195 C127.06231,34.6980916 126.859581,31.9658606 126.75532,30.0413187 C126.651059,28.1225737 126.68002,27.0018566 126.68002,27.0018566 C126.68002,27.0018566 127.249594,27.9583307 128.124228,29.6741873 C129.008515,31.3823147 130.236478,33.8362988 131.572563,36.8293865 C134.345133,42.7807809 137.610047,50.8731315 140.6703,59.0852829 C143.690007,67.3070956 146.489607,75.654506 148.15006,82.0793068 C149.028555,85.2733506 149.62516,87.9843267 150.005519,89.8992072 C150.383948,91.8082908 150.51717,92.929008 150.51717,92.929008" id="Fill-601"></path>
                                <path d="M128.690519,89.7587311 C128.690519,89.7587311 128.049507,88.9085319 127.087989,87.3723765 C126.126471,85.8362211 124.815486,83.6295677 123.479401,80.9243884 C120.691385,75.5352849 117.833862,68.1559422 115.760226,60.6394084 C113.686591,53.1209422 112.377537,45.4826753 111.950839,39.6530139 C111.684394,36.7526753 111.638056,34.304488 111.639987,32.5828347 C111.638056,30.859249 111.715286,29.8602649 111.715286,29.8602649 C111.715286,29.8602649 112.165153,30.7355837 112.84478,32.2987908 C113.53213,33.8581335 114.482064,36.0918386 115.493782,38.8182729 C117.606032,44.2382928 120.009827,51.5963805 122.193515,59.0704044 C124.34245,66.5405637 126.263555,74.1305239 127.306165,79.9505239 C127.87767,82.8431335 128.221345,85.2971175 128.431798,87.0207032 C128.64225,88.7520179 128.690519,89.7587311 128.690519,89.7587311" id="Fill-603"></path>
                                <path d="M110.120107,85.9913825 C110.122024,85.9913825 109.521558,85.1102669 108.63727,83.5258048 C107.754913,81.9394104 106.555912,79.668992 105.356911,76.8961833 C102.843063,71.3660239 100.354314,63.8456255 98.6629694,56.2286135 C96.9696937,48.6116016 96.0487217,40.911502 95.9174301,35.0663825 C95.7996538,32.1583147 95.8749534,29.7043307 95.9676298,27.9846096 C96.0506525,26.2648884 96.1800133,25.2697689 96.1800133,25.2717012 C96.1800133,25.2717012 96.5874035,26.1663426 97.1898003,27.7662629 C97.7960586,29.3584542 98.634008,31.6443307 99.5067111,34.4171394 C101.346724,39.9453665 103.379814,47.423255 105.181212,54.9996892 C106.953648,62.5741912 108.490533,70.2549681 109.237736,76.1232749 C109.662503,79.0429363 109.878748,81.5123785 110.000386,83.2456255 C110.123955,84.9846693 110.120107,85.9913825 110.120107,85.9913825" id="Fill-605"></path>
                                <path d="M91.7213116,81.2569323 C91.7213116,81.2569323 91.1691145,80.3449004 90.3620573,78.715996 C89.5588615,77.0851594 88.473775,74.7529084 87.4137883,71.9201992 C85.1760386,66.2644422 83.0695806,58.6203785 81.760526,50.9202789 C80.4495406,43.218247 79.9205126,35.4775697 80.0846272,29.6305179 C80.1135885,26.7127888 80.3143875,24.2723307 80.4939481,22.5584064 C80.6638549,20.8444821 80.8434154,19.8570916 80.8434154,19.8570916 C80.8434154,19.8570916 81.2083289,20.7768526 81.7296338,22.405757 C82.2586618,24.0307968 82.9807656,26.3533865 83.7163848,29.174502 C85.2783688,34.7974104 86.9349601,42.3719124 88.3559987,50.0391633 C89.7461451,57.7006175 90.893016,65.4528884 91.3409521,71.3540438 C91.6151198,74.2930279 91.7077963,76.7701992 91.7444807,78.5073108 C91.7734421,80.2521514 91.7232423,81.2569323 91.7213116,81.2569323" id="Fill-607"></path>
                                <path d="M81.4755459,80.2021056 C81.4755459,80.2021056 80.7399268,79.4176036 79.608502,77.979994 C78.4809387,76.5385199 76.9305393,74.4651932 75.306771,71.8972052 C71.9433888,66.7921454 68.3232157,59.7123048 65.5448535,52.431508 C62.7626298,45.1526434 60.8125632,37.703739 59.9591678,31.9784203 C59.476478,29.1379821 59.2621638,26.7284402 59.1579028,25.0299741 C59.043988,23.331508 59.0652264,22.3441175 59.0652264,22.3441175 C59.0652264,22.3441175 59.5981158,23.1691972 60.4167577,24.651249 C61.239261,26.1313685 62.3803395,28.2568665 63.6218176,30.8615677 C66.1935885,36.034257 69.2075033,43.0928426 72.0418575,50.3021454 C74.8414581,57.5153127 77.4672903,64.8753327 79.0871971,70.5658705 C79.9425233,73.3908506 80.5371971,75.8023247 80.9291411,77.5007908 C81.3152929,79.2031215 81.4755459,80.2021056 81.4755459,80.2021056" id="Fill-609"></path>
                                <path d="M67.9357124,74.397757 C67.9357124,74.397757 66.9684021,73.9185538 65.4006258,72.9620797 C63.8270573,72.0056056 61.6298535,70.5969801 59.1797204,68.7477968 C54.1867776,65.118992 48.2091478,59.7028367 42.9555526,53.7939522 C37.7019574,47.887 33.1820506,41.5163028 30.3727963,36.411243 C28.917004,33.8973586 27.8840479,31.6945697 27.2044208,30.1371594 C26.5151398,28.5778167 26.2042876,27.6445299 26.2042876,27.6425976 C26.2042876,27.6425976 27.0267909,28.2473984 28.3609454,29.3797092 C29.6950999,30.5042908 31.5717976,32.1293307 33.6937017,34.1698088 C38.0186019,38.1831355 43.368735,43.7983147 48.568269,49.5970598 C53.73498,55.4093307 58.7626764,61.4070996 62.2824501,66.1856056 C64.0819174,68.5410438 65.4894407,70.5950478 66.4606125,72.0539124 C67.4298535,73.5166414 67.9357124,74.397757 67.9357124,74.397757" id="Fill-611"></path>
                                <path d="M57.8613981,71.6947032 C57.8613981,71.6947032 56.7898269,71.5459183 54.986498,71.1324124 C53.1754461,70.7169741 50.6191212,70.0754602 47.6650599,69.0803406 C41.6893609,67.192512 34.1111318,63.8844641 26.9789081,59.8286275 C19.8505459,55.7805199 13.1913582,51.0039462 8.63090546,46.9036673 C6.31206391,44.9095637 4.51259654,43.0835677 3.28849534,41.7754203 C2.05667111,40.4653406 1.4214514,39.6518546 1.4214514,39.6518546 C1.4214514,39.6518546 2.45826897,39.9977311 4.18629827,40.70301 C5.91432756,41.4005598 8.35094541,42.4227311 11.1640613,43.7598625 C16.8520772,46.3529701 24.0422237,50.1382888 31.0450866,54.0917151 C38.0305726,58.070261 44.8480826,62.2207789 49.7850333,65.6640857 C52.2757124,67.3393645 54.289494,68.8484681 55.6931558,69.9305398 C57.0948868,71.0184084 57.8613981,71.6947032 57.8613981,71.6947032" id="Fill-613"></path>
                                <path d="M310.421278,79.9238586 C310.419348,79.9238586 309.618083,81.4658108 308.393981,84.1883805 C307.171811,86.9051534 305.459228,90.7928825 303.613422,95.4883008 C299.759627,104.863679 295.226205,117.444695 290.920613,130.133918 C286.678735,142.827006 282.711025,155.624436 280.463622,165.384337 C279.241451,170.24593 278.471079,174.350074 277.988389,177.234954 C277.497976,180.119835 277.364754,181.798978 277.366664,181.798978 C277.364754,181.798978 278.683462,180.330452 280.650905,177.694835 C282.626072,175.066946 285.307896,171.271966 288.018682,166.628719 C293.679667,157.377006 299.379268,144.716767 303.360493,131.880691 C307.351372,119.046548 309.677936,106.075213 310.311225,96.288261 C310.720546,91.4092769 310.728269,87.3128625 310.666485,84.4453725 C310.600839,81.5740179 310.419348,79.9238586 310.421278,79.9238586" id="Fill-620"></path>
                                <path d="M328.582577,73.2940438 C328.580646,73.2940438 328.014933,74.6814143 327.178915,77.1238048 C326.339035,79.5642629 325.178648,83.0616733 323.971924,87.2798207 C321.419461,95.7064542 318.583176,107.027629 316.011405,118.464741 C313.491764,129.896056 311.265599,141.443307 310.22492,150.217749 C309.616731,154.596275 309.332909,158.281116 309.178449,160.868426 C309.016265,163.455737 309.051019,164.957112 309.051019,164.957112 C309.049088,164.957112 309.997091,163.589064 311.381445,161.162131 C312.773522,158.731335 314.65022,155.239721 316.494095,151.006116 C320.37492,142.55243 324.06267,131.101793 326.395027,119.583526 C328.729314,108.067191 329.742963,96.5044821 329.598156,87.8131275 C329.602017,83.4693825 329.333642,79.8444422 329.088435,77.2977092 C328.843229,74.7548406 328.582577,73.2940438 328.582577,73.2940438" id="Fill-622"></path>
                                <path d="M288.922856,86.4216992 C288.920925,86.4236315 288.034707,87.9095478 286.656145,90.5509622 C285.279514,93.1865797 283.342963,96.9641693 281.232643,101.53399 C276.842097,110.654309 271.58464,122.935823 266.54536,135.333273 C261.567863,147.742317 256.85488,160.27889 254.035972,169.884209 C252.524188,174.662715 251.516332,178.714687 250.861804,181.562855 C250.203415,184.412954 249.969794,186.082436 249.969794,186.082436 C249.969794,186.080504 251.369594,184.695066 253.487636,182.185046 C255.611471,179.680823 258.50761,176.052018 261.48484,171.582675 C267.670992,162.694229 274.098489,150.401122 278.823056,137.835564 C283.555346,125.268074 286.634907,112.468711 287.845493,102.743592 C288.544427,97.903253 288.793495,93.8126355 288.899687,90.94901 C289.003948,88.0815199 288.922856,86.4216992 288.922856,86.4216992" id="Fill-624"></path>
                                <path d="M270.278868,90.9316195 C270.276937,90.9316195 269.332796,92.3093287 267.849973,94.7575159 C266.369081,97.2076355 264.285792,100.714707 261.988189,104.969568 C257.238522,113.440643 251.500306,124.895145 245.991851,136.459787 C240.54518,148.037954 235.368815,159.741719 232.181132,168.748034 C230.489787,173.225106 229.319747,177.031679 228.557097,179.713671 C227.782863,182.393731 227.477803,183.9666 227.479725,183.9666 C227.477803,183.964667 228.893049,182.718353 231.061292,180.420882 C233.229534,178.131141 236.202903,174.817297 239.295979,170.70156 C245.70996,162.528054 252.537124,151.125723 257.755965,139.387177 C262.984461,127.652496 266.641318,115.614448 268.344248,106.418771 C269.282597,101.837357 269.744048,97.9612211 270.006631,95.2386514 C270.263422,92.5141494 270.276937,90.9316195 270.278868,90.9316195" id="Fill-626"></path>
                                <path d="M251.470959,94.4630378 C251.469028,94.4630378 250.499787,95.7016235 248.95518,97.9024801 C247.412503,100.101404 245.250053,103.2626 242.840466,107.10009 C237.888069,114.738357 231.867963,125.0876 226.098855,135.556643 C220.389601,146.035349 214.964168,156.64738 211.550586,164.844074 C209.758842,168.913436 208.488402,172.389592 207.646591,174.833914 C206.80285,177.282102 206.449521,178.723578 206.449521,178.723578 C206.449521,178.725508 207.831944,177.62991 209.978948,175.599094 C212.125952,173.570209 215.07229,170.627361 218.182743,166.948317 C224.600586,159.657859 231.58028,149.407161 237.098389,138.77001 C242.62036,128.132859 246.711638,117.15756 248.812304,108.713536 C249.939867,104.518576 250.592463,100.947739 250.986338,98.4396514 C251.378282,95.9276992 251.469028,94.4630378 251.470959,94.4630378" id="Fill-628"></path>
                                <path d="M229.382304,97.3463725 C229.380373,97.3463725 228.428509,98.3260339 226.916724,100.086333 C225.399148,101.844699 223.279174,104.362448 220.910133,107.440556 C216.054274,113.554261 210.150013,121.861094 204.541158,130.285795 C198.978642,138.724022 193.738562,147.280118 190.40221,153.927129 C188.658735,157.221651 187.403742,160.042767 186.565792,162.038803 C185.723981,164.025177 185.359068,165.207727 185.359068,165.207727 C185.359068,165.207727 186.615992,164.353663 188.56992,162.75954 C190.52964,161.169281 193.240426,158.856353 196.121119,155.940556 C202.069787,150.168863 208.684567,141.976034 214.11,133.410277 C219.52964,124.842588 223.786964,115.930954 226.152144,109.034679 C227.407137,105.604898 228.200679,102.675576 228.700746,100.617707 C229.206605,98.5579064 229.382304,97.3463725 229.382304,97.3463725" id="Fill-630"></path>
                                <path d="M207.187843,98.8983725 C207.187843,98.8983725 206.245632,99.7833526 204.733848,101.38907 C203.222064,102.987058 201.102091,105.28646 198.723395,108.105643 C193.854021,113.703432 187.895699,121.364886 182.223129,129.163532 C176.591105,136.975703 171.268003,144.932795 167.815806,151.160504 C166.018269,154.236679 164.707284,156.887755 163.830719,158.758193 C162.944501,160.634428 162.542903,161.751281 162.542903,161.751281 C162.542903,161.749349 163.755419,160.989966 165.657217,159.556221 C167.564807,158.122476 170.202224,156.025962 173.038509,153.374886 C178.873262,148.130703 185.470666,140.610305 190.982983,132.674468 C196.493369,124.742496 200.94763,116.42407 203.529055,109.931639 C204.884447,106.712476 205.788043,103.951261 206.371132,101.999667 C206.956152,100.048074 207.187843,98.8983725 207.187843,98.8983725" id="Fill-632"></path>
                                <path d="M188.129321,99.1692769 C188.129321,99.1692769 187.140772,100.004018 185.549827,101.52858 C183.960812,103.049277 181.724993,105.234675 179.205353,107.930193 C174.054088,113.27099 167.705752,120.617484 161.637377,128.112763 C155.609547,135.6235 149.880985,143.29848 146.110213,149.338759 C144.158216,152.316388 142.712077,154.899835 141.738975,156.723898 C140.756218,158.553759 140.298628,159.64356 140.298628,159.645492 C140.298628,159.64356 141.54976,158.947942 143.521065,157.612743 C145.500093,156.277544 148.245632,154.324018 151.219001,151.821727 C157.318269,146.88091 164.296032,139.710253 170.213808,132.070054 C176.121931,124.429855 180.997097,116.354894 183.908682,109.999655 C185.43012,106.855851 186.47466,104.142942 187.154288,102.226129 C187.839707,100.305452 188.12739,99.1692769 188.129321,99.1692769" id="Fill-634"></path>
                                <path d="M169.078136,98.4607095 C169.076205,98.4587809 168.112756,99.2162311 166.54498,100.603602 C164.982996,101.990972 162.78,103.987008 160.293182,106.462247 C155.211425,111.362486 148.922943,118.13896 142.895113,125.083542 C136.903968,132.051311 131.196644,139.192984 127.389188,144.848741 C125.431398,147.637008 123.964021,150.060076 122.963888,151.779797 C121.967617,153.493721 121.490719,154.529418 121.490717,154.531351 C121.488788,154.531351 122.68972,153.907227 124.589587,152.697625 C126.502969,151.497685 129.151971,149.727725 132.044248,147.439916 C137.967816,142.939657 144.82008,136.340952 150.712756,129.259179 C156.601571,122.175474 161.555899,114.639618 164.596844,108.670833 C166.170413,105.722187 167.28253,103.163861 168.018149,101.349458 C168.751838,99.5427849 169.076205,98.4607131 169.078136,98.4607095" id="Fill-636"></path>
                                <path d="M150.075992,96.7746135 C150.075992,96.7746135 149.071997,97.4779602 147.434714,98.7841753 C145.801292,100.092323 143.497896,101.968558 140.883648,104.312402 C135.550892,108.940191 128.909081,115.384315 122.525992,122.012004 C116.173795,128.657084 110.099627,135.497323 106.004487,140.946327 C103.89996,143.630251 102.307084,145.972163 101.220067,147.637781 C100.131119,149.299534 99.598229,150.310112 99.598229,150.310112 C99.598229,150.310112 100.833915,149.749753 102.801358,148.638697 C104.774594,147.541167 107.516272,145.908398 110.530186,143.775171 C116.685446,139.589873 123.877523,133.352502 130.133182,126.583757 C136.386911,119.815012 141.725459,112.543876 145.069534,106.741267 C146.795632,103.873777 148.039041,101.377283 148.869268,99.6053904 C149.693702,97.8373625 150.075992,96.7746135 150.075992,96.7746135" id="Fill-638"></path>
                                <path d="M128.019194,93.5695558 C128.019194,93.5695558 127.123322,94.1531016 125.657876,95.2467669 C124.19243,96.3462291 122.124587,97.9229622 119.772923,99.9054721 C114.98271,103.824118 108.995426,109.325293 103.237903,115.029357 C97.5074101,120.752743 92.0163316,126.677086 88.2783822,131.432404 C86.3630692,133.76852 84.8976232,135.816727 83.9032823,137.277524 C82.9012184,138.730592 82.4030826,139.617504 82.4030826,139.617504 C82.4030826,139.615572 83.4669308,139.151827 85.179514,138.212743 C86.8959587,137.283321 89.2881691,135.905612 91.9391012,134.087345 C97.3471571,130.531966 103.747623,125.200831 109.41247,119.386627 C115.069594,113.574357 120.012337,107.298341 123.184574,102.255114 C124.819927,99.7702131 126.018928,97.5925438 126.825985,96.0486594 C127.631112,94.5028426 128.019194,93.5695558 128.019194,93.5695558" id="Fill-640"></path>
                                <path d="M109.254727,89.7635618 C109.254727,89.7635618 108.327963,90.2988008 106.804594,91.3151753 C105.281225,92.3373466 103.134221,93.8039402 100.680226,95.6608526 C95.6814913,99.3244382 89.4045939,104.504857 83.3497337,109.901689 C77.3180426,115.31398 71.5141811,120.944618 67.5290945,125.495116 C65.490213,127.726888 63.9185752,129.695873 62.847004,131.102566 C61.7677097,132.499598 61.2232357,133.359458 61.2232357,133.359458 C61.2232357,133.359458 62.3141145,132.951749 64.0768975,132.105414 C65.8435419,131.264876 68.3110519,130.018562 71.0565912,128.341351 C76.6557923,125.07388 83.3381491,120.086689 89.3061252,114.575853 C95.2683089,109.06888 100.535419,103.055653 103.97024,98.1863307 C105.734953,95.7883825 107.044008,93.6783426 107.930226,92.1769681 C108.818375,90.6736614 109.252796,89.7635618 109.254727,89.7635618" id="Fill-642"></path>
                                <path d="M90.6617111,84.9790657 C90.6617111,84.9790657 89.7079161,85.4640657 88.1285553,86.3992849 C86.5511252,87.3364363 84.3249601,88.6928904 81.7705659,90.4164761 C76.5768242,93.8134084 70.025759,98.6556793 63.6832157,103.724026 C57.3638415,108.811695 51.2626431,114.12544 47.034281,118.459524 C44.8795539,120.581157 43.2017244,122.463189 42.0567843,123.809982 C40.9060519,125.15291 40.3152397,125.97799 40.3152397,125.979922 C40.3152397,125.979922 41.4292876,125.630181 43.2403395,124.88046 C45.055253,124.136536 47.5884088,123.019683 50.430486,121.491257 C56.2073169,118.527153 63.1561185,113.901297 69.4156391,108.711217 C75.6693675,103.52307 81.2531225,97.797751 84.9408722,93.1139263 C86.8291545,90.8125916 88.2501931,88.7740458 89.2155726,87.3190458 C90.1770905,85.8621135 90.6617111,84.9790657 90.6617111,84.9790657" id="Fill-644"></path>
                                <path d="M81.4755459,80.2021056 C81.4755459,80.2021056 80.425213,80.4281813 78.6585686,80.932504 C76.8899933,81.438759 74.3838682,82.1826833 71.4606991,83.1990578 C65.5448535,85.1545159 57.906771,88.1476036 50.3343342,91.3609701 C42.7869973,94.6033207 35.3110985,98.0678825 29.8914581,101.047444 C27.1555726,102.485054 24.9429228,103.814456 23.4156924,104.776727 C21.8768775,105.729337 21.0408589,106.345731 21.0427863,106.347663 C21.0427896,106.345731 22.2302064,106.312882 24.2208189,106.077145 C26.2075699,105.847205 29.011032,105.454954 32.2296072,104.751608 C38.7324035,103.456986 46.858968,100.871608 54.4159587,97.5403725 C61.9729494,94.2091375 68.9661585,90.147504 73.7930559,86.5843964 C76.2373968,84.8511494 78.150779,83.2473645 79.4656258,82.0937988 C80.7766112,80.9305717 81.4736152,80.2021056 81.4755459,80.2021056" id="Fill-646"></path>
                                <path d="M67.1419774,76.6065359 C67.1419774,76.6065359 66.0858522,76.3630697 64.2574234,76.0655 C62.4251332,75.7717948 59.8205393,75.3776116 56.7158788,75.0549223 C50.4872503,74.3052012 42.2506325,73.7738267 33.9522304,73.4376116 C25.663482,73.1419741 17.3090879,73.0337669 10.995506,73.3274721 C7.84064581,73.4163566 5.19936751,73.6231096 3.35163116,73.7989462 C1.49617177,73.9631892 0.436185087,74.1332291 0.436185087,74.1351614 C0.436185087,74.1351614 1.5232024,74.5969741 3.42693076,75.2288267 C5.32100533,75.8664761 8.03565246,76.7050817 11.275466,77.4528705 C17.757024,79.0663167 26.3353862,80.2623924 34.73998,80.5387072 C43.1407124,80.8169542 51.3522304,80.1889661 57.3337217,79.0605199 C60.3360519,78.5523327 62.7842543,77.9301414 64.4871838,77.449006 C66.1920439,76.9659382 67.1419774,76.6065359 67.1419774,76.6065359" id="Fill-648"></path>
                            </g>
                        </g>
                        <g id="Group-6" transform="translate(1301.000000, 0.000000)">
                            <g id="Group-18">
                                <path d="M128.512603,51.0442216 C128.512603,51.0442216 102.484172,25.5905262 97.0207785,26.7171313 C91.5573851,27.8471817 77.9023376,32.6774579 75.8131909,43.1476502 C73.7274803,53.6212877 92.3614317,64.0914799 96.220168,63.1233575 C100.075468,62.1586804 125.457913,65.5419409 128.512603,51.0442216" id="Fill-748" fill="#F7B43E"></path>
                                <path d="M128.512603,51.0442216 C128.512603,51.0442216 137.6698,38.7997125 137.6698,24.3019932 C137.6698,9.80427387 123.210706,0.298758757 116.462213,0.622614655 C109.713719,0.943025276 103.508129,18.6689677 105.858419,25.8282502 C108.208709,32.9875327 121.441116,51.6884881 128.512603,51.0442216" id="Fill-750" fill="#F7B467"></path>
                                <path d="M128.512603,51.0442216 C128.512603,51.0442216 139.917007,20.9187326 145.541897,22.2072657 C151.166787,23.4957987 173.013489,28.8118588 173.174985,33.1632418 C173.336482,37.5111795 171.085839,52.4912373 162.571192,55.5540873 C154.056544,58.6134919 130.11726,57.1630309 128.512603,51.0442216" id="Fill-752" fill="#F9C78E"></path>
                                <path d="M128.512603,52.49296 C126.663983,52.3275867 136.889806,80.6649777 148.603459,88.8233901 C154.376101,92.8474719 162.732688,94.5391022 166.587988,91.1558417 C168.271676,89.6778185 174.906778,74.3670141 169.158189,68.6030682 C162.894185,62.322331 157.107798,55.070026 128.512603,52.49296" id="Fill-754" fill="#F7B467"></path>
                                <path d="M129.153435,54.7485818 C129.153435,54.7485818 138.795122,75.8508943 135.255942,83.2616819 C131.723635,90.6724695 115.979441,97.7594012 109.392444,95.8266017 C102.805447,93.8938021 100.55824,75.6924116 102.482454,68.4401067 C104.41354,61.191247 125.621128,51.0449107 129.153435,54.7485818" id="Fill-756" fill="#F9C78E"></path>
                                <path d="M116.808571,52.3413678 C116.808571,45.9813893 121.948971,40.8238118 128.295442,40.8238118 C134.63504,40.8238118 139.782312,45.9813893 139.782312,52.3413678 C139.782312,58.7013464 133.36712,61.9605771 127.027522,61.9605771 C120.681052,61.9605771 116.808571,58.7013464 116.808571,52.3413678" id="Fill-758" fill="#E65290"></path>
                                <path d="M170.313061,157.043635 C170.313061,157.043635 145.937392,163.04186 144.607623,166.662844 C143.270981,170.283829 141.109676,180.071856 146.466551,185.119185 C151.823425,190.169959 164.743148,183.041684 165.584992,180.423274 C166.426835,177.804865 177.669743,164.127121 170.313061,157.043635" id="Fill-760" fill="#F7B43E"></path>
                                <path d="M170.313061,157.043635 C170.313061,157.043635 166.50243,147.193592 158.029016,141.901649 C149.555602,136.609706 138.725025,141.636363 136.453766,145.719014 C134.175634,149.79822 142.271077,159.913549 147.311831,161.146958 C152.349148,162.380367 168.107087,161.429471 170.313061,157.043635" id="Fill-762" fill="#F7B467"></path>
                                <path d="M170.313061,157.043635 C170.313061,157.043635 156.874487,139.345255 159.678342,136.513238 C162.485633,133.681222 173.563608,122.783815 176.164733,124.279065 C178.765858,125.770869 186.699805,132.561507 185.380344,138.680316 C184.060883,144.799126 174.474173,158.335613 170.313061,157.043635" id="Fill-764" fill="#F9C78E"></path>
                                <path d="M171.15834,157.57214 C170.385219,158.595387 190.682241,162.929544 199.722611,159.029492 C204.179228,157.107028 208.216641,152.814215 207.646249,149.313815 C207.39885,147.784112 200.873703,138.299269 195.410309,139.570576 C189.448682,140.959022 183.105648,141.710092 171.15834,157.57214" id="Fill-766" fill="#F7B467"></path>
                                <path d="M172.712143,158.017959 C172.712143,158.017959 188.55942,160.057562 191.600366,164.836159 C194.641311,169.618201 193.036654,181.456168 189.504347,184.618931 C185.968603,187.785139 174.509222,182.462188 170.976914,178.682721 C167.448043,174.903254 169.25543,158.741467 172.712143,158.017959" id="Fill-768" fill="#F9C78E"></path>
                                <path d="M166.799652,164.392063 C163.081795,162.069947 161.947884,157.16732 164.263813,153.439532 C166.576306,149.715189 171.465871,148.574803 175.183727,150.896919 C178.898148,153.219035 178.468636,158.173341 176.14927,161.901129 C173.833341,165.625472 170.514072,166.714179 166.799652,164.392063" id="Fill-770" fill="#E65290"></path>
                                <path d="M36.7313729,128.327608 C36.7313729,128.327608 15.5787628,114.780785 12.0430195,116.313932 C8.51071227,117.843635 -0.0451680246,123.028774 0.00637342301,130.401664 C0.0613509671,137.771108 14.1218579,142.229295 16.5924112,141.033784 C19.0629646,139.838274 36.6935758,138.556631 36.7313729,128.327608" id="Fill-772" fill="#F7B43E"></path>
                                <path d="M36.7313729,128.327608 C36.7313729,128.327608 41.2086066,118.763523 39.1813097,108.96516 C37.1540127,99.1667962 26.0519849,94.77407 21.533518,95.9420184 C17.0219233,97.1065215 15.3038751,109.960844 17.8946918,114.47071 C20.4820725,118.97713 32.0445372,129.757397 36.7313729,128.327608" id="Fill-774" fill="#F7B467"></path>
                                <path d="M36.7313729,128.327608 C36.7313729,128.327608 40.2293191,106.363977 44.2083189,106.443218 C48.1907547,106.522459 63.7012943,107.046141 64.4194385,109.960844 C65.1375827,112.878993 65.7114108,123.321623 60.3820251,126.587744 C55.0560755,129.853865 38.6693313,132.237996 36.7313729,128.327608" id="Fill-776" fill="#F9C78E"></path>
                                <path d="M36.9327281,129.306755 C35.6613724,129.454902 46.5366178,147.170509 55.5907321,151.039553 C60.0576576,152.948236 65.9402548,152.913783 68.0740707,150.085212 C69.0052529,148.851803 71.3521068,137.568526 66.658399,134.481559 C61.5454874,131.115525 56.6215611,127.029428 36.9327281,129.306755" id="Fill-778" fill="#F7B467"></path>
                                <path d="M37.6807663,130.741713 C37.6807663,130.741713 47.1472122,143.65116 45.7933902,149.153265 C44.4430042,154.658815 34.7910092,161.666506 30.0698126,161.28408 C25.3451799,160.901654 21.2837138,148.915541 21.5723459,143.744182 C21.860978,138.572824 34.7738287,128.733117 37.6807663,130.741713" id="Fill-780" fill="#F9C78E"></path>
                                <path d="M29.0001557,130.849205 C28.1102067,126.549501 30.8659561,122.34282 35.1542046,121.450494 C39.442453,120.558167 43.6413629,123.321278 44.5313119,127.620982 C45.4178248,131.920686 41.5384719,135.024879 37.2502234,135.917205 C32.9654111,136.806087 29.8901047,135.148909 29.0001557,130.849205" id="Fill-782" fill="#E65290"></path>
                            </g>
                        </g>
                    </g>
                </g>
            </g>
        </g>
    </g>
</svg>