<?xml version="1.0" encoding="UTF-8"?>
<svg width="393px" height="327px" viewBox="0 0 393 327" version="1.1" xmlns="http://www.w3.org/2000/svg" xmlns:xlink="http://www.w3.org/1999/xlink">
    <!-- Generator: Sketch 52.6 (67491) - http://www.bohemiancoding.com/sketch -->
    <title>leaves</title>
    <desc>Created with Sketch.</desc>
    <defs>
        <rect id="path-1" x="0" y="0" width="397" height="329"></rect>
        <polygon id="path-3" points="0.0356634737 0.734800797 287.862675 0.734800797 287.862675 285.630675 0.0356634737 285.630675"></polygon>
        <polygon id="path-5" points="0.975820977 0.734800797 261.160689 0.734800797 261.160689 272.743715 0.975820977 272.743715"></polygon>
        <polygon id="path-7" points="0.627448536 0.734800797 427.514705 0.734800797 427.514705 158.9322 0.627448536 158.9322"></polygon>
        <polygon id="path-9" points="0.458585669 0.734800797 429.146954 0.734800797 429.146954 148.606614 0.458585669 148.606614"></polygon>
        <polygon id="path-11" points="0.0902091745 0.88612815 247.809695 0.88612815 247.809695 255.434441 0.0902091745 255.434441"></polygon>
        <polygon id="path-13" points="0.0890757792 0.405295219 247.809695 0.405295219 247.809695 254.527552 0.0890757792 254.527552"></polygon>
        <polygon id="path-15" points="0.366317391 0.734800797 48.7724375 0.734800797 48.7724375 126.66123 0.366317391 126.66123"></polygon>
        <polygon id="path-17" points="0.366440315 0.734800797 38.2496665 0.734800797 38.2496665 126.210464 0.366440315 126.210464"></polygon>
        <polygon id="path-19" points="0.532333916 0.734800797 39.0797162 0.734800797 39.0797162 126.303721 0.532333916 126.303721"></polygon>
        <polygon id="path-21" points="0.551255249 0.734800797 124.98573 0.734800797 124.98573 51.3805357 0.551255249 51.3805357"></polygon>
        <polygon id="path-23" points="0.103565563 0.734800797 117.553048 0.734800797 117.553048 51.3807263 0.103565563 51.3807263"></polygon>
        <polygon id="path-25" points="0.782220839 0.734800797 125.47798 0.734800797 125.47798 51.855594 0.782220839 51.855594"></polygon>
        <polygon id="path-27" points="0.799826868 0.275625118 179.147444 0.275625118 179.147444 257.440652 0.799826868 257.440652"></polygon>
    </defs>
    <g id="Page-2" stroke="none" stroke-width="1" fill="none" fill-rule="evenodd">
        <g id="one" transform="translate(-1047.000000, 0.000000)">
            <g id="leaves" transform="translate(1046.000000, 0.000000)">
                <mask id="mask-2" fill="white">
                    <use xlink:href="#path-1"></use>
                </mask>
                <g id="Mask"></g>
                <g id="Group-4" mask="url(#mask-2)">
                    <g transform="translate(0.000000, -29.000000)">
                        <g id="Group-729" stroke-width="1" fill="none" transform="translate(216.000000, 0.596695)">
                            <mask id="mask-4" fill="white">
                                <use xlink:href="#path-3"></use>
                            </mask>
                            <g id="Clip-728"></g>
                            <path d="M201.249632,35.8887279 C208.745261,35.1681183 214.640678,37.8179789 214.278294,42.0958833 C213.91591,46.3718813 207.37583,50.4839311 199.822983,50.9814948 C192.258691,51.4866841 186.59787,48.3697618 187.017473,44.3168096 C187.444705,40.2562319 193.748281,36.6150566 201.249632,35.8887279 M53.8565722,223.96973 C51.1673007,227.547995 43.1147444,227.877798 36.1588768,224.528298 C29.1953801,221.176891 25.9339232,215.598839 28.585049,212.239808 C31.243804,208.878869 38.8481483,208.835023 45.8478834,211.959571 C52.8399894,215.091744 56.5534728,220.385746 53.8565722,223.96973 M179.231936,167.554389 C183.47946,165.693768 187.858585,170.446359 188.777897,178.394035 C189.697208,186.334084 186.590241,194.447614 182.096678,196.294891 C177.597393,198.140262 173.607354,193.048335 172.935989,185.125443 C172.274162,177.196831 174.978691,169.424543 179.231936,167.554389 M122.068705,43.8993135 C116.308705,50.0893116 108.502188,61.2149131 108.454506,61.1958494 C108.427804,61.4341462 130.315804,55.2155526 130.420705,61.0261821 C130.386374,67.353439 104.508334,69.3875406 98.4393536,75.7491124 C92.1395921,82.6921283 121.134135,77.6173594 124.109499,81.0431143 C126.928466,85.256202 95.3800689,90.7942199 88.2258437,94.7099131 C81.1059497,99.1346084 75.7007046,112.5898 80.5261351,112.04267 C85.4183205,111.468851 93.4365457,109.960909 92.4237775,113.434324 C91.4377113,117.197507 67.4707709,126.304258 64.243645,132.015756 C60.9573934,138.2496 86.5893934,133.742931 86.8831152,136.526238 C87.0109033,139.921491 57.3488106,142.40931 49.2275921,149.159782 C41.0262675,156.329656 35.8765987,164.912154 36.8187974,165.800525 C37.760996,166.801371 55.6208106,163.74164 57.2172079,165.920626 C58.8670093,168.551423 29.3250755,178.788654 23.9293669,184.8433 C25.0870887,185.186447 -8.5536,227.683347 2.13673113,258.253969 C2.14626755,258.252063 2.15580397,258.24825 2.16724768,258.244437 C2.15580397,258.24825 2.14626755,258.252063 2.13673113,258.255875 C13.8417377,290.441196 78.8229298,285.930714 78.9335523,284.706822 C89.5666649,282.983459 118.647036,256.116923 119.858162,258.192965 C121.599513,260.554963 107.241473,278.396722 107.327301,279.64921 C107.542824,280.958889 120.298744,278.684584 133.348387,271.196345 C146.92444,263.791987 162.732016,230.199762 165.709287,230.590569 C169.439936,231.013784 152.932387,260.053586 161.263407,256.940477 C170.258162,253.958907 190.219804,225.338507 194.297579,223.662804 C198.74346,222.088138 194.667592,231.827806 192.11183,237.80429 C189.531274,243.847497 208.327566,236.002766 215.867062,225.927576 C224.030241,215.949612 233.494188,176.432375 237.514744,178.42263 C242.435539,180.266094 232.668334,217.817859 241.85191,207.696917 C251.676334,197.324333 254.068069,165.089447 260.848466,162.138379 C268.181976,158.981423 261.428281,188.816184 261.14791,188.854312 C261.195592,188.915316 275.330479,173.357393 282.112784,162.22226 C289.226956,150.976557 279.112625,122.954758 284.575089,116.566497 C290.504837,109.795055 292.814559,146.176306 292.442638,146.34216 C292.394956,146.338347 299.211592,140.064469 306.650003,124.702903 C313.98542,109.226955 304.479513,96.9556223 309.163804,83.1325008 C313.689791,69.2045287 326.100493,82.0229908 326.110029,82.0782757 C348.654135,16.1177179 333.212758,-21.1023378 316.482056,-40.4386944 C299.047566,-60.0247861 280.321844,-61.7252721 280.087248,-62.4077542 C280.08534,-62.3982223 280.083433,-62.3886904 280.079619,-62.3791586 L280.08534,-62.4077542 C278.229552,-64.855539 210.629658,-77.8074474 157.942824,-4.39677809 C157.900864,-4.37008884 174.986321,-0.256132669 167.992307,7.68772988 C160.870506,15.5763076 146.497208,11.9122558 139.165605,20.256457 C131.734824,28.5873135 129.894294,34.3293135 129.905738,34.3617219 C129.837075,34.7334649 159.045234,29.7463892 156.853764,35.3511303 C154.458215,41.5125327 127.773393,38.037212 122.068705,43.8993135" id="Fill-727" fill="#4347B2" mask="url(#mask-4)"></path>
                        </g>
                        <g id="Group-732" stroke-width="1" fill="none" transform="translate(242.701987, 0.596695)">
                            <mask id="mask-6" fill="white">
                                <use xlink:href="#path-5"></use>
                            </mask>
                            <g id="Clip-731"></g>
                            <path d="M122.743693,19.8185627 C120.182209,20.4896066 121.009971,24.5158695 123.580991,23.8638894 C154.803242,16.0496604 191.323931,12.2006902 220.488223,23.8848596 C209.931401,46.1989731 197.637044,67.5980269 183.746289,87.8894771 C183.387719,87.6473675 183.042501,87.374756 182.680117,87.1440847 C157.261732,71.3974313 119.17707,72.0665687 89.0839311,72.8996544 C86.4347126,73.0064114 86.5815735,77.1413376 89.2231629,77.0498317 C118.253944,76.1767122 151.368223,77.1794651 176.832381,89.7920388 C178.203719,90.4840528 179.529282,91.2732918 180.845309,92.0758755 C172.342633,104.211856 163.26205,115.939872 153.637891,127.216077 C128.112699,107.856844 94.0562225,99.5031106 62.1053881,101.329417 C59.4428185,101.48574 59.1204874,105.620666 61.8135735,105.479595 C92.8260238,103.834393 125.71715,112.224348 150.223852,131.17371 C138.265176,144.872917 125.49209,157.889642 111.967534,170.141911 C92.8031364,150.199328 58.273653,145.076899 28.7031099,150.075413 C25.9089377,150.569164 25.9737854,154.700278 28.7984742,154.214152 C57.9932821,149.217545 88.8455205,155.173059 107.969865,173.71827 C89.8392159,189.764224 70.3944477,204.456652 49.7633483,217.612543 C39.7634543,203.880927 22.6112424,195.20883 3.95036821,196.651955 C0.948301987,196.88072 0.397096689,201.07665 3.43158675,200.857417 C20.6047788,199.568708 36.2559576,207.716553 45.3041166,220.420632 C40.9173616,223.150561 36.4752954,225.813766 31.9798252,228.404529 C22.4262358,233.912045 12.6380503,239.105009 2.63434172,243.960545 C-0.493605298,245.468487 1.2096,249.069628 4.37569272,247.542623 C19.2296265,240.334621 33.5991099,232.396477 47.4536265,223.775852 C55.0484344,236.927929 55.1380768,254.569519 40.9307126,269.812889 C38.4836662,272.409372 42.735004,274.02979 45.1706066,271.412338 C60.8236927,254.476107 60.4784742,235.141656 51.9490967,220.944885 C72.7690172,207.661268 92.3892556,192.833487 110.680117,176.640742 C127.450872,195.614887 125.97654,230.879003 102.446368,259.760577 C100.098501,262.633483 104.595878,263.704866 106.92658,260.816708 C132.308726,229.214738 131.517203,193.923933 114.567163,173.161609 C128.269097,160.753017 141.202395,147.57425 153.307931,133.699656 C175.375216,152.319216 189.039004,181.765077 179.382421,218.962256 C178.50507,222.254565 183.639481,221.230842 184.49013,217.925188 C194.30311,179.178126 179.809653,148.754296 156.746766,129.713427 C166.441494,118.345716 175.590739,106.522381 184.158262,94.2910827 C206.792011,109.934792 219.324779,143.607085 218.672487,176.865694 C218.620991,180.024557 223.606633,178.514708 223.635242,175.308186 C224.024328,139.55032 210.31858,107.220115 187.017282,90.1618755 C201.049176,69.670256 213.467507,48.0538755 224.125415,25.5129034 C251.189785,38.1006942 269.783905,73.6793616 269.299454,113.242352 C269.265123,116.660481 273.98756,114.372832 273.995189,110.943264 C274.14205,68.8505149 254.199481,34.97424 226.33405,20.7736564 C234.407587,3.20069622 241.418766,-14.9232062 247.298925,-33.5046384 C274.939295,-24.6571544 291.324779,15.9486225 290.081229,54.9244492 C289.993494,58.4760249 294.439375,57.1758775 294.509944,53.5632978 C295.528434,11.4591106 278.204567,-26.9028635 249.848964,-38.1542859 C249.522819,-38.2915448 249.185229,-38.4021145 248.857176,-38.5298416 C254.891825,-58.363762 259.642872,-78.710497 263.034024,-99.4499452 C264.838315,-110.501198 266.255428,-121.661115 267.275825,-132.920162 C267.586713,-136.452674 263.613838,-136.771039 263.306766,-133.278561 C260.401971,-101.198091 254.22809,-69.9087659 245.080752,-39.8013934 C214.897971,-47.7643197 176.742739,-28.681511 149.247322,-14.0043337 C146.908991,-12.6946544 148.108673,-8.69698705 150.494686,-10.0085727 C178.060673,-24.8325408 212.588249,-40.7317042 242.435348,-34.8734153 C242.784381,-34.8009731 243.123878,-34.6999353 243.469097,-34.612242 C237.653785,-16.2500428 230.722713,1.66415837 222.750262,19.0331365 C193.414315,6.24898904 154.051772,11.9948018 122.743693,19.8185627" id="Fill-730" fill="#3C398B" mask="url(#mask-6)"></path>
                        </g>
                        <g id="Group-735" stroke-width="1" fill="none" transform="translate(0.476821, 0.596695)">
                            <mask id="mask-8" fill="white">
                                <use xlink:href="#path-7"></use>
                            </mask>
                            <g id="Clip-734"></g>
                            <path d="M288.435242,-11.6673092 C295.156514,-8.27396255 298.726951,-2.88845458 296.131136,0.537300398 C293.541044,3.95733625 285.814633,3.94208526 279.163931,0.329505578 C272.499878,-3.28116773 269.37956,-8.93738088 271.899083,-12.14009 C274.43005,-15.346612 281.706342,-15.056843 288.435242,-11.6673092 M63.3165139,68.634904 C59.1300238,70.2229139 52.1474543,66.2042765 48.060143,59.6577865 C43.9613881,53.1074837 44.1845404,46.6486869 48.2222623,45.2246251 C52.2676132,43.8043761 58.7180503,47.8268263 62.9655735,54.2055554 C67.2035603,60.5880972 67.5106331,67.0449876 63.3165139,68.634904 M199.456593,87.8854737 C204.039799,88.579394 205.203242,94.9352466 201.731984,102.145155 C198.268355,109.347438 191.302951,114.548027 186.517574,113.709223 C181.728381,112.866605 181.07609,106.432591 184.743799,99.3770992 C188.421044,92.3197008 194.85813,87.1934598 199.456593,87.8854737 M217.219136,-47.1716279 C209.038792,-45.0155183 196.49458,-39.7787076 196.464064,-39.8187414 C196.313388,-39.6319167 218.142262,-33.2036219 215.124938,-28.2337036 C211.712805,-22.9034805 188.749097,-34.9994267 180.221626,-32.8642873 C171.183004,-30.3574048 198.407587,-19.1669865 199.090395,-14.6812873 C199.225812,-9.6160502 169.592328,-21.7768131 161.452037,-22.2858151 C153.067613,-22.3487255 141.307295,-13.8596398 145.678792,-11.7473769 C150.118951,-9.61795657 157.70613,-6.61351036 154.993971,-4.21719761 C152.150209,-1.56161793 127.021732,-6.66116972 121.240752,-3.55568566 C115.131719,-0.0384247012 139.209282,9.83468884 137.969547,12.3472904 C136.264434,15.2850135 109.858077,1.55149163 99.3851762,2.9221749 C88.6185536,4.60359721 79.6791099,9.10836016 80.0014411,10.3627546 C80.2627391,11.7143741 96.9953483,18.6612028 97.1822623,21.35491 C97.1708185,24.4623004 66.7248318,17.3419916 58.9278517,19.5800753 C59.7231894,20.4894159 8.57362649,38.4531829 1.27063311,70.0036809 C1.28207682,70.0055873 1.29161325,70.0094 1.30305695,70.0113064 C1.29161325,70.0094 1.28207682,70.0074936 1.27063311,70.0055873 C-6.03617483,103.464366 51.308249,134.345727 52.0559046,133.369663 C61.9680636,137.590376 100.909097,130.403344 100.823269,132.807282 C101.03307,135.731661 79.3605934,143.149364 78.761706,144.253155 C78.2448318,145.477047 90.2435603,150.363085 105.278686,151.001721 C120.712434,151.989223 152.026236,132.031388 154.335958,133.953014 C157.265547,136.301667 127.788461,152.038788 136.495216,153.855563 C145.692143,156.135587 177.862315,142.598422 182.20711,143.360972 C186.805574,144.403759 178.156037,150.46031 172.800381,154.147239 C167.389415,157.87992 187.471216,161.282798 199.229626,156.79138 C211.464858,152.715551 240.583375,124.360137 242.917891,128.188137 C246.093521,132.376442 217.766527,158.907456 230.940143,155.252936 C244.788938,151.729956 264.037256,125.755603 271.345971,126.880364 C279.232593,128.129039 257.579189,149.74542 257.323613,149.625318 C257.327428,149.701573 277.592328,144.096832 289.278262,138.305267 C301.301785,132.597581 307.727428,103.510119 315.759004,101.024207 C324.393282,98.4658522 306.901574,130.454816 306.499136,130.397625 C306.460991,130.367123 315.575905,128.702858 330.071269,119.68952 C344.545653,110.523671 343.069415,95.074412 354.415852,85.8894996 C365.68409,76.5311072 369.325097,93.9934976 369.304117,94.0449697 C423.612143,50.3222705 430.451666,10.6124896 426.640911,-14.6679426 C422.370501,-40.5336319 407.447905,-51.9680661 407.613838,-52.669612 L407.596673,-52.6524546 C407.600487,-52.6581737 407.606209,-52.6657992 407.611931,-52.6715183 C407.354448,-55.7312494 357.129918,-102.774853 273.356249,-68.847106 C273.30666,-68.8451996 285.549521,-56.2440641 275.393229,-53.2624944 C265.154925,-50.3972135 254.962395,-61.1701359 244.304487,-58.0303371 C233.570289,-54.955355 228.948938,-51.0835084 228.939401,-51.0491936 C228.681918,-50.7727693 256.040011,-39.3936199 251.1936,-35.8267932 C245.874183,-31.895849 225.170607,-49.0818151 217.219136,-47.1716279" id="Fill-733" fill="#3C398B" mask="url(#mask-8)"></path>
                        </g>
                        <g id="Group-738" stroke-width="1" fill="none" transform="translate(29.086093, 0.596695)">
                            <mask id="mask-10" fill="white">
                                <use xlink:href="#path-9"></use>
                            </mask>
                            <g id="Clip-737"></g>
                            <path d="M224.621309,-52.9122934 C222.097971,-53.7129707 220.642713,-49.865907 223.167958,-49.0461659 C253.737918,-38.9805086 286.669097,-22.7343851 305.078209,2.71380817 C284.227772,15.9421408 262.398898,27.4680811 239.812832,37.2039357 C239.637362,36.8074098 239.492408,36.3937265 239.307401,36.0048261 C226.234872,9.12113287 193.681335,-10.6479707 167.795666,-26.0095365 C165.501203,-27.3344667 163.414633,-23.7600145 165.695746,-22.4255524 C190.704064,-7.666401 218.163242,10.8635592 232.950421,35.1202683 C233.740037,36.4394795 234.438103,37.8139755 235.122819,39.1941906 C221.449494,44.9133141 207.503428,49.9804576 193.343746,54.3746508 C182.109838,24.3797544 157.782421,-0.866363147 129.796832,-16.3804388 C127.462315,-17.6710544 124.980938,-14.3482436 127.33262,-13.0290325 C154.429415,2.13808307 177.749785,26.7932245 188.340938,55.897844 C170.908355,61.0927145 153.155348,65.2772066 135.173468,68.4131926 C129.628991,41.3217046 103.178766,18.5557803 75.5078781,6.99361892 C72.881547,5.92033008 70.7282225,9.44521653 73.3774411,10.5432882 C100.727905,21.9071867 123.624858,43.4149038 129.88266,69.3034695 C105.980567,73.1867544 81.6893881,75.2246687 57.2170172,75.3314257 C56.1050702,58.3837564 46.2367788,41.8936169 29.6910834,33.1528898 C27.0285139,31.7421727 24.3201695,34.9925412 27.0056265,36.431854 C42.2105007,44.5091627 51.0889113,59.7544396 51.9490967,75.3257066 C46.7784477,75.2913918 41.6020768,75.1693839 36.4161695,74.9596827 C25.3977854,74.5154974 14.3488848,73.678599 3.29616954,72.441362 C-0.157923179,72.0467424 -0.63855894,76.0005631 2.85367947,76.4009018 C19.260143,78.2367404 35.6513483,79.1975532 51.9719841,79.3100293 C51.3635603,94.4809576 42.0102358,109.444091 21.8540503,114.745719 C18.3980503,115.634089 21.1254675,119.273358 24.5833748,118.360205 C46.8661828,112.400878 56.9080371,95.8707046 57.2856795,79.3157484 C81.9850172,79.2032723 106.493626,77.1443878 130.611242,73.2210691 C134.648964,98.2155452 114.557626,127.240097 79.230898,139.092027 C75.7100503,140.266354 78.9390834,143.573914 82.452302,142.376711 C120.798262,129.213195 138.991852,98.9571249 135.757097,72.3536687 C153.973574,69.1814616 171.949732,64.943591 189.597838,59.680091 C198.300779,87.2024197 194.116196,119.389647 166.073388,145.680458 C163.572938,147.996703 168.457494,149.870669 170.944593,147.531547 C199.946766,120.013031 203.955878,86.5561588 194.63307,58.1454596 C208.907189,53.7112325 222.958156,48.6021488 236.740196,42.8372723 C247.51254,68.1443938 240.110368,103.301752 221.785176,131.070003 C220.051454,133.712238 225.073335,135.098173 226.812779,132.402559 C246.251825,102.380974 251.94507,67.7345233 241.361547,40.8737066 C264.17458,31.0406269 286.226607,19.3964914 307.284938,6.03280618 C323.433918,31.1245074 320.13813,71.1278699 298.585812,104.315944 C296.731931,107.186944 301.94454,107.774107 303.78507,104.88023 C326.40356,69.3740054 327.650925,30.0874396 311.681229,3.20565279 C327.898872,-7.34041096 343.511905,-18.9178233 358.413521,-31.4865504 C377.051507,-9.25059821 369.20303,33.82584 347.32266,66.1121986 C345.350527,69.0670791 349.80213,70.3405373 351.793335,67.3246528 C375.155666,32.2759576 381.012938,-9.40692092 363.053944,-34.0563432 C362.853679,-34.3480185 362.624805,-34.6187237 362.416911,-34.9027735 C378.117679,-48.4475643 393.007852,-63.111397 406.95964,-78.8351739 C414.390421,-87.2136898 421.554183,-95.8896002 428.431852,-104.862905 C430.583269,-107.682433 427.394289,-110.074933 425.269574,-107.285907 C405.668408,-81.7176122 383.728911,-58.5608811 359.905017,-37.9968193 C338.644514,-60.840905 296.190262,-65.0806819 265.101521,-67.3549867 C262.4256,-67.494152 261.302209,-63.4774209 264.02009,-63.3115663 C295.248064,-61.1249548 332.932196,-56.1283472 355.033812,-35.2402018 C355.291295,-34.9923731 355.523984,-34.7254807 355.770024,-34.4681201 C341.040064,-22.051903 325.606315,-10.6060305 309.583216,-0.180068327 C291.614686,-26.6519847 255.26756,-42.8104149 224.621309,-52.9122934" id="Fill-736" fill="#323159" mask="url(#mask-10)"></path>
                        </g>
                        <g id="Group-741" stroke-width="1" fill="none" transform="translate(256.052980, 113.072791)">
                            <mask id="mask-12" fill="white">
                                <use xlink:href="#path-11"></use>
                            </mask>
                            <g id="Clip-740"></g>
                            <path d="M300.026193,211.695919 L284.422697,221.915993 L279.131889,225.398939 L270.842829,230.834013 C270.842829,230.834013 272.89316,188.933807 248.331147,169.633672 C245.981372,167.797833 242.731359,167.424184 240.011571,168.682391 C237.019041,170.053074 235.25671,172.943138 235.233823,175.962835 C235.222379,177.278234 235.561875,178.635572 236.250405,179.878528 C242.134379,190.603791 251.07573,212.304052 247.539624,240.339196 C247.539624,240.339196 222.378723,255.056407 192.869213,255.420525 C191.320498,255.44912 189.809928,255.437682 188.261213,255.348082 C179.398061,255.01256 170.23165,253.281572 161.315094,249.384943 C161.315094,249.384943 186.271915,220.423301 181.118432,189.072973 C180.674034,186.438363 178.87165,184.257471 176.359756,183.388164 C175.587306,183.11174 174.853001,182.989732 174.078644,182.984013 C170.826723,182.961136 167.866617,185.183969 167.107518,188.544907 C164.181743,201.761801 156.512551,228.641682 140.06222,243.42371 L128.164577,239.65862 L124.145928,238.390881 L105.601399,232.488746 L101.546511,231.221007 L86.9424318,226.584704 C86.9424318,226.584704 113.329717,203.052417 118.41263,185.712034 C119.127862,183.279501 118.296286,180.641078 116.293637,179.115979 C115.216021,178.296238 113.901902,177.859678 112.664074,177.852052 C110.88267,177.838708 109.095544,178.637479 107.922564,180.099668 C101.201293,188.489622 86.0479152,206.064489 71.5468291,213.893969 L61.2722861,210.29664 L56.9084185,208.754383 L40.917743,203.142017 L37.749743,202.034413 L38.968498,199.721981 L45.9968424,186.535588 C47.4101404,183.952451 46.3878358,180.694457 43.7653192,179.359995 C42.9928689,178.967281 42.1822728,178.807146 41.4060079,178.801427 C40.2444715,178.791895 39.1191735,179.13123 38.184604,179.821337 L25.0243391,189.557192 L21.3642596,192.239461 C21.3642596,192.239461 20.5937166,191.884875 19.3215576,191.217644 C14.4999417,188.705042 2.54508079,181.922162 0.427994702,175.017274 C0.0865907285,173.93064 -0.0202172185,172.845913 0.220100662,171.764999 C0.260153642,171.494293 0.338352318,171.185461 0.418458278,170.874722 C1.85273642,165.351955 7.02338543,151.997801 11.9537166,139.80463 C12.4648689,138.569299 12.9779285,137.372096 13.4509351,136.176799 C17.9864583,125.062636 21.9250013,115.803375 21.9250013,115.803375 L59.5652662,120.992526 C59.8742464,121.034467 60.1450808,121.036373 60.4159152,121.038279 C62.0447364,121.01159 63.5591205,120.365329 64.6500874,119.328262 C65.7429616,118.213032 66.4505642,116.708903 66.4620079,115.006511 C66.4829881,112.257519 64.6424583,109.805921 61.9741669,109.09103 L33.6090278,101.374026 L41.3354384,93.3424707 L44.2230675,90.3056161 L50.2329219,84.079397 C50.2329219,84.079397 76.1929748,87.3259528 95.496604,100.356023 C99.4256106,103.017321 104.779359,101.778178 107.249293,97.7328512 C108.071332,96.3850444 108.468048,94.8790086 108.479491,93.4072875 C108.498564,90.7745843 107.241664,88.1742894 104.930034,86.5309946 C95.9543523,80.1179508 78.5293987,69.4632237 60.9938225,68.675891 L71.6421934,58.1889249 L74.6080212,55.2683592 L80.4958093,49.4672616 C80.4958093,49.4672616 113.558591,55.6305703 141.34773,89.1579787 C144.304021,92.7019289 149.724525,92.6256739 152.463385,88.9311201 C153.363624,87.6976958 153.838538,86.2698213 153.848074,84.8000066 C153.855703,83.8696958 153.668789,82.9393851 153.287332,82.0472018 C148.719385,71.2933432 132.911809,41.0639627 98.0199417,36.0482914 L113.268683,26.5621719 L116.806697,24.343152 L127.195677,17.8786361 C127.195677,17.8786361 158.679226,33.4746859 174.212154,64.3579528 C176.235783,68.3975604 181.728763,69.0190384 184.618299,65.555156 C185.556683,64.4399269 186.069743,63.0120524 186.081187,61.6184926 C186.086909,60.8063771 185.93814,59.9923552 185.632975,59.2164608 C182.629001,51.6843751 173.355783,33.1944488 149.108472,13.0841042 C147.990803,12.1480743 146.836895,11.210138 145.644842,10.2722018 C145.644842,10.2722018 146.886485,9.81657829 149.138988,9.05974761 C158.103226,6.144901 182.899836,-0.910591036 206.464339,1.31224163 C211.921081,1.77739701 217.335862,2.78586912 222.47218,4.48826155 C223.013849,4.64649064 223.553611,4.84284721 224.093372,5.04111016 C256.921558,16.8911341 277.081558,40.2632855 272.048233,66.3501141 C267.016816,92.4388492 224.442405,112.383339 224.442405,112.383339 C224.442405,112.383339 224.631226,111.481624 228.422909,111.817146 C232.062008,112.116447 237.129664,112.694078 242.929717,113.858873 C253.641028,115.950166 266.89475,119.879204 278.376604,127.356005 C302.463703,143.014965 312.900366,172.117678 300.026193,211.695919" id="Fill-739" fill="#3CA4F0" mask="url(#mask-12)"></path>
                        </g>
                        <g id="Group-744" stroke-width="1" fill="none" transform="translate(256.052980, 113.979165)">
                            <mask id="mask-14" fill="white">
                                <use xlink:href="#path-13"></use>
                            </mask>
                            <g id="Clip-743"></g>
                            <path d="M363.905166,106.75621 L363.489377,110.624243 C324.992742,106.355871 283.585589,108.025855 242.929907,112.951927 C235.604026,113.828859 228.318199,114.820174 221.068609,115.88965 C238.747232,123.604747 277.447947,142.504544 284.306543,163.106733 C291.767841,185.647706 286.223364,213.280604 284.422887,221.009046 L279.132079,224.491992 C282.225695,209.111363 286.337801,181.583315 280.617854,164.357315 C273.496053,142.824815 225.825377,122.001486 213.780874,117.037287 C209.94151,117.628263 206.10596,118.257367 202.304742,118.926504 C211.005775,131.026263 241.222887,182.220044 192.869404,254.513578 C191.320689,254.542174 189.810119,254.530735 188.261404,254.443042 C216.836344,212.773508 218.245828,178.761881 214.259603,157.252257 C210.385907,136.440367 200.801801,123.133873 198.040053,119.668084 C192.844609,120.598395 187.649166,121.528706 182.491868,122.535271 C182.224848,127.177293 180.927894,140.249303 174.635762,158.899365 C168.065166,178.241441 154.803815,207.132546 128.162861,238.75358 L124.146119,237.483935 C171.055788,182.481218 177.639735,134.61406 178.574305,123.318791 C172.291709,124.550309 166.087311,125.859988 159.959205,127.169668 L159.879099,127.556662 C159.680742,128.250582 140.087205,191.427833 105.601589,231.581799 L101.544795,230.31406 C133.016901,194.550475 152.209907,138.569787 155.614411,128.143825 C144.445351,130.616393 133.623417,133.207156 123.186755,135.839859 C119.421775,142.315813 94.7682119,183.007377 61.2724768,209.389694 L56.9086093,207.847437 C87.1257219,184.847028 110.42702,149.293144 117.871152,137.233419 C109.723232,139.341869 101.886199,141.452225 94.360053,143.564488 C90.6770861,149.226421 68.5544901,182.465967 40.9179338,202.23507 L37.7499338,201.127467 L38.9686887,198.815034 C61.9743576,182.185729 81.4153113,155.660435 88.5790728,145.186813 C72.2031258,149.865056 57.4540927,154.480389 44.7992583,158.567656 L25.0245298,188.650245 L21.3644503,191.332514 C21.3644503,191.332514 20.5939073,190.977929 19.3217483,190.310698 L38.9019338,160.536941 C19.2969536,167.010988 5.70754967,172.097196 0.42818543,174.110327 C0.086781457,173.023694 -0.0219337748,171.938967 0.218384106,170.858052 C0.260344371,170.587347 0.338543046,170.278514 0.418649007,169.969682 C6.63258278,167.615309 20.2601325,162.605357 39.2395232,156.32004 L11.9539073,138.897684 C12.4650596,137.662353 12.9781192,136.46515 13.4511258,135.269853 L43.9772185,154.768251 C56.9410331,150.566602 72.1535364,145.838793 88.9948609,141.048074 L60.416106,120.131333 C62.0430199,120.104644 63.557404,119.458383 64.6502781,118.421315 L93.730649,139.726957 C101.684026,137.502218 109.986437,135.241257 118.599735,133.020331 C104.264583,118.245929 56.2010066,98.349098 41.3356291,92.4355243 L44.2232583,89.3986697 C61.3659338,96.297839 109.891073,116.623604 122.828185,131.968012 C133.186649,129.335309 143.970437,126.74264 155.023152,124.3082 C142.938596,92.9845602 89.0845033,65.4584187 71.6423841,57.2819785 L74.6063046,54.3614127 C93.9023046,63.4433809 146.787497,90.9618968 158.862517,123.446518 C165.341563,122.060584 171.935046,120.676556 178.604821,119.332562 C176.300821,74.2258351 126.711417,35.3529526 113.268874,25.6552255 L116.806887,23.4362056 C123.125722,28.0496319 134.90702,37.2707653 146.66543,49.5478171 C162.190728,65.7634386 180.748609,90.784604 182.442278,118.625297 C187.250543,117.69308 192.135099,116.762769 197.021563,115.906807 C198.278464,108.252714 204.709828,65.3383171 197.435444,43.6113669 C191.030781,24.4446777 160.006887,14.9280562 149.108662,12.1771578 C147.990993,11.2411279 146.835179,10.3031916 145.643126,9.36525538 C145.643126,9.36525538 146.886675,8.90963187 149.137272,8.1528012 C159.768477,10.7454705 193.847841,20.5938012 201.122225,42.3607853 C208.398517,64.2040243 202.758675,104.531471 201.093616,115.201449 C203.885881,114.719136 206.714384,114.236823 209.506649,113.792638 L210.170384,112.946208 C210.40498,112.637375 233.395391,82.3069566 240.280689,46.4785542 C245.394119,19.6558649 219.167046,5.52962988 206.46453,0.405295219 C211.919364,0.872356972 217.334146,1.87892271 222.472371,3.58131514 C234.080106,10.1297116 248.659391,23.3180104 244.070464,47.2029765 C238.150252,78.1624984 220.528848,105.009971 214.972927,112.904267 C219.430252,112.200815 223.925722,111.537397 228.423099,110.912106 C273.774517,104.586755 320.647947,101.988367 363.905166,106.75621" id="Fill-742" fill="#4347B2" mask="url(#mask-14)"></path>
                        </g>
                        <path d="M210.387433,36.6770137 C210.387433,36.6770137 195.939751,22.5927189 192.907168,23.2161034 C189.874585,23.8413942 182.295036,26.5141313 181.135407,32.3076034 C179.977685,38.1029819 190.32089,43.896454 192.462771,43.3607627 C194.602744,42.8269779 208.691857,44.6990376 210.387433,36.6770137" id="Fill-748" fill="#F7B43E"></path>
                        <path d="M210.387433,36.6770137 C210.387433,36.6770137 215.470347,29.9017588 215.470347,21.8797349 C215.470347,13.857711 207.444493,8.59802371 203.698585,8.77722291 C199.952678,8.95451574 196.508122,18.7628125 197.812705,22.7242588 C199.117287,26.685705 206.462241,37.0335058 210.387433,36.6770137" id="Fill-750" fill="#F7B467"></path>
                        <path d="M210.387433,36.6770137 C210.387433,36.6770137 216.717711,20.0076751 219.839936,20.7206592 C222.962162,21.4336432 235.088678,24.3751791 235.178321,26.7829301 C235.267963,29.1887747 234.018691,37.477691 229.29244,39.172458 C224.566188,40.8653185 211.278135,40.0627349 210.387433,36.6770137" id="Fill-752" fill="#F9C78E"></path>
                        <path d="M210.387433,37.4786442 C209.361314,37.3871382 215.037393,53.0670685 221.539327,57.5813633 C224.743566,59.8080088 229.382082,60.7440386 231.522056,58.8719789 C232.456625,58.0541442 236.139592,49.5822159 232.948705,46.3928514 C229.471725,42.9175307 226.259857,38.9046124 210.387433,37.4786442" id="Fill-754" fill="#F7B467"></path>
                        <path d="M210.743142,38.7267476 C210.743142,38.7267476 216.094983,50.4032914 214.130479,54.503903 C212.169791,58.6045145 203.430612,62.5259269 199.774347,61.4564508 C196.118082,60.3869747 194.870718,50.3155982 195.938797,46.3026799 C197.010691,42.2916679 208.782453,36.677395 210.743142,38.7267476" id="Fill-756" fill="#F9C78E"></path>
                        <path d="M203.89084,37.3947637 C203.89084,33.8755964 206.744138,31.0217538 210.266893,31.0217538 C213.785833,31.0217538 216.642946,33.8755964 216.642946,37.3947637 C216.642946,40.9139311 213.082045,42.7173614 209.563105,42.7173614 C206.04035,42.7173614 203.89084,40.9139311 203.89084,37.3947637" id="Fill-758" fill="#E65290"></path>
                        <path d="M233.589743,95.3296755 C233.589743,95.3296755 220.059465,98.6486735 219.321346,100.652273 C218.579412,102.655873 217.37973,108.071883 220.353187,110.864721 C223.326644,113.659466 230.498034,109.715177 230.965319,108.266333 C231.432604,106.817488 237.67324,99.2491815 233.589743,95.3296755" id="Fill-760" fill="#F7B43E"></path>
                        <path d="M233.589743,95.3296755 C233.589743,95.3296755 231.474564,89.8793508 226.7712,86.9511596 C222.067836,84.0229683 216.056074,86.8043687 214.795359,89.0634225 C213.530829,91.3205699 218.024392,96.9176855 220.822379,97.6001675 C223.618458,98.2826496 232.365266,97.7564902 233.589743,95.3296755" id="Fill-762" fill="#F7B467"></path>
                        <path d="M233.589743,95.3296755 C233.589743,95.3296755 226.130352,85.5366297 227.686697,83.9695898 C229.244948,82.40255 235.394034,76.3726875 236.837849,77.200054 C238.281664,78.0255141 242.685584,81.7829783 241.953187,85.1686994 C241.220789,88.5544205 235.899465,96.0445659 233.589743,95.3296755" id="Fill-764" fill="#F9C78E"></path>
                        <path d="M234.058935,95.6221133 C233.629796,96.1883066 244.896127,98.5865257 249.914193,96.4285098 C252.387942,95.3647528 254.629001,92.9894102 254.312392,91.0525337 C254.175068,90.2061034 250.553134,84.9578544 247.520551,85.6613066 C244.211412,86.4295755 240.690564,86.8451651 234.058935,95.6221133" id="Fill-766" fill="#F7B467"></path>
                        <path d="M234.921409,95.8687982 C234.921409,95.8687982 243.717807,96.9973719 245.405754,99.6415133 C247.093701,102.287561 246.202999,108.837864 244.24231,110.587916 C242.279714,112.339874 235.918919,109.394525 233.95823,107.303232 C231.999449,105.21194 233.002681,96.2691369 234.921409,95.8687982" id="Fill-768" fill="#F9C78E"></path>
                        <path d="M231.639544,99.3957817 C229.575862,98.1108853 228.946458,95.3981143 230.231968,93.3354171 C231.515571,91.2746263 234.229637,90.6436163 236.293319,91.9285127 C238.355094,93.2134092 238.116683,95.9547757 236.829266,98.0174729 C235.543756,100.078264 233.701319,100.680678 231.639544,99.3957817" id="Fill-770" fill="#E65290"></path>
                        <path d="M159.44214,79.4402347 C159.44214,79.4402347 147.700895,71.9443701 145.738299,72.7927068 C143.777611,73.6391371 139.028472,76.5082307 139.057081,80.5878721 C139.087597,84.6656072 146.892207,87.1324558 148.263544,86.4709438 C149.634882,85.8094319 159.42116,85.1002606 159.44214,79.4402347" id="Fill-772" fill="#F7B43E"></path>
                        <path d="M159.44214,79.4402347 C159.44214,79.4402347 161.927332,74.148139 160.802034,68.72641 C159.676736,63.3046809 153.514299,60.8740534 151.00622,61.5203143 C148.501955,62.1646689 147.548313,69.2773522 148.986405,71.7727964 C150.422591,74.2663343 156.840604,80.2313801 159.44214,79.4402347" id="Fill-774" fill="#F7B467"></path>
                        <path d="M159.44214,79.4402347 C159.44214,79.4402347 161.383756,67.2870972 163.592392,67.3309438 C165.802935,67.3747904 174.412419,67.6645594 174.811041,69.2773522 C175.209664,70.8920514 175.52818,76.6702725 172.569981,78.4775155 C169.61369,80.2847586 160.517849,81.6039697 159.44214,79.4402347" id="Fill-776" fill="#F9C78E"></path>
                        <path d="M159.553907,79.9820263 C158.848212,80.0640004 164.884768,89.8665781 169.910464,92.0074367 C172.389934,93.0635681 175.655205,93.0445044 176.839629,91.4793709 C177.356503,90.7968888 178.659179,84.5535124 176.053828,82.8454008 C173.215788,80.9828729 170.482649,78.7219127 159.553907,79.9820263" id="Fill-778" fill="#F7B467"></path>
                        <path d="M159.969123,80.7760313 C159.969123,80.7760313 165.223693,87.9192165 164.472223,90.9636966 C163.72266,94.0100831 158.365097,97.8876488 155.744487,97.6760412 C153.121971,97.4644337 150.86756,90.8321568 151.027772,87.9706886 C151.187984,85.1092205 158.35556,79.6646149 159.969123,80.7760313" id="Fill-780" fill="#F9C78E"></path>
                        <path d="M155.15075,80.8355102 C154.656763,78.4563548 156.186405,76.1286715 158.566697,75.6349205 C160.946988,75.1411695 163.27769,76.6700819 163.771677,79.0492373 C164.263756,81.4283926 162.110432,83.1460361 159.73014,83.6397871 C157.351756,84.1316317 155.644736,83.2146655 155.15075,80.8355102" id="Fill-782" fill="#E65290"></path>
                        <path d="M321.408572,150.530846 C321.479142,151.381089 322.297367,151.636543 322.949658,151.405872 C323.317764,151.272426 323.634374,150.955968 323.716387,150.500344 C327.674003,124.146623 354.904307,117.173105 373.075009,102.516898 C380.933023,96.17439 386.458426,87.9579159 388.575513,78.0409558 C389.229711,74.9888502 389.53297,72.0263442 389.582559,69.0905275 C389.618797,67.5940235 389.590188,66.120396 389.506268,64.6410494 C390.719301,58.1746271 389.647407,50.6196649 386.929526,44.9310434 C386.504201,44.0541112 384.972652,43.8901629 384.661764,44.9691709 C381.613923,55.2254657 369.10595,61.7547984 361.333764,68.2193143 C352.8864,75.2252406 344.954003,83.0699717 338.158347,91.7134737 C331.582029,100.097709 326.338903,109.320749 323.317764,119.575137 C320.958453,127.648633 320.628493,135.731661 321.002321,143.938603 C320.872625,146.068024 320.994691,148.26798 321.408572,150.530846" id="Fill-784" fill="#DA2171"></path>
                        <path d="M344.100493,102.75977 C344.281685,102.248862 345.077023,102.361338 345.139963,102.876059 C345.609155,106.622085 345.202903,110.066904 344.29885,113.330617 C349.2864,105.745153 355.948546,99.1357522 359.471301,90.6504793 C359.671566,90.1776984 360.320042,90.3912124 360.310506,90.8754315 C360.215142,94.8807243 359.740228,99.06331 358.670241,103.009505 C360.566082,100.096565 362.606877,97.338041 364.561844,94.3621904 C367.274003,90.2425151 368.952413,85.5604594 371.53297,81.3530908 C371.716069,81.0556964 372.225314,81.1281386 372.353102,81.4465032 C373.901817,85.4784853 373.512731,89.7811725 372.280625,93.8322183 C374.260387,91.4854713 375.839619,88.8756446 376.720784,85.8159135 C378.137897,80.9184375 379.005711,75.2145649 379.846824,70.1588598 C379.932652,69.6498578 380.724175,69.4515948 380.912996,70.0025371 C381.60534,71.8765032 382.219486,73.6799335 382.6944,75.4509554 C383.215089,73.9506386 383.690003,72.4293518 383.970374,70.8699375 C384.874426,65.8599853 384.985049,60.8595649 385.873844,55.8496127 C385.938691,55.5579375 386.354479,55.4702442 386.48036,55.7600131 C387.865049,59.0637602 389.202056,64.0393976 389.583513,69.0893837 C389.532016,72.0271068 389.228758,74.9877064 388.574559,78.039812 C386.45938,87.9586785 380.933976,96.1732462 373.074056,102.517661 C354.905261,117.173868 327.674956,124.147386 323.715433,150.501107 C323.635327,150.95673 323.318718,151.271282 322.948705,151.406635 C319.248572,133.019653 338.552201,118.584585 344.100493,102.75977" id="Fill-786" fill="#E65290"></path>
                        <path d="M324.105664,150.971981 C326.917001,136.329119 336.400021,126.259649 348.894644,118.906762 C358.839226,113.052286 370.860842,108.728629 378.993505,100.392053 C392.806061,86.2372223 397.988154,62.636306 387.835677,44.947057 C387.761293,44.8174235 387.519068,44.8536446 387.559121,45.0271247 C393.095968,68.811053 382.565849,90.6485729 363.018087,104.547949 C353.472127,111.336549 342.964895,115.545824 334.633875,124.094007 C327.676101,131.229567 323.945452,141.034051 322.621796,150.788969 C322.490193,151.751688 323.926379,151.908011 324.105664,150.971981" id="Fill-788" fill="#F9C78E"></path>
                        <path d="M382.331825,147.2841 C385.89654,142.340871 388.971083,137.189847 390.784911,131.220988 C393.069838,123.631711 393.558103,115.779355 392.877203,107.907934 C392.167693,99.7886855 390.428249,91.7018448 388.026977,83.9276496 C385.825971,76.7634942 380.710633,67.6395859 382.982209,60.0369643 C383.228249,59.2381934 382.211666,58.7215659 381.589891,59.093309 C377.59413,61.5220301 373.863481,65.777058 371.990527,70.2837273 C371.338236,71.1682851 370.722183,72.0700002 370.136646,73.015562 C368.977017,74.8590261 367.964249,76.8187791 367.130766,78.9787014 C364.418607,85.9941596 364.515878,93.3337014 366.819878,100.457823 C372.148832,116.923179 386.222686,132.292371 377.985123,150.258044 C377.849706,150.572596 377.920275,150.896679 378.093838,151.131164 C378.404726,151.537221 379.016964,151.710701 379.40605,151.213138 C380.580938,149.973994 381.549838,148.658596 382.331825,147.2841" id="Fill-790" fill="#DA2171"></path>
                        <path d="M384.706585,112.355887 C384.803857,111.966987 384.264095,111.713439 384.016148,112.007021 C382.204228,114.14216 381.056042,116.446967 380.295036,118.839467 C380.27787,112.108059 378.822612,105.302302 380.079513,98.6071145 C380.148175,98.2315588 379.65991,98.1019253 379.467274,98.4069452 C377.901393,100.930985 376.497632,103.720011 375.563062,106.604356 C375.566877,104.026937 375.420016,101.487646 375.414294,98.8473177 C375.400943,95.1889851 376.259221,91.6030946 376.366029,87.944762 C376.371751,87.685495 376.026532,87.5253596 375.818638,87.670244 C373.222824,89.5461165 371.716069,92.3751763 370.838718,95.3891544 C370.560254,93.1301006 370.64036,90.8691404 371.334612,88.611993 C372.442744,84.997507 374.218426,81.1046902 375.748069,77.6255568 C375.902559,77.2747839 375.490585,76.8305986 375.149181,77.0955847 C373.959036,77.9782361 372.845181,78.8494492 371.832413,79.7549771 C372.118506,78.6130588 372.440837,77.4768596 372.900493,76.3940388 C374.372917,72.9187181 376.333605,69.7693875 377.815566,66.2997859 C377.891857,66.091991 377.670612,65.8689452 377.474162,65.9985787 C375.273155,67.4855508 372.423672,70.0343735 370.136837,73.0140369 C368.977208,74.8594074 367.96444,76.8191604 367.130956,78.9790827 C364.418797,85.9926345 364.516069,93.3340827 366.820069,100.458204 C372.149023,116.923561 386.222877,132.292752 377.985314,150.256519 C377.849897,150.572977 377.918559,150.897061 378.094029,151.129638 C387.853605,141.216491 381.729314,124.428957 384.706585,112.355887" id="Fill-792" fill="#E65290"></path>
                        <path d="M377.55236,150.3913 C381.750294,140.1636 379.949817,130.065535 375.177791,120.436437 C371.380387,112.770905 365.671883,105.21213 364.006824,96.7382956 C361.178321,82.3527936 367.539115,65.5995745 381.019804,58.7347199 C381.118983,58.6851542 381.2544,58.8052558 381.160943,58.8967618 C368.06934,71.4178295 365.74436,89.2405247 372.238665,105.797387 C375.408572,113.880415 380.222559,120.752895 381.925764,129.438337 C383.346691,136.690186 381.685446,144.287088 378.546056,150.879331 C378.237075,151.531312 377.281526,151.045186 377.55236,150.3913" id="Fill-794" fill="#F9C78E"></path>
                        <path d="M305.282289,100.159857 C305.083931,100.8309 305.631322,101.269367 306.195878,101.286524 C306.520117,101.294149 306.855799,101.147359 307.054156,100.825181 C317.93903,81.8643805 340.828355,84.6476873 359.082977,78.8618406 C366.979136,76.3568645 373.652726,71.7224681 378.226395,64.7737331 C379.635878,62.6366873 380.749732,60.4653267 381.667136,58.2367749 C382.140143,57.1043884 382.557838,55.9681892 382.933574,54.8129263 C385.788779,50.2338147 387.223057,44.1391355 386.8416,38.9842988 C386.77866,38.1874343 385.659083,37.60599 385.098342,38.3380378 C379.710262,45.2677092 368.203613,46.5297291 360.336064,49.1529004 C351.793335,51.991492 343.389838,55.6231355 335.621468,60.2041534 C328.097229,64.6517251 321.339719,70.1363645 315.97262,77.071755 C311.759428,82.5373307 309.098766,88.616759 306.935905,95.0012072 C306.2016,96.5892171 305.638951,98.3068606 305.282289,100.159857" id="Fill-796" fill="#DA2171"></path>
                        <path d="M336.868069,70.4146952 C337.157976,70.0772669 337.733976,70.4013506 337.627168,70.8112211 C336.869976,73.8156673 335.531062,76.3282689 333.86791,78.553008 C339.938797,74.2407888 347.001473,71.1753386 352.225526,65.7402649 C352.519248,65.4390578 352.952201,65.7955498 352.801526,66.1634801 C351.531274,69.1946155 349.923433,72.2486275 347.926506,74.944241 C350.245764,73.2837888 352.627963,71.7853785 355.008254,70.0944243 C358.311672,67.7533964 360.987592,64.676508 364.214718,62.2287231 C364.445499,62.0571494 364.811698,62.2649442 364.813605,62.5451813 C364.79644,66.0872251 363.213393,69.2594323 361.065791,71.9874542 C363.278241,70.7845319 365.263725,69.2613386 366.848678,67.1852968 C369.391089,63.8643924 371.756122,59.7637809 373.907539,56.1531076 C374.12497,55.78899 374.788705,55.8747769 374.767725,56.3494641 C374.737208,57.9870398 374.670453,59.5502669 374.504519,61.0448645 C375.349446,60.0516434 376.165764,59.0317331 376.846665,57.9241295 C379.028599,54.3649283 380.60783,50.5750558 382.778321,47.0139482 C382.917552,46.8099661 383.260864,46.865251 383.268493,47.1245179 C383.342877,50.062241 382.881314,54.2638904 381.666374,58.2367749 C380.750877,60.4653267 379.637023,62.6366873 378.227539,64.7756394 C373.651963,71.7243745 366.978374,76.3568645 359.082215,78.8618406 C340.827592,84.6476873 317.938268,81.8643805 307.053393,100.825181 C306.856943,101.147359 306.521261,101.294149 306.197023,101.286806 C308.85387,86.132753 327.909552,80.854002 336.868069,70.4146952" id="Fill-798" fill="#E65290"></path>
                        <path d="M307.211889,101.30025 C313.725266,90.9486363 323.975015,86.0797558 335.71626,84.1829131 C345.061955,82.6730645 355.536763,82.9494888 364.237796,79.0013873 C379.013531,72.3004809 390.012842,55.8084351 387.529558,39.2668235 C387.512392,39.1448155 387.315942,39.1009689 387.294962,39.243947 C384.432127,59.0702418 369.873823,72.6207518 350.791438,77.4190964 C341.472445,79.7620307 332.187783,79.8459112 323.271226,83.896957 C315.829001,87.2788653 310.051836,93.6575944 306.132366,100.716899 C305.743279,101.414632 306.794193,101.961762 307.211889,101.30025" id="Fill-800" fill="#F9C78E"></path>
                        <path d="M404.861626,141.99677 C408.786819,135.305396 412.067348,128.410039 413.648487,120.628218 C415.635878,110.736041 415.315454,100.727575 413.51307,90.8334912 C411.643931,80.6267622 408.470209,70.587794 404.497335,61.0216068 C400.848699,52.2046247 393.274872,41.2525032 395.241282,31.3469813 C395.456805,30.3061008 394.106448,29.7704096 393.366421,30.317539 C388.592487,33.8729275 384.371666,39.7121526 382.538766,45.64479 C381.817812,46.8438996 381.14454,48.0639793 380.517044,49.329812 C379.267772,51.8042861 378.218766,54.4103 377.419613,57.2469853 C374.823799,66.4604932 375.823216,75.7540689 379.595825,84.5062343 C388.321653,104.73668 407.99911,122.532686 399.708143,146.284206 C399.574633,146.699796 399.700514,147.102041 399.950368,147.378465 C400.392858,147.856965 401.188196,148.00185 401.62115,147.32318 C402.963878,145.615069 404.031958,143.832609 404.861626,141.99677" id="Fill-802" fill="#DA2171"></path>
                        <path d="M403.689981,97.4465137 C403.764366,96.9413245 403.051041,96.6839639 402.772577,97.0881153 C400.729875,100.010587 399.553081,103.066506 398.87218,106.189147 C398.044419,97.6619341 395.387571,89.2109759 396.179094,80.5750994 C396.222962,80.0927867 395.585928,79.9841233 395.379942,80.3939938 C393.697717,83.7816213 392.253902,87.4818942 391.412789,91.2507966 C391.109531,87.9832707 390.617452,84.7824679 390.295121,81.4386871 C389.841187,76.8023843 390.501107,72.1546432 390.197849,67.5049958 C390.173054,67.1790058 389.717213,67.0150576 389.471174,67.2228524 C386.40426,69.9108404 384.834564,73.6759301 384.081187,77.6011552 C383.461319,74.770189 383.291571,71.8972827 383.899995,68.9538404 C384.87271,64.2412827 386.657928,59.0940715 388.178034,54.5035217 C388.330617,54.0383663 387.756525,53.5255516 387.357902,53.9030137 C385.95414,55.1631273 384.64765,56.4003643 383.468948,57.6700098 C383.697823,56.1887568 383.970564,54.7094102 384.420683,53.2815357 C385.872127,48.7005177 387.981584,44.4740855 389.440657,39.900693 C389.515041,39.6280815 389.206061,39.3726273 388.975279,39.559452 C386.364207,41.7098424 383.056975,45.2785755 380.518379,49.3296213 C379.2672,51.8040954 378.220101,54.4101094 377.420948,57.2467946 C374.823226,66.462209 375.824551,75.7538783 379.595253,84.5060436 C388.321081,104.73649 407.998538,122.532496 399.707571,146.284016 C399.574061,146.699605 399.699942,147.10185 399.949796,147.378275 C411.132207,133.646659 401.361187,113.103568 403.689981,97.4465137" id="Fill-804" fill="#E65290"></path>
                        <path d="M399.17334,146.505918 C403.270188,133.041195 399.779857,120.461029 392.579857,108.826426 C386.848466,99.5652584 378.711989,90.6682086 375.587857,80.1297703 C370.281791,62.2346329 376.335513,40.2426966 392.600837,29.9330233 C392.719089,29.8567683 392.90791,29.9921209 392.797287,30.119848 C377.704943,47.5517365 376.890532,70.420605 387.102135,90.624362 C392.087777,100.48985 399.011221,108.62435 402.209738,119.427774 C404.879936,128.446832 403.682162,138.276099 400.495089,147.005388 C400.180387,147.867069 398.912042,147.367599 399.17334,146.505918" id="Fill-806" fill="#F9C78E"></path>
                        <path d="M296.662315,82.6469472 C296.408646,83.501003 297.104805,84.0595707 297.827666,84.0824472 C298.237732,84.0919791 298.666872,83.9051544 298.918633,83.4933775 C312.77315,59.3586763 341.910739,62.9026265 365.149097,55.534489 C375.202395,52.3451245 383.695534,46.4487082 389.520381,37.6031305 C391.313229,34.8808277 392.732249,32.1165847 393.8976,29.2798994 C394.500302,27.8367739 395.030527,26.391742 395.511163,24.9219273 C399.146448,19.0903277 400.971719,11.3351962 400.487269,4.7715488 C400.407163,3.7554512 398.980514,3.01577789 398.267189,3.94799502 C391.408593,12.7706962 376.760646,14.3777699 366.745494,17.717738 C355.870156,21.3284114 345.176011,25.9513695 335.284832,31.7848755 C325.70454,37.4468078 317.102686,44.4298576 310.272699,53.2563715 C304.909415,60.2146384 301.522077,67.9526125 298.767958,76.0813934 C297.833388,78.1021504 297.118156,80.288762 296.662315,82.6469472" id="Fill-808" fill="#DA2171"></path>
                        <path d="M336.871693,44.7819649 C337.239799,44.3530307 337.972196,44.7648076 337.836779,45.2890606 C336.8736,49.1113414 335.168487,52.3102378 333.049494,55.141204 C340.781626,49.6527518 349.772567,45.7504032 356.421362,38.8321701 C356.793282,38.4470825 357.344487,38.902706 357.151852,39.3697677 C355.538289,43.2301761 353.489865,47.1172737 350.949362,50.5487478 C353.899931,48.4364849 356.932514,46.5262976 359.961282,44.3740008 C364.168752,41.3943375 367.57707,37.4767378 371.683454,34.3617219 C371.975269,34.1424888 372.442554,34.4074749 372.444461,34.7639669 C372.421574,39.2725426 370.409388,43.3121502 367.672434,46.7855645 C370.491401,45.2528394 373.016646,43.3121502 375.034554,40.6718215 C378.271216,36.4434829 381.280911,31.2238295 384.019772,26.6275606 C384.296328,26.1624052 385.143163,26.2729749 385.116461,26.8772956 C385.078315,28.9628693 384.99058,30.9512179 384.782686,32.8537797 C385.858395,31.5917598 386.897865,30.2916124 387.763772,28.8808952 C390.542686,24.349443 392.547242,19.5263155 395.31662,14.992957 C395.488275,14.73369 395.928858,14.8061323 395.938395,15.1359351 C396.033759,18.8743355 395.444408,24.2217159 393.8976,29.2793275 C392.732249,32.1160127 391.313229,34.8821622 389.520381,37.6025586 C383.695534,46.4481363 375.202395,52.3445526 365.149097,55.5339171 C341.910739,62.9020546 312.77315,59.3581044 298.918633,83.4928056 C298.666872,83.9045825 298.237732,84.0914072 297.827666,84.0822219 C301.209282,64.7912717 325.46613,58.0713016 336.871693,44.7819649" id="Fill-810" fill="#E65290"></path>
                        <path d="M299.119089,84.0990327 C307.411963,70.9202657 320.457791,64.7226422 335.403274,62.3072657 C347.302824,60.3856402 360.636652,60.7383195 371.714162,55.7131163 C390.521897,47.1820904 404.525181,26.1890944 401.362903,5.13128167 C401.340016,4.97686534 401.090162,4.9196741 401.06346,5.10268606 C397.420546,30.3392717 378.88746,47.5900546 354.594374,53.6980785 C342.731062,56.6796482 330.913526,56.7883116 319.563274,61.9431482 C310.085976,66.2477418 302.735301,74.3688972 297.743936,83.357453 C297.251857,84.2458235 298.588864,84.9416502 299.119089,84.0990327" id="Fill-812" fill="#F9C78E"></path>
                        <g id="Group-816" stroke-width="1" fill="none" transform="translate(390.562914, 0.596695)">
                            <mask id="mask-16" fill="white">
                                <use xlink:href="#path-15"></use>
                            </mask>
                            <g id="Clip-815"></g>
                            <path d="M38.0558517,119.56713 C42.4712159,111.398316 46.1103152,103.010268 47.676196,93.6366243 C49.6406993,81.7198773 48.8396397,69.76119 46.2705272,58.0007657 C43.604143,45.8685984 39.3890437,33.9899789 34.2374675,22.7118673 C29.5074013,12.3183135 19.9862358,-0.467740239 21.9278517,-12.4016446 C22.1414675,-13.6541327 20.5031099,-14.2374833 19.6410172,-13.5530948 C14.0774675,-9.10171036 9.27301722,-1.93946135 7.32949404,5.23613227 C6.51699073,6.70022789 5.76170596,8.18529363 5.06173245,9.72564422 C3.67322914,12.7396223 2.52504371,15.9003912 1.69156026,19.3280526 C-1.03204238,30.4593733 0.552911258,41.5335028 5.4317457,51.8450825 C16.7152424,75.6823892 40.9949775,96.1511323 32.0688848,124.910698 C31.9277457,125.413981 32.0955868,125.890575 32.4045669,126.208939 C32.9538649,126.763694 33.9113219,126.904766 34.4034013,126.075493 C35.9368583,123.976575 37.1422623,121.797588 38.0558517,119.56713" id="Fill-814" fill="#DA2171" mask="url(#mask-16)"></path>
                        </g>
                        <g id="Group-819" stroke-width="1" fill="none" transform="translate(390.562914, 0.596695)">
                            <mask id="mask-18" fill="white">
                                <use xlink:href="#path-17"></use>
                            </mask>
                            <g id="Clip-818"></g>
                            <path d="M34.7945854,66.3217092 C34.8613404,65.7135757 33.9973404,65.4371514 33.6807311,65.928996 C31.3595656,69.5110737 30.0797775,73.2170657 29.3969695,76.9821554 C28.0504265,66.8135538 24.5200424,56.8165259 25.1055788,46.4515677 C25.1360954,45.8720299 24.3693669,45.770992 24.1404927,46.2685558 C22.2713536,50.3920438 20.6959364,54.877743 19.8471947,59.4206335 C19.3493934,55.5259104 18.6284397,51.7150677 18.1020291,47.7288386 C17.3658172,42.2041653 17.9608901,36.6165817 17.4039629,31.0671255 C17.3600954,30.6744124 16.8069828,30.4990259 16.5227974,30.7601992 C12.9657113,34.1020737 11.2453404,38.6716534 10.5091285,43.3994622 C9.64512848,40.0385239 9.32470464,36.6070498 9.93122119,33.0611932 C10.8982146,27.3821036 12.8188503,21.1520717 14.4457642,15.59499 C14.6078834,15.0345159 13.9002808,14.4454462 13.4387179,14.912508 C11.811804,16.4776414 10.2993272,18.0122729 8.94515497,19.5793127 C9.15495629,17.798759 9.41816159,16.0182052 9.89879735,14.2929363 C11.443698,8.75110558 13.7896583,3.60770717 15.3460026,-1.92459163 C15.4242013,-2.25439442 15.0427444,-2.5479761 14.7738172,-2.31349203 C11.7393272,0.366870518 7.93238675,4.77440837 5.06192318,9.72716932 C3.67341987,12.739241 2.52523444,15.90001 1.69175099,19.3276713 C-1.03185166,30.458992 0.553101987,41.5331215 5.43002914,51.8447012 C16.7154331,75.682008 40.9951682,96.150751 32.0690755,124.910317 C31.9279364,125.4136 32.0957775,125.890193 32.4047576,126.210464 C45.2102675,109.316173 32.6622411,85.1490637 34.7945854,66.3217092" id="Fill-817" fill="#E65290" mask="url(#mask-18)"></path>
                        </g>
                        <g id="Group-822" stroke-width="1" fill="none" transform="translate(387.655629, 0.596695)">
                            <mask id="mask-20" fill="white">
                                <use xlink:href="#path-19"></use>
                            </mask>
                            <g id="Clip-821"></g>
                            <path d="M34.3473377,125.198751 C38.6845033,108.920219 33.9868609,94.0161835 24.8872053,80.3989504 C17.6433377,69.5573986 7.53854305,59.2553508 3.35968212,46.7762233 C-3.7373245,25.5906835 2.59104636,-0.968926096 21.6162119,-13.9818384 C21.7554437,-14.0790635 21.9862252,-13.9227408 21.8584371,-13.7664181 C4.53266225,7.71651614 4.51168212,35.107305 17.5727682,58.8531058 C23.9488212,70.4457691 32.5716556,79.888042 36.8496954,92.6798149 C40.4201325,103.357419 39.3959205,115.163596 35.949457,125.742068 C35.608053,126.786761 34.0688742,126.239632 34.3473377,125.198751" id="Fill-820" fill="#F9C78E" mask="url(#mask-20)"></path>
                        </g>
                        <g id="Group-825" stroke-width="1" fill="none" transform="translate(294.198675, 0.596695)">
                            <mask id="mask-22" fill="white">
                                <use xlink:href="#path-21"></use>
                            </mask>
                            <g id="Clip-824"></g>
                            <path d="M0.614145695,49.6624743 C0.312794702,50.684291 1.14627815,51.3534285 2.01027815,51.3801177 C2.50235762,51.391556 3.01541722,51.1685102 3.31486093,50.6747592 C19.9006093,21.7836536 54.7772185,26.0272432 82.5930596,17.2083548 C94.6280265,13.391793 104.795762,6.33248825 111.76498,-4.25551574 C113.912583,-7.51350976 115.611974,-10.8229759 117.006199,-14.2182289 C117.727152,-15.9454042 118.364185,-17.6744859 118.940185,-19.4359759 C123.288795,-26.4152129 125.47645,-35.6992568 124.892821,-43.5554261 C124.797457,-44.771693 123.092344,-45.6562508 122.237881,-44.5410217 C114.028927,-33.979707 96.4952583,-32.0580815 84.5060662,-28.0604141 C71.4869404,-23.7348504 58.685245,-18.2025516 46.8467285,-11.2214082 C35.3801325,-4.44424681 25.082702,3.91520538 16.9061722,14.4822392 C10.4881589,22.8111894 6.43136424,32.0742631 3.13748344,41.8024922 C2.01790728,44.2216815 1.16153642,46.8391337 0.614145695,49.6624743" id="Fill-823" fill="#DA2171" mask="url(#mask-22)"></path>
                        </g>
                        <g id="Group-828" stroke-width="1" fill="none" transform="translate(296.105960, 0.596695)">
                            <mask id="mask-24" fill="white">
                                <use xlink:href="#path-23"></use>
                            </mask>
                            <g id="Clip-827"></g>
                            <path d="M46.8377642,4.33670478 C47.278347,3.82389004 48.155698,4.31573466 47.9935788,4.94293187 C46.8415788,9.52013705 44.8007841,13.3481371 42.2660026,16.7376709 C51.5182411,10.1683044 62.281049,5.49578048 70.2401483,-2.78551036 C70.686453,-3.24494661 71.3463735,-2.70162988 71.1155921,-2.14115578 C69.1835126,2.47798964 66.7326517,7.13335618 63.6886252,11.2415932 C67.2228238,8.71183426 70.8523868,6.42609124 74.4800424,3.84867291 C79.5133669,0.281846215 83.593049,-4.40592869 88.5100291,-8.13670359 C88.8590623,-8.39787689 89.4178967,-8.08141873 89.4217113,-7.65439084 C89.393102,-2.25553825 86.9842013,2.57712112 83.7093934,6.7349239 C87.0814728,4.90099163 90.1064265,2.57902749 92.521049,-0.583647809 C96.3947444,-5.64316574 99.9976053,-11.890355 103.276228,-17.3940582 C103.610003,-17.9488131 104.618956,-17.8191797 104.58844,-17.092851 C104.544572,-14.5974068 104.439672,-12.2182514 104.18791,-9.94013386 C105.475327,-11.4518888 106.718877,-13.0074904 107.754532,-14.6946319 C111.084652,-20.1201737 113.484016,-25.8926757 116.79697,-31.3220303 C117.004864,-31.6308629 117.529367,-31.5450761 117.540811,-31.1504566 C117.657155,-26.6742892 116.95146,-20.2726837 115.099486,-14.2180382 C113.705261,-10.8227853 112.00587,-7.51331912 109.858268,-4.2553251 C102.889049,6.33267888 92.7213139,13.3919837 80.686347,17.2085454 C52.870506,26.0274339 17.9938967,21.7838442 1.40814834,50.6749498 C1.10679735,51.1687008 0.595645033,51.3917466 0.103565563,51.3807263 C4.14891656,28.288394 33.1873272,20.2454 46.8377642,4.33670478" id="Fill-826" fill="#E65290" mask="url(#mask-24)"></path>
                        </g>
                        <g id="Group-831" stroke-width="1" fill="none" transform="translate(295.198675, 0.596695)">
                            <mask id="mask-26" fill="white">
                                <use xlink:href="#path-25"></use>
                            </mask>
                            <g id="Clip-830"></g>
                            <path d="M2.55689536,51.4003253 C12.480498,35.6269827 28.1011603,28.2054667 45.9895841,25.315403 C60.2312795,23.014409 76.1914384,23.4376241 89.4527894,17.4211062 C111.966379,7.20865797 128.72569,-17.9192643 124.943544,-43.125348 C124.914935,-43.3102663 124.615491,-43.3788958 124.583068,-43.1577564 C120.223015,-12.949346 98.0412927,7.69859622 68.9590146,15.0095424 C54.7611868,18.5801819 40.6148556,18.7098153 27.0273589,24.8807496 C15.6847364,30.0336799 6.88643179,39.7542835 0.910908609,50.5138612 C0.319650331,51.5757118 1.92176954,52.4087974 2.55689536,51.4003253" id="Fill-829" fill="#F9C78E" mask="url(#mask-26)"></path>
                        </g>
                        <g id="Group-843" stroke-width="1" fill="none" transform="translate(324.715232, 113.979165)">
                            <mask id="mask-28" fill="white">
                                <use xlink:href="#path-27"></use>
                            </mask>
                            <g id="Clip-842"></g>
                            <path d="M89.0047788,252.012987 C83.2772026,247.431969 84.8755073,237.05176 78.6825536,233.43918 C72.4876927,229.828507 66.809706,228.795252 64.7441166,221.573905 C62.6785272,214.350652 67.3265801,214.350652 64.7441166,195.774939 C63.5616,187.270602 130.816275,144.699353 117.911587,133.863521 C105.006898,123.029594 62.1635603,176.169783 41.0003285,163.787881 C19.8351894,151.405979 5.90056689,151.922606 3.31810331,134.894869 C0.73754702,117.869038 -1.84300927,99.8118592 6.41553377,88.4613054 C14.6740768,77.1107516 20.8689377,70.4041261 35.8392159,75.046148 C50.8075868,79.6900763 92.1022093,109.099716 101.911375,104.455787 C111.716726,99.8118592 54.9368583,82.7860285 53.388143,54.9262715 C51.8413351,27.0646082 58.6408053,28.0959568 60.1437457,19.3266341 C61.6466861,10.555405 70.9389775,5.3948492 75.5851232,1.26754841 C80.2293616,-2.85975239 94.6846728,7.45945279 103.975057,3.84877948 C113.267348,0.236199801 125.136381,-1.31177629 131.848117,9.52215 C138.557944,20.3579827 148.883984,28.0959568 134.945547,62.6642456 C121.00711,97.2325345 128.750686,107.55174 133.913706,102.907811 C139.074819,98.2638831 146.818395,50.7989707 153.528223,42.0277416 C160.239958,33.2565125 172.110898,16.745403 187.596143,25.5166321 C203.083295,34.2878612 215.986077,32.2232576 228.373891,49.2509946 C240.761706,66.2768253 229.924514,75.046148 237.149309,86.9133293 C244.376011,98.7805106 246.956567,107.035112 233.536911,111.67904 C220.115348,116.322969 154.560064,120.964991 156.625653,132.315544 C158.689335,143.668005 211.891136,116.420194 236.632434,145.730702 C250.570872,162.239905 230.956355,167.400461 233.536911,175.138435 C233.536911,175.138435 239.729865,182.361688 231.471322,198.872797 C223.212779,215.382001 210.824964,203.516726 203.598262,213.319303 C196.37156,223.121881 173.659613,224.15323 161.271799,211.2547 C148.883984,198.35617 138.557944,159.145859 132.363083,161.725184 C126.17013,164.304509 139.589785,199.904146 155.591905,217.961325 C171.594024,236.018505 147.333362,240.145805 143.20409,248.917034 C139.074819,257.688264 132.689229,259.23624 121.945494,255.625566 C111.201759,252.012987 101.911375,262.332192 89.0047788,252.012987" id="Fill-841" fill="#DA2171" mask="url(#mask-28)"></path>
                        </g>
                        <path d="M427.55164,231.693216 C427.55164,231.693216 408.249918,260.443249 383.64213,266.654218 C379.896223,267.599779 376.657653,263.931915 378.181574,260.382245 L381.799693,251.944632 C381.799693,251.944632 364.475825,262.002664 347.08711,255.454267 C342.980726,253.908198 343.245838,247.985092 347.449494,246.728791 L360.462898,242.837881 C360.462898,242.837881 344.067878,237.700202 338.838103,227.1427 C337.144434,223.720757 340.148408,219.839379 343.896223,220.584771 L357.844196,223.358546 C357.844196,223.358546 354.447322,220.50661 351.784752,215.513815 C349.610448,211.43608 354.250872,207.074295 358.229468,209.428668 C373.14062,218.243743 402.772196,233.42611 427.55164,231.693216" id="Fill-844" fill="#E65290"></path>
                        <path d="M350.461097,282.662616 C352.545759,281.293839 355.345653,281.873377 356.715083,283.957044 C358.084514,286.040712 357.502792,288.841176 355.420037,290.208046 C353.335375,291.576823 350.533574,290.999192 349.164143,288.913618 C347.79662,286.829951 348.374527,284.031393 350.461097,282.662616" id="Fill-849" fill="#F7B43E"></path>
                        <path d="M332.910072,297.985292 C334.994734,296.616515 337.796535,297.196053 339.164058,299.27972 C340.533489,301.363387 339.953674,304.163852 337.869012,305.530722 C335.78435,306.899499 332.982548,306.321868 331.613118,304.236294 C330.245595,302.152626 330.823502,299.354069 332.910072,297.985292" id="Fill-851" fill="#F7B43E"></path>
                        <path d="M355.365298,295.560574 C357.44996,294.191797 360.249854,294.771335 361.619285,296.856909 C362.988715,298.93867 362.406993,301.739134 360.324238,303.107911 C358.239576,304.476688 355.437775,303.89715 354.068344,301.813482 C352.700821,299.729815 353.278728,296.929351 355.365298,295.560574" id="Fill-853" fill="#F7B43E"></path>
                        <path d="M344.137685,297.985292 C346.222347,296.616515 349.024148,297.196053 350.391672,299.27972 C351.761102,301.363387 351.17938,304.163852 349.096625,305.530722 C347.011963,306.899499 344.210162,306.321868 342.840731,304.236294 C341.473208,302.152626 342.051115,299.354069 344.137685,297.985292" id="Fill-855" fill="#F7B43E"></path>
                        <path d="M339.618946,288.440456 C341.705515,287.071679 344.505409,287.651217 345.872932,289.734884 C347.24427,291.818552 346.662548,294.619016 344.579793,295.985886 C342.495131,297.354663 339.69333,296.777032 338.323899,294.691458 C336.956376,292.607791 337.534283,289.809233 339.618946,288.440456" id="Fill-857" fill="#F7B43E"></path>
                        <path d="M353.327555,292.213171 C401.846972,283.95857 466.88729,242.838072 457.078125,233.395799 C453.465727,222.561872 438.899793,261.745494 353.327555,292.213171" id="Fill-861" fill="#4347B2"></path>
                        <path d="M438.997065,213.830296 C438.997065,213.830296 392.259052,192.825862 393.620853,158.583563 C393.771528,154.787971 399.130999,154.069268 400.345939,157.668503 L402.228429,163.231304 C402.228429,163.231304 400.836111,150.990473 407.965542,139.199547 C409.785091,136.191288 414.402628,137.438057 414.402628,140.951505 L414.402628,149.39865 C414.402628,149.39865 416.02382,139.678047 427.921462,131.962949 C430.576403,130.241493 433.965648,132.63018 433.185568,135.693724 C432.035475,140.206113 430.912085,145.664063 431.192456,148.944933 C431.192456,148.944933 436.019793,140.534009 450.475105,139.800055 C452.985091,139.672328 454.753144,142.245933 453.791873,144.565991 C448.310336,157.811481 433.805436,195.664453 438.997065,213.830296" id="Fill-868" fill="#E65290"></path>
                    </g>
                </g>
            </g>
        </g>
    </g>
</svg>