<?xml version="1.0" encoding="UTF-8"?>
<svg width="277px" height="277px" viewBox="0 0 277 277" version="1.1" xmlns="http://www.w3.org/2000/svg" xmlns:xlink="http://www.w3.org/1999/xlink">
    <!-- Generator: Sketch 52.6 (67491) - http://www.bohemiancoding.com/sketch -->
    <title>name</title>
    <desc>Created with Sketch.</desc>
    <g id="converted" stroke="none" stroke-width="1" fill="none" fill-rule="evenodd">
        <g id="mWeb-Design" transform="translate(-27.000000, -170.000000)">
            <g id="Group-8" transform="translate(27.000000, 170.000000)">
                <g id="name">
                    <g id="Group-3">
                        <path d="M103.472996,155.846017 C118.203897,166.147304 133.89135,171.679476 149.578802,166.910362 C152.065838,201.820278 129.682521,206.207863 116.673414,206.207863 C104.046927,206.207863 92.5683035,201.438749 82.237542,193.808166 C73.4372636,202.011042 62.3412605,206.207863 45.314635,206.207863 C23.8878703,206.207863 -1.55641282,190.946698 0.930622371,165.193481 C2.65241596,148.215434 15.4702127,138.867971 29.2445614,135.052679 C12.0266255,110.634814 15.0875919,68.6666095 60.4281565,68.6666095 C78.411334,68.6666095 94.0987867,75.7248985 94.6727179,91.5583577 C95.2466491,107.964111 80.7070588,117.502339 68.4631932,121.126866 C78.2200236,133.335798 89.8899579,145.92626 102.516444,154.892194 L105.003479,148.02467 C109.97755,136.578796 117.247345,123.988334 130.065142,122.652982 C140.013282,121.699159 149.770113,125.89598 152.065838,135.815737 C154.744183,147.452376 146.517836,157.753663 135.421833,157.181369 C111.508033,155.846017 119.925691,127.99439 112.273275,138.295677 C109.786239,141.538674 105.960031,149.550786 103.472996,155.846017 Z M54.6888445,70.9557843 C38.8100814,76.4879568 67.1240204,119.21922 67.3153308,119.600749 C68.845814,113.496283 71.1415388,105.8657 69.802366,90.6045348 C68.6545036,77.0602505 62.3412605,68.4758449 54.6888445,70.9557843 Z M38.8100814,176.639355 C50.0973949,190.755933 67.889262,199.340339 80.7070588,192.663579 C76.49823,189.420581 40.9144958,154.892194 30.3924238,136.76956 C25.9922846,150.313845 30.5837342,166.338068 38.8100814,176.639355 Z" id="&amp;" fill="#FFFFFF"></path>
                        <path d="M104.91239,124.056506 C107.996546,124.056506 106.234171,127.86409 100.579886,127.86409 C83.6904628,127.86409 68.3431172,101.723563 61.367051,86.127114 C60.1187024,86.4932278 58.8703537,86.7861188 57.622005,87.0057871 C58.1360309,102.309345 64.3777743,111.97475 64.3777743,112.487309 C64.3777743,113.073091 62.4685352,114.171433 60.7795928,114.171433 C50.6459388,114.171433 44.9916536,95.0602912 44.9916536,71.0432245 C44.9916536,60.0598098 46.6071637,46.8797122 50.1319129,46.8797122 C52.7754748,46.8797122 60.6327283,47.1726032 60.6327283,49.8818455 C60.6327283,52.2981968 58.1360309,63.3548342 57.6954373,79.6835107 C58.2094632,79.4638424 58.7234891,79.1709513 59.237515,78.8780603 C59.5312441,70.4574424 62.3216706,39.0448764 72.7490537,39.0448764 C74.4379961,39.0448764 82.4421141,38.6787626 84.8653792,41.0951138 C87.2886443,43.511465 89.1978834,48.1244992 89.1978834,55.8128895 C89.1978834,66.5034131 81.0469009,76.3152635 70.7663823,82.0998619 C77.5221516,95.9389644 92.9429295,124.056506 104.91239,124.056506 Z M71.5741373,42.8524601 C65.1855294,42.8524601 62.0279415,69.1394326 61.5139156,77.5600505 C69.7383304,72.7273481 79.6516876,64.965735 79.6516876,53.762652 C79.6516876,44.463361 75.0254543,42.8524601 71.5741373,42.8524601 Z M113.905112,75.4365903 C118.164184,75.4365903 121.615501,79.5370651 121.615501,90.6669254 C121.615501,101.870008 117.870455,114.610769 108.250827,114.610769 C99.5858184,114.610769 97.5297146,104.798919 97.5297146,97.4034197 C97.5297146,90.5204798 98.8514956,82.0266391 104.212052,80.8550749 C105.974426,75.9491497 110.453795,75.4365903 113.905112,75.4365903 Z M111.922441,110.729963 C116.548674,110.729963 121.24834,79.903179 113.391086,79.903179 C111.041253,79.903179 111.995873,87.5915692 109.352311,89.9346977 C109.425743,98.7946522 107.36964,110.729963 111.922441,110.729963 Z M161.082617,116.661007 C161.082617,125.154847 162.698127,126.326412 162.698127,127.424753 C162.698127,130.060773 151.609853,130.280441 151.609853,119.66314 C151.609853,109.119062 153.959686,93.8155042 153.959686,90.2275888 C153.959686,86.7128961 151.095828,85.5413318 151.095828,85.5413318 C151.095828,85.5413318 146.616459,105.677592 146.616459,112.487309 C146.616459,112.999869 146.396162,113.365982 146.029001,113.585651 C146.102433,114.317878 145.294678,114.537547 142.944845,114.537547 C126.202286,114.537547 136.776534,62.9154976 136.776534,59.4740277 C136.776534,58.3756862 135.821914,55.5199984 138.832638,55.5199984 C140.888741,55.5199984 146.689891,56.5451171 146.689891,59.9133643 C146.689891,63.2083887 142.13709,83.63754 142.13709,99.0875433 C142.13709,102.675459 142.724548,105.531147 143.458871,107.654607 C144.854084,99.8197709 149.260021,82.8320896 151.462989,82.8320896 C154.106551,82.8320896 162.404398,84.5894359 162.404398,90.5204798 C162.404398,96.5247465 161.082617,109.85129 161.082617,116.661007 Z M187.185059,69.944883 C187.185059,76.5349318 172.865765,70.0181058 172.865765,66.3569675 C172.865765,62.6226065 176.023353,62.7690521 179.694967,62.7690521 C183.293148,62.7690521 187.185059,67.1624179 187.185059,69.944883 Z M195.482906,92.7903855 C195.996932,90.9598164 197.392145,91.7652668 197.098416,92.9368311 C196.217229,96.378301 190.195782,113.658873 185.128955,113.658873 L184.982091,113.658873 C175.435895,113.658873 174.260978,99.9662164 174.260978,93.2297221 C174.260978,84.7358814 175.068733,81.6605253 175.068733,79.8299562 C175.068733,76.6081546 184.3212,79.4638424 184.3212,83.1249806 C184.3212,85.7610001 183.880606,90.154366 183.880606,93.3029449 C183.880606,101.137781 185.422684,106.043706 186.671033,108.826171 C189.681756,107.21527 194.96888,94.6941774 195.482906,92.7903855 Z M247.066347,63.1351659 C249.195883,63.2083887 248.75529,64.3067301 246.919483,64.8925122 C240.971469,66.7230814 227.973956,68.7733188 216.004495,69.7252147 C214.168688,80.0496245 212.112584,92.2046034 212.112584,99.3804343 C212.112584,118.85769 218.501192,120.468591 214.095256,120.468591 C209.689319,120.468591 203.080414,111.901527 203.080414,95.9389644 C203.080414,88.4702424 204.475628,78.8780603 205.944273,70.2377741 C202.566389,70.3109968 199.482233,70.1645513 196.985536,69.8716602 C189.71574,68.9929871 184.502049,65.4782944 180.830435,62.9887204 C179.288357,61.9636017 180.096112,61.0117057 181.124164,61.231374 C188.393959,62.6958293 197.646426,63.3548342 207.11919,63.6477253 L207.559783,61.4510423 C208.661267,55.6664439 209.542455,51.2730781 209.542455,49.6621772 C209.542455,42.6327918 218.501192,47.1726032 218.501192,52.6643106 C218.501192,54.1287659 218.060599,57.1308992 217.47314,61.231374 L217.032547,63.720948 C229.662898,63.6477253 241.33863,63.1351659 247.066347,63.1351659 Z" id="Rohit" fill="#323159"></path>
                        <path d="M126.772686,212.79851 C129.48968,233.447329 136.465746,234.326003 131.76608,234.911785 C127.139847,235.497567 118.181109,227.443063 115.978141,210.528604 C115.243818,204.817228 114.950089,197.934289 114.876657,191.051349 C113.114282,192.076467 110.323856,193.760591 106.945971,195.810828 C99.3090147,216.166757 88.5144702,239.890933 80.1431908,238.939037 C70.6704272,237.840695 68.9814849,233.227661 69.6423754,227.516285 C70.8172918,217.338321 85.2100178,206.062015 97.9138014,197.934289 C102.466602,186.950874 106.358513,176.113905 108.488049,169.523856 C95.8576977,174.503004 82.1992945,181.166276 81.3181072,188.488552 C81.0243781,191.197794 76.3981447,188.195661 76.9121706,183.875518 C78.4542484,170.109638 107.53343,164.105371 114.876657,159.858451 C114.950089,153.561293 125.30404,155.904422 126.038363,161.469352 C126.772686,167.327173 125.083743,199.398744 126.772686,212.79851 Z M74.7826347,234.399225 C80.4369199,235.05823 88.5879024,219.68145 95.7842654,203.133105 C84.3288305,210.967941 72.4328018,220.779791 71.6250468,227.882399 C71.6250468,227.882399 70.8172918,233.959889 74.7826347,234.399225 Z M114.876657,188.195661 C114.803225,182.630731 114.876657,177.139024 114.950089,172.525989 C113.628308,176.992578 111.351908,183.875518 108.488049,191.637131 C111.131611,190.172676 113.261147,189.001111 114.876657,188.195661 Z M174.537649,193.101586 C174.537649,196.616279 170.792603,212.066282 170.792603,217.631212 C170.792603,228.68785 172.187816,228.028845 172.187816,230.152305 C172.187816,232.275765 161.099542,230.738087 161.099542,218.36344 C161.099542,210.235713 162.64162,200.497085 163.669672,194.858933 C160.438652,202.986659 154.857799,224.221261 151.99394,228.394959 C151.920508,228.761072 151.773643,228.980741 151.406482,229.127186 L151.186185,229.127186 C150.965888,229.200409 150.672159,229.273632 150.304998,229.273632 C139.583886,229.273632 140.611938,204.377892 140.611938,203.27955 C140.611938,201.961541 139.804183,202.4741 139.804183,201.15609 C139.804183,199.838081 150.598727,199.105853 150.598727,203.865333 C150.598727,205.403011 150.304998,213.311069 150.304998,215.72742 C150.304998,217.631212 150.451862,219.315336 150.672159,220.779791 C153.462586,211.4805 159.777761,192.296136 165.064885,189.294002 C165.21175,189.147557 165.432047,189.074334 165.652343,189.001111 C165.946073,188.927889 166.166369,188.854666 166.460098,188.854666 C166.900692,188.854666 167.341286,188.854666 167.855312,188.927889 C169.030228,188.927889 169.691119,189.074334 169.911415,189.294002 C172.261248,189.953007 174.537649,191.34424 174.537649,193.101586 Z M197.188774,184.900637 C197.188774,191.490685 182.86948,184.973859 182.86948,181.312721 C182.86948,177.57836 186.027068,177.724806 189.698682,177.724806 C193.296863,177.724806 197.188774,182.118171 197.188774,184.900637 Z M205.486621,207.746139 C206.000647,205.91557 207.39586,206.72102 207.102131,207.892585 C206.220944,211.334055 200.199497,228.614627 195.13267,228.614627 L194.985805,228.614627 C185.43961,228.614627 184.264693,214.92197 184.264693,208.185476 C184.264693,199.691635 185.072448,196.616279 185.072448,194.78571 C185.072448,191.563908 194.324915,194.419596 194.324915,198.080734 C194.324915,200.716754 193.884321,205.11012 193.884321,208.258698 C193.884321,216.093534 195.426399,220.999459 196.674748,223.781925 C199.685471,222.171024 204.972595,209.649931 205.486621,207.746139 Z M253.325016,178.090919 C255.454552,178.164142 255.013959,179.262484 253.178152,179.848266 C247.230137,181.678835 234.232625,183.729072 222.263164,184.680968 C220.427357,195.005378 218.371253,207.160357 218.371253,214.336188 C218.371253,233.813443 224.759861,235.424344 220.353925,235.424344 C215.947988,235.424344 209.339083,226.857281 209.339083,210.894718 C209.339083,203.425996 210.734296,193.833814 212.202942,185.193528 C208.825057,185.26675 205.740902,185.120305 203.244204,184.827414 C195.974409,183.948741 190.760718,180.434048 187.089104,177.944474 C185.547026,176.919355 186.354781,175.967459 187.382833,176.187128 C194.652628,177.651583 203.905095,178.310588 213.377858,178.603479 L213.818452,176.406796 C214.919936,170.622197 215.801123,166.228832 215.801123,164.617931 C215.801123,157.588545 224.759861,162.128357 224.759861,167.620064 C224.759861,169.084519 224.319267,172.086653 223.731809,176.187128 L223.291216,178.676702 C235.921567,178.603479 247.597299,178.090919 253.325016,178.090919 Z M275.168386,202.766991 C275.60898,201.229313 277.297922,201.302536 276.930761,203.133105 C276.563599,204.817228 269.367236,230.005859 263.125493,232.202542 C262.905196,232.348988 262.464602,232.422211 261.950577,232.422211 C255.047943,232.422211 253.359,218.143772 252.844974,218.143772 C252.257516,218.143772 249.46709,229.273632 243.66594,229.273632 C237.86479,229.273632 233.165125,225.392825 233.165125,215.214861 C233.165125,205.622679 238.452248,189.953007 249.320225,189.953007 C256.88375,189.953007 262.244306,189.953007 262.244306,200.643531 C262.244306,201.66865 259.600744,202.547323 259.600744,200.936422 C259.600744,199.252298 259.086718,193.321254 256.369724,193.321254 C249.173361,193.321254 242.784753,206.354907 242.784753,219.827895 C242.784753,222.537138 243.078482,226.930503 245.28145,226.930503 C247.484418,226.930503 252.110652,211.626946 252.110652,207.819362 C252.110652,206.354907 252.110652,203.718887 256.516588,203.718887 C260.995957,203.718887 262.831764,205.769124 262.831764,207.306802 C262.831764,207.746139 262.831764,208.112253 262.831764,208.478367 C263.052061,213.457515 262.611467,227.516285 265.034732,227.516285 C266.57681,227.516285 274.65436,204.377892 275.168386,202.766991 Z" id="Anita" fill="#323159"></path>
                        <rect id="Rectangle" fill="#6AFFDA" x="40.5653266" y="0" width="139.5" height="24.4651741"></rect>
                        <path d="M51.8150553,17.6289055 C50.1494673,17.6289055 49.3166734,16.6447065 49.3166734,14.9223582 L49.3166734,14.3072338 L50.9205729,14.3072338 L50.9205729,15.0453831 C50.9205729,15.8142886 51.2598593,16.0910945 51.7996332,16.0910945 C52.339407,16.0910945 52.6786935,15.8142886 52.6786935,15.0146269 C52.6786935,14.1226965 52.339407,13.5537065 51.2290151,12.5848856 C49.8101809,11.3392587 49.3475176,10.4627065 49.3475176,9.23245771 C49.3475176,7.54086567 50.2265779,6.55666667 51.8767437,6.55666667 C53.5269095,6.55666667 54.3442814,7.54086567 54.3442814,9.26321393 L54.3442814,9.7091791 L52.7403819,9.7091791 L52.7403819,9.15556716 C52.7403819,8.38666169 52.4319397,8.09447761 51.8921658,8.09447761 C51.352392,8.09447761 51.0439497,8.38666169 51.0439497,9.12481095 C51.0439497,9.90909453 51.3986583,10.4780846 52.5090503,11.4469055 C53.9278844,12.6925323 54.3751256,13.5537065 54.3751256,14.891602 C54.3751256,16.6447065 53.4806432,17.6289055 51.8150553,17.6289055 Z M58.3497758,17.4751244 L60.1078964,6.71044776 L62.4057908,6.71044776 L64.1639114,17.4751244 L62.4674793,17.4751244 L62.1590371,15.3375672 L62.1590371,15.3683234 L60.2312732,15.3683234 L59.922831,17.4751244 L58.3497758,17.4751244 Z M60.4317607,13.907403 L61.9585496,13.907403 L61.2028662,8.58657711 L61.172022,8.58657711 L60.4317607,13.907403 Z M69.2335314,17.4751244 L67.5987877,6.71044776 L69.310642,6.71044776 L70.4210339,15.0607612 L70.4518781,15.0607612 L71.5622701,6.71044776 L73.1199033,6.71044776 L71.4851595,17.4751244 L69.2335314,17.4751244 Z M77.4338398,17.4751244 L77.4338398,6.71044776 L82.060473,6.71044776 L82.060473,8.24825871 L79.130272,8.24825871 L79.130272,11.093209 L81.4590107,11.093209 L81.4590107,12.6310199 L79.130272,12.6310199 L79.130272,15.9373134 L82.060473,15.9373134 L82.060473,17.4751244 L77.4338398,17.4751244 Z M99.7831369,17.4751244 L99.7831369,8.24825871 L98.0095942,8.24825871 L98.0095942,6.71044776 L103.253112,6.71044776 L103.253112,8.24825871 L101.479569,8.24825871 L101.479569,17.4751244 L99.7831369,17.4751244 Z M107.567048,17.4751244 L107.567048,6.71044776 L109.263481,6.71044776 L109.263481,11.093209 L111.08329,11.093209 L111.08329,6.71044776 L112.779722,6.71044776 L112.779722,17.4751244 L111.08329,17.4751244 L111.08329,12.6310199 L109.263481,12.6310199 L109.263481,17.4751244 L107.567048,17.4751244 Z M117.540899,17.4751244 L117.540899,6.71044776 L122.167533,6.71044776 L122.167533,8.24825871 L119.237332,8.24825871 L119.237332,11.093209 L121.56607,11.093209 L121.56607,12.6310199 L119.237332,12.6310199 L119.237332,15.9373134 L122.167533,15.9373134 L122.167533,17.4751244 L117.540899,17.4751244 Z M138.563895,17.4751244 L138.563895,6.71044776 L141.15481,6.71044776 C142.851242,6.71044776 143.684036,7.64851244 143.684036,9.3708607 L143.684036,14.8147114 C143.684036,16.5370597 142.851242,17.4751244 141.15481,17.4751244 L138.563895,17.4751244 Z M140.260327,15.9373134 L141.123965,15.9373134 C141.663739,15.9373134 141.987604,15.6605075 141.987604,14.891602 L141.987604,9.29397015 C141.987604,8.52506468 141.663739,8.24825871 141.123965,8.24825871 L140.260327,8.24825871 L140.260327,15.9373134 Z M147.843751,17.4751244 L149.601872,6.71044776 L151.899766,6.71044776 L153.657887,17.4751244 L151.961455,17.4751244 L151.653013,15.3375672 L151.653013,15.3683234 L149.725249,15.3683234 L149.416807,17.4751244 L147.843751,17.4751244 Z M149.925736,13.907403 L151.452525,13.907403 L150.696842,8.58657711 L150.665997,8.58657711 L149.925736,13.907403 Z M158.588708,17.4751244 L158.588708,8.24825871 L156.815165,8.24825871 L156.815165,6.71044776 L162.058683,6.71044776 L162.058683,8.24825871 L160.28514,8.24825871 L160.28514,17.4751244 L158.588708,17.4751244 Z M166.372619,17.4751244 L166.372619,6.71044776 L170.999252,6.71044776 L170.999252,8.24825871 L168.069051,8.24825871 L168.069051,11.093209 L170.39779,11.093209 L170.39779,12.6310199 L168.069051,12.6310199 L168.069051,15.9373134 L170.999252,15.9373134 L170.999252,17.4751244 L166.372619,17.4751244 Z" id="Save-the-Date" fill="#323159"></path>
                    </g>
                    <g id="Group-7" transform="translate(140.809045, 262.126866)" fill="#323159">
                        <path d="M0.743766332,13.9800995 L0.743766332,12.8113632 C0.743766332,11.2735522 1.17558543,10.3354876 2.44019849,9.01297015 C3.73565578,7.64431841 4.10578643,6.82927861 4.10578643,5.82970149 C4.10578643,4.8608806 3.7665,4.59945274 3.22672613,4.59945274 C2.68695226,4.59945274 2.34766583,4.89163682 2.34766583,5.66054229 L2.34766583,6.8139005 L0.743766332,6.8139005 L0.743766332,5.76818905 C0.743766332,4.0458408 1.60740452,3.06164179 3.27299246,3.06164179 C4.9385804,3.06164179 5.80221859,4.0458408 5.80221859,5.76818905 C5.80221859,7.04457214 5.27786683,8.18255224 3.70481156,9.84338806 C2.68695226,10.9198557 2.42477638,11.4580896 2.42477638,12.2116169 L2.42477638,12.4422886 L5.64799749,12.4422886 L5.64799749,13.9800995 L0.743766332,13.9800995 Z M11.1186407,13.9800995 L11.1186407,12.8113632 C11.1186407,11.2735522 11.5504598,10.3354876 12.8150729,9.01297015 C14.1105302,7.64431841 14.4806608,6.82927861 14.4806608,5.82970149 C14.4806608,4.8608806 14.1413744,4.59945274 13.6016005,4.59945274 C13.0618266,4.59945274 12.7225402,4.89163682 12.7225402,5.66054229 L12.7225402,6.8139005 L11.1186407,6.8139005 L11.1186407,5.76818905 C11.1186407,4.0458408 11.9822789,3.06164179 13.6478668,3.06164179 C15.3134548,3.06164179 16.177093,4.0458408 16.177093,5.76818905 C16.177093,7.04457214 15.6527412,8.18255224 14.0796859,9.84338806 C13.0618266,10.9198557 12.7996508,11.4580896 12.7996508,12.2116169 L12.7996508,12.4422886 L16.0228719,12.4422886 L16.0228719,13.9800995 L11.1186407,13.9800995 Z M28.1979271,13.9800995 L28.1979271,12.3500199 L29.8326709,12.3500199 L29.8326709,13.9800995 L28.1979271,13.9800995 Z M41.9768819,13.9800995 L41.9768819,3.21542289 L46.4647161,3.21542289 L46.4647161,4.75323383 L43.6733141,4.75323383 L43.6733141,7.75196517 L45.8632538,7.75196517 L45.8632538,9.28977612 L43.6733141,9.28977612 L43.6733141,13.9800995 L41.9768819,13.9800995 Z M51.4881181,13.9800995 L51.4881181,3.21542289 L56.1147513,3.21542289 L56.1147513,4.75323383 L53.1845503,4.75323383 L53.1845503,7.59818408 L55.5132889,7.59818408 L55.5132889,9.13599502 L53.1845503,9.13599502 L53.1845503,12.4422886 L56.1147513,12.4422886 L56.1147513,13.9800995 L51.4881181,13.9800995 Z M61.2923744,13.9800995 L61.2923744,3.21542289 L63.8524447,3.21542289 C65.6105653,3.21542289 66.3662487,4.03046269 66.3662487,5.69129851 L66.3662487,6.12188557 C66.3662487,7.22910945 66.0269623,7.92112438 65.2712789,8.22868657 L65.2712789,8.25944279 C66.1811834,8.56700498 66.535892,9.36666667 66.535892,10.5046468 L66.535892,11.4273333 C66.535892,13.0881692 65.6568317,13.9800995 63.9603995,13.9800995 L61.2923744,13.9800995 Z M62.9888065,7.59818408 L63.6519573,7.59818408 C64.2842638,7.59818408 64.6698166,7.32137811 64.6698166,6.46020398 L64.6698166,5.86045771 C64.6698166,5.09155224 64.4076407,4.75323383 63.8061784,4.75323383 L62.9888065,4.75323383 L62.9888065,7.59818408 Z M62.9888065,12.4422886 L63.9603995,12.4422886 C64.5310176,12.4422886 64.8394598,12.1808607 64.8394598,11.381199 L64.8394598,10.4431343 C64.8394598,9.44355721 64.5155955,9.13599502 63.7444899,9.13599502 L62.9888065,9.13599502 L62.9888065,12.4422886 Z M78.402505,13.9800995 L78.402505,12.3500199 L80.0372487,12.3500199 L80.0372487,13.9800995 L78.402505,13.9800995 Z M92.1506156,13.9800995 L92.1506156,12.8113632 C92.1506156,11.2735522 92.5824347,10.3354876 93.8470477,9.01297015 C95.142505,7.64431841 95.5126357,6.82927861 95.5126357,5.82970149 C95.5126357,4.8608806 95.1733492,4.59945274 94.6335754,4.59945274 C94.0938015,4.59945274 93.7545151,4.89163682 93.7545151,5.66054229 L93.7545151,6.8139005 L92.1506156,6.8139005 L92.1506156,5.76818905 C92.1506156,4.0458408 93.0142538,3.06164179 94.6798417,3.06164179 C96.3454296,3.06164179 97.2090678,4.0458408 97.2090678,5.76818905 C97.2090678,7.04457214 96.6847161,8.18255224 95.1116608,9.84338806 C94.0938015,10.9198557 93.8316256,11.4580896 93.8316256,12.2116169 L93.8316256,12.4422886 L97.0548467,12.4422886 L97.0548467,13.9800995 L92.1506156,13.9800995 Z M105.00845,14.1338806 C103.342862,14.1338806 102.432957,13.1496816 102.432957,11.4273333 L102.432957,5.76818905 C102.432957,4.0458408 103.342862,3.06164179 105.00845,3.06164179 C106.674038,3.06164179 107.583942,4.0458408 107.583942,5.76818905 L107.583942,11.4273333 C107.583942,13.1496816 106.674038,14.1338806 105.00845,14.1338806 Z M105.00845,12.5960697 C105.548224,12.5960697 105.88751,12.3038856 105.88751,11.5349801 L105.88751,5.66054229 C105.88751,4.89163682 105.548224,4.59945274 105.00845,4.59945274 C104.468676,4.59945274 104.129389,4.89163682 104.129389,5.66054229 L104.129389,11.5349801 C104.129389,12.3038856 104.468676,12.5960697 105.00845,12.5960697 Z M115.306214,13.9800995 L115.306214,5.76818905 L113.532671,5.76818905 L113.532671,4.56869652 C114.966927,4.56869652 115.475857,4.26113433 115.86141,3.21542289 L117.002646,3.21542289 L117.002646,13.9800995 L115.306214,13.9800995 Z M125.69651,14.1338806 C124.030922,14.1338806 123.167284,13.1496816 123.167284,11.4273333 L123.167284,11.2274179 L124.771183,11.2274179 L124.771183,11.5349801 C124.771183,12.3038856 125.11047,12.5960697 125.650244,12.5960697 C126.251706,12.5960697 126.590992,12.3038856 126.590992,11.2735522 L126.590992,9.21288557 L126.560148,9.21288557 C126.267128,9.82800995 125.773621,10.1509502 125.017937,10.1509502 C123.768746,10.1509502 123.13644,9.27439801 123.13644,7.69045274 L123.13644,5.76818905 C123.13644,4.0458408 124.046344,3.06164179 125.711932,3.06164179 C127.37752,3.06164179 128.287425,4.0458408 128.287425,5.76818905 L128.287425,11.3350647 C128.287425,13.1496816 127.454631,14.1338806 125.69651,14.1338806 Z M125.711932,8.6131393 C126.297972,8.6131393 126.590992,8.2748209 126.590992,7.55204975 L126.590992,5.64516418 C126.590992,4.93777114 126.297972,4.59945274 125.711932,4.59945274 C125.125892,4.59945274 124.832872,4.93777114 124.832872,5.64516418 L124.832872,7.55204975 C124.832872,8.2748209 125.125892,8.6131393 125.711932,8.6131393 Z" id="22-.-FEB-.-2019"></path>
                    </g>
                </g>
            </g>
        </g>
    </g>
</svg>