<?xml version="1.0" encoding="UTF-8"?>
<svg width="395px" height="396px" viewBox="0 0 395 396" version="1.1" xmlns="http://www.w3.org/2000/svg" xmlns:xlink="http://www.w3.org/1999/xlink">
    <!-- Generator: Sketch 52.6 (67491) - http://www.bohemiancoding.com/sketch -->
    <title>name</title>
    <desc>Created with Sketch.</desc>
    <g id="Page-2" stroke="none" stroke-width="1" fill="none" fill-rule="evenodd">
        <g id="one" transform="translate(-889.000000, -269.000000)">
            <g id="name" transform="translate(881.000000, 269.000000)">
                <g id="Group-3">
                    <path d="M154.739256,222.954088 C175.753229,237.69116 198.131746,245.605514 220.510263,238.782795 C224.058077,288.725095 192.127754,295.001996 173.569959,295.001996 C155.557983,295.001996 139.183458,288.179278 124.446386,277.262928 C111.892584,288.998004 96.0638769,295.001996 71.774999,295.001996 C41.2092199,295.001996 4.91235734,273.169297 8.46017098,236.326617 C10.9163497,212.037739 29.2012353,198.66521 48.8506647,193.207036 C24.288878,158.274717 28.6554178,98.2347937 93.3347895,98.2347937 C118.988211,98.2347937 141.366728,108.332417 142.185454,130.983843 C143.00418,154.453994 122.263116,168.099431 104.796957,173.284698 C118.715302,190.750857 135.362736,208.762834 153.374713,221.589545 L156.922526,211.76483 C164.018154,195.390306 174.388686,177.378329 192.673571,175.467967 C206.864826,174.103424 220.783172,180.107416 224.058077,194.298671 C227.878799,210.946104 216.143723,225.683176 200.315016,224.86445 C166.201423,222.954088 178.209408,183.109412 167.293058,197.846484 C163.745245,202.485933 158.28707,213.9481 154.739256,222.954088 Z M85.1475273,101.509699 C62.4961018,109.424052 102.886595,170.55561 103.159504,171.101428 C105.342774,162.368348 108.617679,151.451998 106.707318,129.619299 C105.069865,110.242778 96.0638769,97.9618849 85.1475273,101.509699 Z M62.4961018,252.701141 C78.5977175,272.896388 103.97823,285.177281 122.263116,275.625476 C116.259124,270.986027 65.4980979,221.589545 50.4881171,195.663214 C44.2112161,215.039735 50.7610259,237.964069 62.4961018,252.701141 Z" id="&amp;" fill="#6AFFDA"></path>
                    <path d="M156.792586,177.475856 C161.192205,177.475856 158.678137,182.923004 150.612167,182.923004 C126.519011,182.923004 104.625665,145.526236 94.6741445,123.213878 C92.893346,123.737643 91.1125475,124.156654 89.331749,124.470913 C90.065019,146.364259 98.9690114,160.191635 98.9690114,160.924905 C98.9690114,161.762928 96.2454373,163.334221 93.8361217,163.334221 C79.3802281,163.334221 71.3142586,135.993726 71.3142586,101.634791 C71.3142586,85.9218631 73.6188213,67.0663498 78.6469582,67.0663498 C82.4180608,67.0663498 93.626616,67.4853612 93.626616,71.3612167 C93.626616,74.8180608 90.065019,90.6357414 89.4365019,113.995627 C90.1697719,113.681369 90.9030418,113.262357 91.6363118,112.843346 C92.0553232,100.796768 96.0359316,55.8577947 110.910837,55.8577947 C113.320152,55.8577947 124.738213,55.3340304 128.195057,58.7908745 C131.651901,62.2477186 134.375475,68.8471483 134.375475,79.8461977 C134.375475,95.1401141 122.747909,109.176996 108.08251,117.452471 C117.719772,137.25076 139.717871,177.475856 156.792586,177.475856 Z M109.234791,61.304943 C100.121293,61.304943 95.6169202,98.9112167 94.8836502,110.957795 C106.61597,104.044106 120.757605,92.9403042 120.757605,76.9131179 C120.757605,63.6095057 114.158175,61.304943 109.234791,61.304943 Z M169.620913,107.919962 C175.696578,107.919962 180.619962,113.786122 180.619962,129.708555 C180.619962,145.735741 175.277567,163.962738 161.554943,163.962738 C149.194106,163.962738 146.261027,149.925856 146.261027,139.345817 C146.261027,129.499049 148.146578,117.347719 155.793536,115.671673 C158.307605,108.653232 164.697529,107.919962 169.620913,107.919962 Z M166.792586,158.410837 C173.392015,158.410837 180.096198,114.309886 168.887643,114.309886 C165.535551,114.309886 166.897338,125.308935 163.126236,128.661027 C163.230989,141.336122 160.297909,158.410837 166.792586,158.410837 Z M236.920722,166.895817 C236.920722,179.047148 239.225285,180.723194 239.225285,182.294487 C239.225285,186.065589 223.407605,186.379848 223.407605,171.190684 C223.407605,156.106274 226.759696,134.212928 226.759696,129.080038 C226.759696,124.051901 222.674335,122.375856 222.674335,122.375856 C222.674335,122.375856 216.284411,151.18289 216.284411,160.924905 C216.284411,161.658175 215.970152,162.181939 215.446388,162.496198 C215.551141,163.543726 214.398859,163.857985 211.046768,163.857985 C187.163118,163.857985 202.247529,90.0072243 202.247529,85.0838403 C202.247529,83.5125475 200.885741,79.4271863 205.180608,79.4271863 C208.113688,79.4271863 216.389163,80.8937262 216.389163,85.7123574 C216.389163,90.4262357 209.894487,119.652281 209.894487,141.755133 C209.894487,146.888023 210.73251,150.973384 211.780038,154.011217 C213.770342,142.802662 220.055513,118.5 223.198099,118.5 C226.969202,118.5 238.806274,121.014068 238.806274,129.499049 C238.806274,138.088783 236.920722,157.153802 236.920722,166.895817 Z M274.156464,100.063498 C274.156464,109.491255 253.729658,100.168251 253.729658,94.9306084 C253.729658,89.5882129 258.23403,89.7977186 263.471673,89.7977186 C268.604563,89.7977186 274.156464,96.0828897 274.156464,100.063498 Z M285.993536,132.746388 C286.726806,130.127567 288.71711,131.279848 288.298099,132.955894 C287.041065,137.879278 278.451331,162.600951 271.223384,162.600951 L271.013878,162.600951 C257.396008,162.600951 255.719962,143.012167 255.719962,133.374905 C255.719962,121.223574 256.872243,116.823954 256.872243,114.205133 C256.872243,109.596008 270.071103,113.681369 270.071103,118.919011 C270.071103,122.690114 269.442586,128.975285 269.442586,133.479658 C269.442586,144.688213 271.642395,151.706654 273.423194,155.687262 C277.718061,153.3827 285.260266,135.469962 285.993536,132.746388 Z M359.578517,90.3214829 C362.61635,90.4262357 361.987833,91.9975285 359.369011,92.8355513 C350.88403,95.4543726 332.342776,98.3874525 315.268061,99.7492395 C312.64924,114.519392 309.71616,131.908365 309.71616,142.174144 C309.71616,170.038403 318.829658,172.342966 312.544487,172.342966 C306.259316,172.342966 296.831559,160.086882 296.831559,137.25076 C296.831559,126.56597 298.821863,112.843346 300.91692,100.48251 C296.098289,100.587262 291.698669,100.377757 288.137072,99.9587452 C277.76654,98.701711 270.329087,93.6735741 265.091445,90.1119772 C262.891635,88.6454373 264.043916,87.2836502 265.510456,87.5979087 C275.880989,89.6929658 289.079848,90.6357414 302.592966,91.0547529 L303.221483,87.9121673 C304.792776,79.636692 306.04981,73.3515209 306.04981,71.0469582 C306.04981,60.9906844 318.829658,67.4853612 318.829658,75.3418251 C318.829658,77.4368821 318.201141,81.731749 317.363118,87.5979087 L316.734601,91.1595057 C334.752091,91.0547529 351.407795,90.3214829 359.578517,90.3214829 Z" id="Rohit" fill="#323159"></path>
                    <path d="M187.976806,304.430608 C191.852662,333.970913 201.804183,335.227947 195.1,336.06597 C188.50057,336.903992 175.720722,325.381179 172.578137,301.18327 C171.530608,293.012548 171.111597,283.165779 171.006844,273.319011 C168.492776,274.785551 164.512167,277.194867 159.693536,280.127947 C148.79924,309.24924 133.40057,343.189163 121.458745,341.827376 C107.945627,340.256084 105.536312,333.656654 106.479087,325.485932 C108.155133,310.925285 128.686692,294.793346 146.808935,283.165779 C153.303612,267.452852 158.855513,251.94943 161.893346,242.521673 C143.875856,249.644867 124.391825,259.177376 123.134791,269.652662 C122.715779,273.528517 116.11635,269.23365 116.84962,263.053232 C119.04943,243.359696 160.531559,234.769962 171.006844,228.694297 C171.111597,219.685551 185.881749,223.037643 186.929278,230.998859 C187.976806,239.379087 185.56749,285.260837 187.976806,304.430608 Z M113.811787,335.3327 C121.877757,336.275475 133.505323,314.277376 143.771103,290.603232 C127.429658,301.811787 110.459696,315.848669 109.307414,326.009696 C109.307414,326.009696 108.155133,334.704183 113.811787,335.3327 Z M171.006844,269.23365 C170.902091,261.272433 171.006844,253.41597 171.111597,246.81654 C169.226046,253.206464 165.978707,263.053232 161.893346,274.157034 C165.664449,272.061977 168.702281,270.385932 171.006844,269.23365 Z M256.114639,276.252091 C256.114639,281.280228 250.772243,303.38308 250.772243,311.344297 C250.772243,327.161977 252.762548,326.219202 252.762548,329.257034 C252.762548,332.294867 236.944867,330.095057 236.944867,312.391825 C236.944867,300.764259 239.144677,286.832129 240.611217,278.76616 C236.002091,290.393726 228.040875,320.772053 223.955513,326.742966 C223.85076,327.26673 223.641255,327.580989 223.11749,327.790494 L222.803232,327.790494 C222.488973,327.895247 222.069962,328 221.546198,328 C206.252281,328 207.718821,292.38403 207.718821,290.812738 C207.718821,288.927186 206.56654,289.660456 206.56654,287.774905 C206.56654,285.889354 221.965209,284.841825 221.965209,291.65076 C221.965209,293.85057 221.546198,305.163878 221.546198,308.620722 C221.546198,311.344297 221.755703,313.753612 222.069962,315.848669 C226.05057,302.545057 235.059316,275.09981 242.601521,270.804943 C242.811027,270.595437 243.125285,270.490684 243.439544,270.385932 C243.858555,270.281179 244.172814,270.176426 244.591825,270.176426 C245.220342,270.176426 245.848859,270.176426 246.582129,270.281179 C248.258175,270.281179 249.200951,270.490684 249.515209,270.804943 C252.8673,271.747719 256.114639,273.738023 256.114639,276.252091 Z M288.426996,264.519772 C288.426996,273.947529 268.00019,264.624525 268.00019,259.386882 C268.00019,254.044487 272.504563,254.253992 277.742205,254.253992 C282.875095,254.253992 288.426996,260.539163 288.426996,264.519772 Z M300.264068,297.202662 C300.997338,294.58384 302.987643,295.736122 302.568631,297.412167 C301.311597,302.335551 292.721863,327.057224 285.493916,327.057224 L285.284411,327.057224 C271.66654,327.057224 269.990494,307.468441 269.990494,297.831179 C269.990494,285.679848 271.142776,281.280228 271.142776,278.661407 C271.142776,274.052281 284.341635,278.137643 284.341635,283.375285 C284.341635,287.146388 283.713118,293.431559 283.713118,297.935932 C283.713118,309.144487 285.912928,316.162928 287.693726,320.143536 C291.988593,317.838973 299.530798,299.926236 300.264068,297.202662 Z M368.506654,254.777757 C371.544487,254.88251 370.91597,256.453802 368.297148,257.291825 C359.812167,259.910646 341.270913,262.843726 324.196198,264.205513 C321.577376,278.975665 318.644297,296.364639 318.644297,306.630418 C318.644297,334.494677 327.757795,336.79924 321.472624,336.79924 C315.187452,336.79924 305.759696,324.543156 305.759696,301.707034 C305.759696,291.022243 307.75,277.29962 309.845057,264.938783 C305.026426,265.043536 300.626806,264.83403 297.065209,264.415019 C286.694677,263.157985 279.257224,258.129848 274.019582,254.568251 C271.819772,253.101711 272.972053,251.739924 274.438593,252.054183 C284.809125,254.14924 298.007985,255.092015 311.521103,255.511027 L312.14962,252.368441 C313.720913,244.092966 314.977947,237.807795 314.977947,235.503232 C314.977947,225.446958 327.757795,231.941635 327.757795,239.798099 C327.757795,241.893156 327.129278,246.188023 326.291255,252.054183 L325.662738,255.615779 C343.680228,255.511027 360.335932,254.777757 368.506654,254.777757 Z M399.66673,290.079468 C400.295247,287.879658 402.704563,287.984411 402.180798,290.603232 C401.657034,293.012548 391.391255,329.047529 382.487262,332.190114 C382.173004,332.39962 381.544487,332.504373 380.811217,332.504373 C370.964449,332.504373 368.555133,312.077567 367.821863,312.077567 C366.98384,312.077567 363.003232,328 354.727757,328 C346.452281,328 339.748099,322.448099 339.748099,307.887452 C339.748099,294.164829 347.290304,271.747719 362.793726,271.747719 C373.58327,271.747719 381.230228,271.747719 381.230228,287.041635 C381.230228,288.508175 377.459125,289.765209 377.459125,287.460646 C377.459125,285.051331 376.725856,276.56635 372.85,276.56635 C362.584221,276.56635 353.470722,295.212357 353.470722,314.486882 C353.470722,318.362738 353.889734,324.647909 357.032319,324.647909 C360.174905,324.647909 366.774335,302.754563 366.774335,297.307414 C366.774335,295.212357 366.774335,291.441255 373.059506,291.441255 C379.44943,291.441255 382.068251,294.374335 382.068251,296.574144 C382.068251,297.202662 382.068251,297.726426 382.068251,298.25019 C382.38251,305.373384 381.753992,325.485932 385.210837,325.485932 C387.410646,325.485932 398.93346,292.38403 399.66673,290.079468 Z" id="Anita" fill="#323159"></path>
                    <rect id="Rectangle" fill="#6AFFDA" x="65" y="0" width="199" height="35"></rect>
                    <path d="M81.048,25.22 C78.672,25.22 77.484,23.812 77.484,21.348 L77.484,20.468 L79.772,20.468 L79.772,21.524 C79.772,22.624 80.256,23.02 81.026,23.02 C81.796,23.02 82.28,22.624 82.28,21.48 C82.28,20.204 81.796,19.39 80.212,18.004 C78.188,16.222 77.528,14.968 77.528,13.208 C77.528,10.788 78.782,9.38 81.136,9.38 C83.49,9.38 84.656,10.788 84.656,13.252 L84.656,13.89 L82.368,13.89 L82.368,13.098 C82.368,11.998 81.928,11.58 81.158,11.58 C80.388,11.58 79.948,11.998 79.948,13.054 C79.948,14.176 80.454,14.99 82.038,16.376 C84.062,18.158 84.7,19.39 84.7,21.304 C84.7,23.812 83.424,25.22 81.048,25.22 Z M90.369931,25 L92.877931,9.6 L96.155931,9.6 L98.663931,25 L96.243931,25 L95.803931,21.942 L95.803931,21.986 L93.053931,21.986 L92.613931,25 L90.369931,25 Z M93.339931,19.896 L95.517931,19.896 L94.439931,12.284 L94.395931,12.284 L93.339931,19.896 Z M105.895862,25 L103.563862,9.6 L106.005862,9.6 L107.589862,21.546 L107.633862,21.546 L109.217862,9.6 L111.439862,9.6 L109.107862,25 L105.895862,25 Z M117.593793,25 L117.593793,9.6 L124.193793,9.6 L124.193793,11.8 L120.013793,11.8 L120.013793,15.87 L123.335793,15.87 L123.335793,18.07 L120.013793,18.07 L120.013793,22.8 L124.193793,22.8 L124.193793,25 L117.593793,25 Z M149.475586,25 L149.475586,11.8 L146.945586,11.8 L146.945586,9.6 L154.425586,9.6 L154.425586,11.8 L151.895586,11.8 L151.895586,25 L149.475586,25 Z M160.579517,25 L160.579517,9.6 L162.999517,9.6 L162.999517,15.87 L165.595517,15.87 L165.595517,9.6 L168.015517,9.6 L168.015517,25 L165.595517,25 L165.595517,18.07 L162.999517,18.07 L162.999517,25 L160.579517,25 Z M174.807448,25 L174.807448,9.6 L181.407448,9.6 L181.407448,11.8 L177.227448,11.8 L177.227448,15.87 L180.549448,15.87 L180.549448,18.07 L177.227448,18.07 L177.227448,22.8 L181.407448,22.8 L181.407448,25 L174.807448,25 Z M204.797241,25 L204.797241,9.6 L208.493241,9.6 C210.913241,9.6 212.101241,10.942 212.101241,13.406 L212.101241,21.194 C212.101241,23.658 210.913241,25 208.493241,25 L204.797241,25 Z M207.217241,22.8 L208.449241,22.8 C209.219241,22.8 209.681241,22.404 209.681241,21.304 L209.681241,13.296 C209.681241,12.196 209.219241,11.8 208.449241,11.8 L207.217241,11.8 L207.217241,22.8 Z M218.035172,25 L220.543172,9.6 L223.821172,9.6 L226.329172,25 L223.909172,25 L223.469172,21.942 L223.469172,21.986 L220.719172,21.986 L220.279172,25 L218.035172,25 Z M221.005172,19.896 L223.183172,19.896 L222.105172,12.284 L222.061172,12.284 L221.005172,19.896 Z M233.363103,25 L233.363103,11.8 L230.833103,11.8 L230.833103,9.6 L238.313103,9.6 L238.313103,11.8 L235.783103,11.8 L235.783103,25 L233.363103,25 Z M244.467034,25 L244.467034,9.6 L251.067034,9.6 L251.067034,11.8 L246.887034,11.8 L246.887034,15.87 L250.209034,15.87 L250.209034,18.07 L246.887034,18.07 L246.887034,22.8 L251.067034,22.8 L251.067034,25 L244.467034,25 Z" id="Save-the-Date" fill="#323159"></path>
                </g>
                <g id="Group-7" transform="translate(208.000000, 375.000000)" fill="#323159">
                    <path d="M1.061,20 L1.061,18.328 C1.061,16.128 1.677,14.786 3.481,12.894 C5.329,10.936 5.857,9.77 5.857,8.34 C5.857,6.954 5.373,6.58 4.603,6.58 C3.833,6.58 3.349,6.998 3.349,8.098 L3.349,9.748 L1.061,9.748 L1.061,8.252 C1.061,5.788 2.293,4.38 4.669,4.38 C7.045,4.38 8.277,5.788 8.277,8.252 C8.277,10.078 7.529,11.706 5.285,14.082 C3.833,15.622 3.459,16.392 3.459,17.47 L3.459,17.8 L8.057,17.8 L8.057,20 L1.061,20 Z M15.861,20 L15.861,18.328 C15.861,16.128 16.477,14.786 18.281,12.894 C20.129,10.936 20.657,9.77 20.657,8.34 C20.657,6.954 20.173,6.58 19.403,6.58 C18.633,6.58 18.149,6.998 18.149,8.098 L18.149,9.748 L15.861,9.748 L15.861,8.252 C15.861,5.788 17.093,4.38 19.469,4.38 C21.845,4.38 23.077,5.788 23.077,8.252 C23.077,10.078 22.329,11.706 20.085,14.082 C18.633,15.622 18.259,16.392 18.259,17.47 L18.259,17.8 L22.857,17.8 L22.857,20 L15.861,20 Z M40.225,20 L40.225,17.668 L42.557,17.668 L42.557,20 L40.225,20 Z M59.881,20 L59.881,4.6 L66.283,4.6 L66.283,6.8 L62.301,6.8 L62.301,11.09 L65.425,11.09 L65.425,13.29 L62.301,13.29 L62.301,20 L59.881,20 Z M73.449,20 L73.449,4.6 L80.049,4.6 L80.049,6.8 L75.869,6.8 L75.869,10.87 L79.191,10.87 L79.191,13.07 L75.869,13.07 L75.869,17.8 L80.049,17.8 L80.049,20 L73.449,20 Z M87.435,20 L87.435,4.6 L91.087,4.6 C93.595,4.6 94.673,5.766 94.673,8.142 L94.673,8.758 C94.673,10.342 94.189,11.332 93.111,11.772 L93.111,11.816 C94.409,12.256 94.915,13.4 94.915,15.028 L94.915,16.348 C94.915,18.724 93.661,20 91.241,20 L87.435,20 Z M89.855,10.87 L90.801,10.87 C91.703,10.87 92.253,10.474 92.253,9.242 L92.253,8.384 C92.253,7.284 91.879,6.8 91.021,6.8 L89.855,6.8 L89.855,10.87 Z M89.855,17.8 L91.241,17.8 C92.055,17.8 92.495,17.426 92.495,16.282 L92.495,14.94 C92.495,13.51 92.033,13.07 90.933,13.07 L89.855,13.07 L89.855,17.8 Z M111.843,20 L111.843,17.668 L114.175,17.668 L114.175,20 L111.843,20 Z M131.455,20 L131.455,18.328 C131.455,16.128 132.071,14.786 133.875,12.894 C135.723,10.936 136.251,9.77 136.251,8.34 C136.251,6.954 135.767,6.58 134.997,6.58 C134.227,6.58 133.743,6.998 133.743,8.098 L133.743,9.748 L131.455,9.748 L131.455,8.252 C131.455,5.788 132.687,4.38 135.063,4.38 C137.439,4.38 138.671,5.788 138.671,8.252 C138.671,10.078 137.923,11.706 135.679,14.082 C134.227,15.622 133.853,16.392 133.853,17.47 L133.853,17.8 L138.451,17.8 L138.451,20 L131.455,20 Z M149.797,20.22 C147.421,20.22 146.123,18.812 146.123,16.348 L146.123,8.252 C146.123,5.788 147.421,4.38 149.797,4.38 C152.173,4.38 153.471,5.788 153.471,8.252 L153.471,16.348 C153.471,18.812 152.173,20.22 149.797,20.22 Z M149.797,18.02 C150.567,18.02 151.051,17.602 151.051,16.502 L151.051,8.098 C151.051,6.998 150.567,6.58 149.797,6.58 C149.027,6.58 148.543,6.998 148.543,8.098 L148.543,16.502 C148.543,17.602 149.027,18.02 149.797,18.02 Z M164.487,20 L164.487,8.252 L161.957,8.252 L161.957,6.536 C164.003,6.536 164.729,6.096 165.279,4.6 L166.907,4.6 L166.907,20 L164.487,20 Z M179.309,20.22 C176.933,20.22 175.701,18.812 175.701,16.348 L175.701,16.062 L177.989,16.062 L177.989,16.502 C177.989,17.602 178.473,18.02 179.243,18.02 C180.101,18.02 180.585,17.602 180.585,16.128 L180.585,13.18 L180.541,13.18 C180.123,14.06 179.419,14.522 178.341,14.522 C176.559,14.522 175.657,13.268 175.657,11.002 L175.657,8.252 C175.657,5.788 176.955,4.38 179.331,4.38 C181.707,4.38 183.005,5.788 183.005,8.252 L183.005,16.216 C183.005,18.812 181.817,20.22 179.309,20.22 Z M179.331,12.322 C180.167,12.322 180.585,11.838 180.585,10.804 L180.585,8.076 C180.585,7.064 180.167,6.58 179.331,6.58 C178.495,6.58 178.077,7.064 178.077,8.076 L178.077,10.804 C178.077,11.838 178.495,12.322 179.331,12.322 Z" id="22-.-FEB-.-2019"></path>
                </g>
            </g>
        </g>
    </g>
</svg>