<?xml version="1.0" encoding="UTF-8"?>
<svg width="222px" height="225px" viewBox="0 0 222 225" version="1.1" xmlns="http://www.w3.org/2000/svg" xmlns:xlink="http://www.w3.org/1999/xlink">
    <!-- Generator: Sketch 52.6 (67491) - http://www.bohemiancoding.com/sketch -->
    <title>openInWeb</title>
    <desc>Created with Sketch.</desc>
    <g id="converted" stroke="none" stroke-width="1" fill="none" fill-rule="evenodd">
        <g id="mWeb" transform="translate(-67.000000, -207.000000)">
            <g id="openInWeb" transform="translate(67.000000, 207.000000)">
                <rect id="Rectangle" fill="#6AFFDA" x="36" y="0" width="153" height="225"></rect>
                <path d="M0.902,120 L0.902,104.6 L4.466,104.6 C6.886,104.6 8.074,105.942 8.074,108.406 L8.074,109.924 C8.074,112.388 6.886,113.73 4.466,113.73 L3.322,113.73 L3.322,120 L0.902,120 Z M3.322,111.53 L4.466,111.53 C5.236,111.53 5.654,111.178 5.654,110.078 L5.654,108.252 C5.654,107.152 5.236,106.8 4.466,106.8 L3.322,106.8 L3.322,111.53 Z M14.381931,120 L14.381931,104.6 L16.801931,104.6 L16.801931,117.8 L20.783931,117.8 L20.783931,120 L14.381931,120 Z M26.937862,120 L26.937862,104.6 L33.537862,104.6 L33.537862,106.8 L29.357862,106.8 L29.357862,110.87 L32.679862,110.87 L32.679862,113.07 L29.357862,113.07 L29.357862,117.8 L33.537862,117.8 L33.537862,120 L26.937862,120 Z M39.273793,120 L41.781793,104.6 L45.059793,104.6 L47.567793,120 L45.147793,120 L44.707793,116.942 L44.707793,116.986 L41.957793,116.986 L41.517793,120 L39.273793,120 Z M42.243793,114.896 L44.421793,114.896 L43.343793,107.284 L43.299793,107.284 L42.243793,114.896 Z M56.801724,120.22 C54.425724,120.22 53.237724,118.812 53.237724,116.348 L53.237724,115.468 L55.525724,115.468 L55.525724,116.524 C55.525724,117.624 56.009724,118.02 56.779724,118.02 C57.549724,118.02 58.033724,117.624 58.033724,116.48 C58.033724,115.204 57.549724,114.39 55.965724,113.004 C53.941724,111.222 53.281724,109.968 53.281724,108.208 C53.281724,105.788 54.535724,104.38 56.889724,104.38 C59.243724,104.38 60.409724,105.788 60.409724,108.252 L60.409724,108.89 L58.121724,108.89 L58.121724,108.098 C58.121724,106.998 57.681724,106.58 56.911724,106.58 C56.141724,106.58 55.701724,106.998 55.701724,108.054 C55.701724,109.176 56.207724,109.99 57.791724,111.376 C59.815724,113.158 60.453724,114.39 60.453724,116.304 C60.453724,118.812 59.177724,120.22 56.801724,120.22 Z M66.827655,120 L66.827655,104.6 L73.427655,104.6 L73.427655,106.8 L69.247655,106.8 L69.247655,110.87 L72.569655,110.87 L72.569655,113.07 L69.247655,113.07 L69.247655,117.8 L73.427655,117.8 L73.427655,120 L66.827655,120 Z M91.807517,120.22 C89.431517,120.22 88.133517,118.812 88.133517,116.348 L88.133517,108.252 C88.133517,105.788 89.431517,104.38 91.807517,104.38 C94.183517,104.38 95.481517,105.788 95.481517,108.252 L95.481517,116.348 C95.481517,118.812 94.183517,120.22 91.807517,120.22 Z M91.807517,118.02 C92.577517,118.02 93.061517,117.602 93.061517,116.502 L93.061517,108.098 C93.061517,106.998 92.577517,106.58 91.807517,106.58 C91.037517,106.58 90.553517,106.998 90.553517,108.098 L90.553517,116.502 C90.553517,117.602 91.037517,118.02 91.807517,118.02 Z M102.097448,120 L102.097448,104.6 L105.661448,104.6 C108.081448,104.6 109.269448,105.942 109.269448,108.406 L109.269448,109.924 C109.269448,112.388 108.081448,113.73 105.661448,113.73 L104.517448,113.73 L104.517448,120 L102.097448,120 Z M104.517448,111.53 L105.661448,111.53 C106.431448,111.53 106.849448,111.178 106.849448,110.078 L106.849448,108.252 C106.849448,107.152 106.431448,106.8 105.661448,106.8 L104.517448,106.8 L104.517448,111.53 Z M115.577379,120 L115.577379,104.6 L122.177379,104.6 L122.177379,106.8 L117.997379,106.8 L117.997379,110.87 L121.319379,110.87 L121.319379,113.07 L117.997379,113.07 L117.997379,117.8 L122.177379,117.8 L122.177379,120 L115.577379,120 Z M128.55131,120 L128.55131,104.6 L131.58731,104.6 L133.94131,113.818 L133.98531,113.818 L133.98531,104.6 L136.14131,104.6 L136.14131,120 L133.65531,120 L130.75131,108.758 L130.70731,108.758 L130.70731,120 L128.55131,120 Z M151.441172,120 L151.441172,104.6 L153.861172,104.6 L153.861172,120 L151.441172,120 Z M160.653103,120 L160.653103,104.6 L163.689103,104.6 L166.043103,113.818 L166.087103,113.818 L166.087103,104.6 L168.243103,104.6 L168.243103,120 L165.757103,120 L162.853103,108.758 L162.809103,108.758 L162.809103,120 L160.653103,120 Z M184.532965,120 L182.970965,104.6 L185.302965,104.6 L186.380965,116.436 L186.424965,116.436 L187.568965,104.6 L190.208965,104.6 L191.352965,116.436 L191.396965,116.436 L192.474965,104.6 L194.564965,104.6 L193.002965,120 L189.988965,120 L188.888965,109.616 L188.844965,109.616 L187.744965,120 L184.532965,120 Z M200.784896,120 L200.784896,104.6 L207.384896,104.6 L207.384896,106.8 L203.204896,106.8 L203.204896,110.87 L206.526896,110.87 L206.526896,113.07 L203.204896,113.07 L203.204896,117.8 L207.384896,117.8 L207.384896,120 L200.784896,120 Z M213.758827,120 L213.758827,104.6 L217.410827,104.6 C219.918827,104.6 220.996827,105.766 220.996827,108.142 L220.996827,108.758 C220.996827,110.342 220.512827,111.332 219.434827,111.772 L219.434827,111.816 C220.732827,112.256 221.238827,113.4 221.238827,115.028 L221.238827,116.348 C221.238827,118.724 219.984827,120 217.564827,120 L213.758827,120 Z M216.178827,110.87 L217.124827,110.87 C218.026827,110.87 218.576827,110.474 218.576827,109.242 L218.576827,108.384 C218.576827,107.284 218.202827,106.8 217.344827,106.8 L216.178827,106.8 L216.178827,110.87 Z M216.178827,117.8 L217.564827,117.8 C218.378827,117.8 218.818827,117.426 218.818827,116.282 L218.818827,114.94 C218.818827,113.51 218.356827,113.07 217.256827,113.07 L216.178827,113.07 L216.178827,117.8 Z" id="Please-open-in-Web" fill="#323159"></path>
            </g>
        </g>
    </g>
</svg>